<svg width="1600" height="1200" viewBox="0 0 1600 1200" fill="none" xmlns="http://www.w3.org/2000/svg">
<g clip-path="url(#clip0_0:1)">
<path d="M643.625 1123.7C645.525 1123.7 645.525 1120.7 643.625 1120.7C641.725 1120.7 641.725 1123.7 643.625 1123.7Z" fill="#E8E8E8"/>
<path d="M883.225 1170.7C945.525 1210.7 1014.72 1239.6 1086.92 1255.8C1088.82 1256.2 1089.62 1253.3 1087.72 1252.9C1015.72 1236.7 946.825 1208 884.725 1168.1C883.125 1167.1 881.625 1169.7 883.225 1170.7Z" fill="#E8E8E8"/>
<path d="M1074.92 1066.7C1068.42 1053.7 1065.93 1039.5 1067.33 1025.1C1066.53 1025.5 1065.82 1026 1065.02 1026.4C1067.92 1028.5 1070.83 1030.6 1073.73 1032.8C1074.83 1033.6 1076.22 1032.3 1075.92 1031.1C1068.62 1006 1068.12 979.5 1074.52 954.2C1073.62 954.3 1072.73 954.4 1071.83 954.6C1073.63 957.5 1075.33 960.3 1077.13 963.2C1077.83 964.4 1080.02 964 1079.92 962.4C1077.12 932.4 1081.22 902.2 1091.92 874C1091.12 874.2 1090.22 874.4 1089.42 874.7C1095.92 882.3 1097.53 892.1 1098.33 901.8C1099.13 912.4 1099.52 923.1 1099.92 933.7C1100.82 955.9 1101.12 978.1 1100.92 1000.2C1101.92 1000.2 1102.92 1000.2 1103.92 1000.2C1103.12 986.5 1106.93 973.4 1114.83 962.2C1114.03 962.3 1113.22 962.4 1112.42 962.5C1114.32 964.9 1116.12 967.2 1118.02 969.6C1118.92 970.7 1120.53 969.7 1120.63 968.5C1120.93 958.7 1127.22 950.2 1136.42 947.1C1135.82 946.6 1135.12 946.1 1134.52 945.7C1136.52 981.1 1132.73 1016.4 1123.23 1050.5C1122.73 1052.4 1125.63 1053.2 1126.13 1051.3C1135.63 1016.9 1139.52 981.3 1137.52 945.7C1137.42 944.8 1136.63 943.9 1135.63 944.3C1125.03 947.9 1117.93 957.5 1117.63 968.6C1118.53 968.2 1119.33 967.9 1120.23 967.5C1118.33 965.1 1116.53 962.8 1114.63 960.4C1113.93 959.6 1112.73 960 1112.23 960.7C1104.03 972.3 1100.02 986.1 1100.92 1000.3C1101.02 1002.2 1103.92 1002.2 1103.92 1000.3C1104.12 976.2 1103.73 952 1102.63 927.9C1102.13 917.2 1102.03 906.3 1100.63 895.7C1099.53 887.2 1097.12 879.2 1091.42 872.6C1090.62 871.7 1089.32 872.3 1088.92 873.3C1078.12 901.7 1074.03 932.2 1076.83 962.5C1077.73 962.2 1078.73 962 1079.63 961.7C1077.83 958.8 1076.13 956 1074.33 953.1C1073.63 952 1071.93 952.2 1071.63 953.5C1065.13 979.4 1065.62 1006.4 1073.02 1032C1073.72 1031.4 1074.53 1030.9 1075.23 1030.3C1072.33 1028.2 1069.42 1026.1 1066.52 1023.9C1065.52 1023.2 1064.33 1024.2 1064.23 1025.2C1062.73 1040.1 1065.53 1054.9 1072.23 1068.3C1073.13 1069.9 1075.72 1068.4 1074.92 1066.7Z" fill="#E8E8E8"/>
<path d="M512.325 1148.2C489.725 1135.6 470.325 1118 455.825 1096.6C455.725 1097.2 455.625 1097.8 455.625 1098.4C458.325 1095.8 462.525 1096.7 464.125 1100C465.025 1099.5 465.825 1099 466.725 1098.5C456.725 1083.4 446.825 1068.2 436.825 1053.1C431.925 1045.7 427.025 1038.2 422.125 1030.8C419.625 1026.9 417.025 1023.1 414.525 1019.2C413.425 1017.5 412.325 1015.9 411.225 1014.2C408.825 1010.5 408.025 1010.3 409.225 1005.6C410.125 1005.5 411.025 1005.4 411.925 1005.2C397.825 985.7 387.325 964 380.625 940.9C379.925 941.5 379.125 942 378.425 942.6C401.625 955.4 417.325 979.2 433.625 999.5C452.025 1022.4 470.325 1045.4 488.425 1068.6C489.125 1067.9 489.825 1067.2 490.525 1066.5C479.525 1055 472.225 1040.9 469.125 1025.4C468.425 1026 467.625 1026.5 466.925 1027.1C474.625 1032.6 481.125 1039.2 486.525 1046.9C487.325 1048 489.325 1047.7 489.325 1046.1C489.225 1042 489.125 1037.9 489.025 1033.8C488.425 1034.3 487.725 1034.8 487.125 1035.2C495.625 1037.9 501.725 1044.3 506.925 1051.3C512.325 1058.7 517.225 1066.4 522.325 1074C533.325 1090.4 544.425 1106.8 555.425 1123.2C556.525 1124.8 559.125 1123.3 558.025 1121.7C545.825 1103.6 533.725 1085.6 521.525 1067.5C512.725 1054.4 504.025 1037.3 487.825 1032.2C486.925 1031.9 485.925 1032.7 485.925 1033.6C486.025 1037.7 486.125 1041.8 486.225 1045.9C487.125 1045.6 488.125 1045.4 489.025 1045.1C483.325 1036.9 476.425 1030 468.325 1024.2C467.125 1023.4 465.925 1024.7 466.125 1025.9C469.325 1042 477.025 1056.5 488.325 1068.3C489.725 1069.7 491.625 1067.7 490.425 1066.2C471.825 1042.6 453.125 1019 434.325 995.6C418.225 975.6 402.725 952.5 379.825 939.8C378.725 939.2 377.225 940.2 377.625 941.5C384.425 964.8 395.025 986.8 409.225 1006.5C409.925 1007.5 411.625 1007.5 411.925 1006.1C413.125 1001.6 406.325 1000.3 404.425 1004C402.525 1007.9 406.425 1012.5 408.425 1015.4C412.225 1021.2 416.025 1027 419.825 1032.8C434.525 1055.1 449.225 1077.4 463.825 1099.7C464.925 1101.3 467.325 1099.9 466.425 1098.2C463.825 1093.2 457.225 1092.2 453.225 1096C452.725 1096.4 452.625 1097.3 453.025 1097.8C467.825 1119.7 487.525 1137.7 510.625 1150.5C512.525 1151.7 514.025 1149.1 512.325 1148.2Z" fill="#E8E8E8"/>
<path d="M555.625 1090.3C526.425 1060.6 502.325 1026.2 484.325 988.6C483.725 989.3 483.225 990.1 482.625 990.8C487.525 992.7 491.125 996 493.525 1000.6C494.425 1000.1 495.225 999.6 496.125 999.1C484.825 983.2 477.125 965.3 473.225 946.2C472.525 946.8 471.725 947.3 471.025 947.9C484.525 956.5 492.125 971.7 500.425 984.9C509.625 999.6 518.925 1014.4 528.125 1029.1C529.125 1030.7 531.725 1029.2 530.725 1027.6C520.825 1011.8 510.825 995.9 500.925 980.1C493.025 967.4 485.525 953.6 472.525 945.4C471.325 944.6 470.125 945.9 470.325 947.1C474.225 966.4 482.125 984.7 493.525 1000.8C494.625 1002.4 497.025 1001 496.125 999.3C493.325 994 489.025 990.3 483.425 988.1C482.125 987.6 481.225 989.2 481.725 990.3C499.825 1028.1 524.125 1062.7 553.525 1092.6C554.925 1093.8 557.025 1091.7 555.625 1090.3Z" fill="#E8E8E8"/>
<path d="M335.225 1096.5C323.825 1087.6 316.525 1075 314.325 1060.7C313.825 1061.3 313.325 1062 312.925 1062.6C316.525 1062.3 319.425 1063.4 321.625 1066.4C322.725 1068 325.325 1066.5 324.225 1064.9C313.125 1048.9 306.025 1030.7 303.425 1011.3C302.525 1011.7 301.725 1012 300.825 1012.4C302.725 1013.8 304.525 1015.3 306.425 1016.7C307.725 1017.7 309.725 1016.5 308.825 1014.9C292.425 986.3 282.825 954.4 280.925 921.5C280.025 921.8 279.025 922 278.125 922.3C303.525 955.5 321.825 993.4 339.825 1031C340.725 1030.5 341.525 1030 342.425 1029.5C339.725 1026 344.825 1022.3 348.125 1023C351.125 1023.7 353.325 1026.8 354.625 1029.3C357.325 1034.2 359.225 1039.7 361.425 1044.9C366.325 1056.5 371.225 1068.1 376.125 1079.7C376.825 1081.5 379.425 1079.9 378.725 1078.2C374.625 1068.4 370.425 1058.6 366.325 1048.9C363.025 1041.1 360.525 1031.5 355.225 1024.8C352.425 1021.2 347.925 1018.5 343.425 1020.7C339.525 1022.5 336.825 1027.2 339.725 1031C340.925 1032.5 343.125 1031.3 342.325 1029.5C324.325 991.9 306.025 954 280.425 920.8C279.625 919.7 277.525 919.9 277.625 921.6C279.625 955 289.225 987.5 305.925 1016.5C306.725 1015.9 307.525 1015.3 308.325 1014.7C306.425 1013.3 304.625 1011.8 302.725 1010.4C301.825 1009.7 299.925 1010 300.125 1011.5C302.725 1031.4 309.925 1050.1 321.325 1066.6C322.225 1066.1 323.025 1065.6 323.925 1065.1C321.225 1061.3 317.425 1059.3 312.625 1059.8C311.525 1059.9 311.025 1060.7 311.225 1061.7C313.525 1076.4 321.225 1089.6 332.925 1098.8C334.625 1099.8 336.725 1097.7 335.225 1096.5Z" fill="#E8E8E8"/>
<path d="M160.793 508.631C168.993 495.131 186.593 488.431 201.593 493.831C215.093 498.731 223.893 511.431 234.493 520.331C243.693 528.131 254.593 532.731 266.793 530.131C279.393 527.431 290.093 519.131 300.993 512.731C312.993 505.631 326.093 500.531 339.793 506.431C352.393 511.931 361.593 522.731 373.793 528.931C385.593 535.031 397.493 534.031 409.193 528.331C422.493 521.931 434.893 510.931 450.293 510.931C469.793 510.831 484.793 525.931 502.493 531.831C515.693 536.131 532.193 536.731 541.693 525.031C542.893 523.531 540.793 521.431 539.593 522.931C529.293 535.731 510.493 532.631 497.193 526.631C482.793 520.131 469.693 509.431 453.393 508.131C438.493 506.931 426.093 515.531 413.693 522.531C407.093 526.331 399.893 529.831 392.193 530.331C384.793 530.831 377.993 528.231 371.793 524.531C360.593 517.731 351.293 507.631 338.893 502.931C327.093 498.531 315.193 501.631 304.493 507.331C292.493 513.731 281.593 523.031 268.293 526.731C253.193 530.831 241.293 523.131 230.793 512.931C220.593 503.131 210.493 491.331 195.593 489.331C180.893 487.331 165.793 494.531 158.193 507.131C157.193 508.731 159.793 510.231 160.793 508.631Z" fill="#E8E8E8"/>
<path d="M975.625 429.7C982.925 416.6 1000.32 424.9 1008.92 431.6C1017.72 438.4 1026.03 445.6 1037.63 446.4C1057.93 447.9 1075.92 432.9 1093.32 424.9C1104.12 419.9 1115.62 416.8 1127.42 419.7C1139.42 422.6 1149.82 429.4 1161.42 433.4C1171.42 436.8 1181.62 437 1191.02 431.8C1203.72 424.8 1212.82 413.5 1228.82 416C1244.12 418.4 1256.52 428.9 1271.52 432.3C1282.32 434.7 1294.42 434 1302.02 425.1C1303.22 423.6 1301.12 421.5 1299.92 423C1291.32 433.1 1276.93 431.5 1265.63 427.5C1252.73 423 1241.42 414.4 1227.52 412.8C1214.02 411.3 1204.92 418.8 1194.52 426C1189.12 429.7 1183.33 432.7 1176.63 433C1170.23 433.3 1164.03 431.4 1158.13 429C1146.83 424.5 1136.12 417.8 1123.92 416C1114.02 414.5 1104.42 416.9 1095.32 420.8C1076.52 428.8 1056.22 447.1 1034.42 443.1C1020.22 440.5 1012.12 427.3 999.225 422.1C990.225 418.5 978.225 418.9 973.025 428.2C972.125 429.9 974.725 431.4 975.625 429.7Z" fill="#E8E8E8"/>
<path d="M1123.73 396C1133.03 376.5 1158.93 385.4 1173.63 391.5C1182.53 395.2 1191.83 398.8 1201.63 398.4C1209.73 398.1 1217.43 395.5 1224.73 392.4C1241.63 385.1 1258.93 373.2 1278.23 378.4C1295.23 383.1 1310.03 397.2 1328.73 393.2C1339.53 390.9 1348.52 383.8 1359.02 380.8C1372.92 376.9 1386.33 383.1 1398.63 389.1C1400.33 389.9 1401.93 387.4 1400.13 386.5C1390.23 381.7 1379.82 376.7 1368.52 376.5C1358.32 376.4 1349.53 381.3 1340.63 385.5C1330.03 390.6 1320.22 392.5 1308.92 388.4C1299.62 385.1 1291.23 379.5 1281.83 376.3C1263.43 370.1 1246.82 378.5 1230.42 386.4C1221.52 390.6 1212.23 394.8 1202.23 395.3C1190.93 395.9 1180.62 391.1 1170.42 386.9C1155.02 380.6 1130.12 375.4 1121.02 394.4C1120.32 396.2 1122.93 397.7 1123.73 396Z" fill="#E8E8E8"/>
<path d="M151.093 487.8C167.093 491.1 175.993 506.3 190.393 512.7C196.093 515.3 202.793 516.8 208.993 515.3C215.993 513.7 219.093 508.5 222.993 503C235.393 485.7 256.893 502.1 270.793 508C277.493 510.9 284.793 512.4 291.993 510.3C298.593 508.4 304.093 504.3 309.593 500.4C317.093 495 324.993 490 334.693 490.8C345.793 491.7 355.593 498.4 364.393 504.5C365.993 505.6 367.493 503 365.893 501.9C353.093 493.1 337.393 483.5 321.493 489.9C307.293 495.6 296.593 511.3 279.693 507.9C263.993 504.7 251.693 490.9 234.793 492.8C227.893 493.6 223.193 497.3 219.393 503C216.793 507 214.093 510.7 209.393 512.2C205.393 513.5 200.893 513.1 196.893 512C179.393 507.2 169.893 488.7 151.793 485C149.993 484.5 149.193 487.4 151.093 487.8Z" fill="#E8E8E8"/>
<path d="M395.193 278C431.644 278 461.193 248.451 461.193 212C461.193 175.549 431.644 146 395.193 146C358.742 146 329.193 175.549 329.193 212C329.193 248.451 358.742 278 395.193 278Z" stroke="#E8E8E8" stroke-width="2" stroke-miterlimit="10"/>
<path d="M420.254 614.877C421.254 611.577 418.554 609.477 415.454 609.077C411.054 608.477 406.954 611.477 403.954 614.277C394.454 622.977 391.554 636.577 381.954 645.077C374.954 651.177 367.655 651.677 359.855 646.877C354.155 643.377 348.755 640.577 342.055 639.577C331.855 638.077 316.954 640.277 310.954 649.977C306.854 656.577 311.655 666.177 303.355 670.277C294.155 674.877 285.854 666.577 281.754 659.177C280.854 657.477 278.254 658.977 279.154 660.677C283.954 669.177 292.955 677.377 303.355 673.477C307.255 671.977 310.454 668.977 311.454 664.877C312.154 661.777 311.654 658.677 312.154 655.577C312.854 651.177 315.755 648.277 319.555 646.077C326.055 642.377 334.054 641.377 341.454 642.477C349.354 643.577 354.754 647.877 361.654 651.377C372.054 656.577 382.154 650.477 388.754 642.177C392.854 637.077 395.554 631.077 398.954 625.577C400.854 622.477 402.955 619.477 405.555 616.977C406.955 615.677 408.454 614.377 410.154 613.477C410.854 613.077 418.555 610.477 417.355 614.077C416.755 615.977 419.654 616.777 420.254 614.877Z" fill="#EC615B"/>
<path d="M429.129 527.679C427.229 523.079 422.229 520.979 417.429 522.479C411.029 524.479 408.129 531.679 406.329 537.479C403.429 546.679 402.529 556.679 398.229 565.479C394.529 573.179 386.629 580.979 377.429 580.479C372.429 580.179 368.629 576.779 364.429 574.479C361.629 572.879 358.529 571.879 355.329 571.479C348.929 570.579 342.129 572.079 336.729 575.579C331.229 579.079 327.829 584.279 325.529 590.279C322.629 597.679 321.429 606.379 315.729 612.279C308.729 619.579 297.629 619.179 288.929 615.579C280.229 611.979 268.629 601.579 274.629 591.279C275.629 589.579 273.029 588.079 272.029 589.779C264.729 602.379 278.329 614.979 289.329 618.979C303.029 623.979 317.129 619.979 323.229 606.079C326.429 598.879 327.529 590.579 332.129 583.979C337.229 576.779 346.629 573.179 355.229 574.379C363.529 575.579 369.129 582.979 377.529 583.479C384.429 583.879 390.829 579.979 395.329 575.179C401.829 568.279 404.129 559.079 406.229 550.079C407.429 544.979 408.529 539.879 410.429 534.979C411.629 531.779 413.429 528.379 416.329 526.379C419.429 524.279 424.629 524.379 426.329 528.479C426.929 530.179 429.829 529.479 429.129 527.679Z" fill="#5222D0"/>
<path d="M984.825 643.8C980.525 633.1 1000.02 634 1005.32 631.4C1010.42 628.9 1013.12 623.9 1013.92 618.4C1015.02 610.5 1012.02 602.8 1012.62 594.9C1013.12 587.6 1016.12 579.4 1022.52 575.3C1029.92 570.4 1037.72 574.9 1045.72 574.6C1051.72 574.4 1056.42 571 1059.12 565.8C1066.42 551.9 1054.02 529.4 1068.82 519.3C1070.42 518.2 1068.92 515.6 1067.32 516.7C1056.82 523.8 1058.32 536.9 1058.92 548C1059.32 555.2 1058.92 563.6 1053.12 568.8C1046.62 574.5 1038.02 569.8 1030.52 569.9C1020.82 570 1014.12 577.7 1011.32 586.4C1009.72 591.4 1009.22 596.6 1009.82 601.8C1010.62 609.2 1012.92 617.6 1008.82 624.5C1004.22 632.2 994.625 629.1 987.825 632.7C983.425 635 979.925 639.7 981.925 644.7C982.625 646.4 985.525 645.6 984.825 643.8Z" fill="#5222D0"/>
<path d="M980.325 645.4C982.425 642 986.325 640 990.425 640.7C994.425 641.4 996.225 644.6 999.225 647C1003.92 650.8 1009.02 648.8 1013.42 645.6C1018.12 642.2 1021.82 637.4 1024.02 632C1026.42 626.1 1026.32 620.3 1026.62 614.1C1026.72 610.4 1027.12 606.3 1029.62 603.4C1032.52 600.1 1036.82 599.4 1040.82 598.5C1045.52 597.5 1051.02 595.8 1053.42 591.2C1055.72 586.8 1053.52 582 1050.12 578.9C1044.72 574.1 1037.22 573.1 1033.22 566.5C1023.22 549.6 1038.42 532.7 1051.92 524.1C1053.52 523.1 1052.02 520.5 1050.42 521.5C1039.72 528.3 1029.12 538 1027.52 551.3C1026.92 556.6 1027.62 562.1 1030.02 566.9C1032.82 572.5 1037.52 575.2 1042.92 578C1047.32 580.2 1053.72 584.5 1050.32 590.2C1048.22 593.8 1043.82 594.9 1039.92 595.7C1034.42 596.9 1028.82 598.2 1025.82 603.4C1022.92 608.6 1023.62 615 1023.32 620.7C1022.92 628.8 1019.42 636.6 1013.22 641.9C1011.42 643.4 1008.82 645.6 1006.42 646C1002.22 646.9 1000.52 644.3 998.125 641.9C996.025 639.8 993.825 638.3 990.925 637.8C985.625 636.9 980.425 639.4 977.625 644C976.725 645.6 979.325 647.1 980.325 645.4Z" fill="#EC615B"/>
<path d="M203.893 378.3C211.183 378.3 217.093 372.39 217.093 365.1C217.093 357.81 211.183 351.9 203.893 351.9C196.603 351.9 190.693 357.81 190.693 365.1C190.693 372.39 196.603 378.3 203.893 378.3Z" stroke="#EC615B" stroke-width="3" stroke-miterlimit="10"/>
<path d="M296.893 727.7C303.686 727.7 309.193 722.193 309.193 715.4C309.193 708.607 303.686 703.1 296.893 703.1C290.1 703.1 284.593 708.607 284.593 715.4C284.593 722.193 290.1 727.7 296.893 727.7Z" stroke="#EC615B" stroke-width="3" stroke-miterlimit="10"/>
<path d="M1088.92 204.3C1095.72 204.3 1101.22 198.793 1101.22 192C1101.22 185.207 1095.72 179.7 1088.92 179.7C1082.13 179.7 1076.62 185.207 1076.62 192C1076.62 198.793 1082.13 204.3 1088.92 204.3Z" stroke="#EC615B" stroke-width="3" stroke-miterlimit="10"/>
<path d="M1192.82 838.3C1203.26 838.3 1211.72 829.838 1211.72 819.4C1211.72 808.962 1203.26 800.5 1192.82 800.5C1182.39 800.5 1173.92 808.962 1173.92 819.4C1173.92 829.838 1182.39 838.3 1192.82 838.3Z" stroke="#EC615B" stroke-width="3" stroke-miterlimit="10"/>
<path d="M403.325 792.2C409.511 792.2 414.525 787.186 414.525 781C414.525 774.814 409.511 769.8 403.325 769.8C397.139 769.8 392.125 774.814 392.125 781C392.125 787.186 397.139 792.2 403.325 792.2Z" stroke="#5222D0" stroke-width="3" stroke-miterlimit="10"/>
<path d="M989.125 740.4C992.66 740.4 995.525 737.535 995.525 734C995.525 730.465 992.66 727.6 989.125 727.6C985.59 727.6 982.725 730.465 982.725 734C982.725 737.535 985.59 740.4 989.125 740.4Z" stroke="#5222D0" stroke-width="3" stroke-miterlimit="10"/>
<path d="M986.825 296.8C993.729 296.8 999.325 291.204 999.325 284.3C999.325 277.396 993.729 271.8 986.825 271.8C979.921 271.8 974.325 277.396 974.325 284.3C974.325 291.204 979.921 296.8 986.825 296.8Z" stroke="#5222D0" stroke-width="3" stroke-miterlimit="10"/>
<path d="M1265.02 339.8C1272.76 339.8 1279.02 333.532 1279.02 325.8C1279.02 318.068 1272.76 311.8 1265.02 311.8C1257.29 311.8 1251.02 318.068 1251.02 325.8C1251.02 333.532 1257.29 339.8 1265.02 339.8Z" stroke="#5222D0" stroke-width="3" stroke-miterlimit="10"/>
<path d="M1123.73 396C1133.03 376.5 1158.93 385.4 1173.63 391.5C1182.53 395.2 1191.83 398.8 1201.63 398.4C1209.73 398.1 1217.43 395.5 1224.73 392.4C1241.63 385.1 1258.93 373.2 1278.23 378.4C1295.23 383.1 1310.03 397.2 1328.73 393.2C1339.53 390.9 1348.52 383.8 1359.02 380.8C1372.92 376.9 1386.33 383.1 1398.63 389.1C1400.33 389.9 1401.93 387.4 1400.13 386.5C1390.23 381.7 1379.82 376.7 1368.52 376.5C1358.32 376.4 1349.53 381.3 1340.63 385.5C1330.03 390.6 1320.22 392.5 1308.92 388.4C1299.62 385.1 1291.23 379.5 1281.83 376.3C1263.43 370.1 1246.82 378.5 1230.42 386.4C1221.52 390.6 1212.23 394.8 1202.23 395.3C1190.93 395.9 1180.62 391.1 1170.42 386.9C1155.02 380.6 1130.12 375.4 1121.02 394.4C1120.32 396.2 1122.93 397.7 1123.73 396Z" fill="#E8E8E8"/>
<path d="M1088.92 204.3C1095.72 204.3 1101.22 198.793 1101.22 192C1101.22 185.207 1095.72 179.7 1088.92 179.7C1082.13 179.7 1076.62 185.207 1076.62 192C1076.62 198.793 1082.13 204.3 1088.92 204.3Z" stroke="#EC615B" stroke-width="3" stroke-miterlimit="10"/>
<path d="M986.825 296.8C993.729 296.8 999.325 291.204 999.325 284.3C999.325 277.396 993.729 271.8 986.825 271.8C979.921 271.8 974.325 277.396 974.325 284.3C974.325 291.204 979.921 296.8 986.825 296.8Z" stroke="#5222D0" stroke-width="3" stroke-miterlimit="10"/>
<path d="M1265.02 339.8C1272.76 339.8 1279.02 333.532 1279.02 325.8C1279.02 318.068 1272.76 311.8 1265.02 311.8C1257.29 311.8 1251.02 318.068 1251.02 325.8C1251.02 333.532 1257.29 339.8 1265.02 339.8Z" stroke="#5222D0" stroke-width="3" stroke-miterlimit="10"/>
<path d="M461.493 414C466.187 414 469.993 410.194 469.993 405.5C469.993 400.806 466.187 397 461.493 397C456.798 397 452.993 400.806 452.993 405.5C452.993 410.194 456.798 414 461.493 414Z" stroke="#5222D0" stroke-width="3" stroke-miterlimit="10"/>
</g>
<defs>
<clipPath id="clip0_0:1">
<rect width="1600" height="1200" fill="white"/>
</clipPath>
</defs>
</svg>
