<svg width="1250" height="892" viewBox="0 0 1250 892" fill="none" xmlns="http://www.w3.org/2000/svg">
<path d="M1124.6 650.416C1130.2 651.116 1135.8 648.916 1139.5 644.616C1140.7 643.116 1138.6 641.016 1137.4 642.516C1134.2 646.316 1129.6 648.116 1124.6 647.516C1122.7 647.216 1122.7 650.216 1124.6 650.416Z" fill="#161616"/>
<path d="M282.787 430.556C284.087 428.056 287.687 421.256 291.687 427.556C292.387 428.556 292.387 431.356 292.587 432.356C292.987 434.456 293.687 436.656 295.187 438.256C300.187 443.456 303.687 434.956 308.887 437.756C315.487 441.256 306.887 448.656 312.287 452.756C313.587 453.756 315.087 453.756 316.587 453.156C317.587 452.756 318.387 451.856 319.387 451.356C323.087 449.756 324.387 453.056 324.687 455.956C324.787 456.856 325.287 457.356 326.187 457.456C327.287 457.556 328.287 457.656 329.387 457.756C331.287 457.956 331.287 454.956 329.387 454.756C328.287 454.656 327.287 454.556 326.187 454.456C326.687 454.956 327.187 455.456 327.687 455.956C327.387 453.256 326.887 449.756 324.387 448.156C321.687 446.356 319.887 447.956 317.387 449.156C316.187 449.756 315.187 451.756 313.487 449.356C312.887 448.456 314.187 445.656 314.387 444.656C314.787 443.056 314.987 441.656 314.487 440.056C313.687 437.556 311.487 435.456 308.987 434.656C305.887 433.556 304.387 434.856 301.587 435.656C299.087 436.356 296.587 436.156 295.687 433.456C295.387 432.456 295.287 431.256 295.187 430.256C294.887 428.656 294.687 426.956 293.887 425.456C289.787 417.956 282.687 424.256 280.187 429.356C279.287 430.756 281.887 432.256 282.787 430.556Z" fill="#161616"/>
<path d="M297.648 416.498C300.048 414.198 302.248 413.198 304.848 415.398C306.948 417.198 306.548 417.798 307.148 420.198C307.548 421.598 307.948 422.898 309.148 423.898C310.648 425.198 312.348 425.198 314.248 424.998C316.048 424.798 318.148 423.598 319.648 425.498C320.348 426.398 320.248 428.398 320.248 429.498C320.348 432.498 320.348 436.098 323.748 437.198C324.748 437.498 325.848 436.998 326.748 437.298C327.948 436.798 328.448 437.098 328.548 438.398C328.948 439.198 329.148 439.998 329.048 440.998C329.548 443.298 330.448 444.998 332.248 446.598C333.648 447.898 335.748 445.798 334.348 444.498C331.348 441.698 333.448 437.798 330.948 435.298C328.348 432.698 324.248 436.498 323.348 431.698C322.648 427.998 324.048 422.998 319.148 421.698C315.648 420.798 311.948 424.298 310.048 419.498C309.248 417.498 309.548 415.298 308.148 413.398C304.848 409.098 298.748 411.298 295.448 414.398C294.048 415.698 296.248 417.898 297.648 416.498Z" fill="#161616"/>
<path d="M200.4 603.548C206.7 613.948 210.5 625.448 211.4 637.548C211.6 639.448 214.6 639.448 214.4 637.548C213.4 624.848 209.6 612.948 203 602.048C201.9 600.348 199.3 601.848 200.4 603.548Z" fill="#E8E8E8"/>
<path d="M212.6 600.248C217.8 609.648 220.7 619.848 221.4 630.548C221.5 632.448 224.5 632.448 224.4 630.548C223.7 619.348 220.6 608.648 215.2 598.748C214.3 597.048 211.7 598.548 212.6 600.248Z" fill="#E8E8E8"/>
<path d="M199.6 622.748C208.3 617.048 218.1 614.048 228.6 613.848C230.5 613.848 230.5 610.848 228.6 610.848C217.7 611.048 207.3 614.248 198.1 620.248C196.5 621.248 198 623.848 199.6 622.748Z" fill="#E8E8E8"/>
<path d="M199.3 634.948C210.2 628.348 222.1 624.148 234.7 622.248C236.6 621.948 235.8 619.048 233.9 619.348C221 621.248 208.9 625.648 197.8 632.348C196.2 633.348 197.7 635.948 199.3 634.948Z" fill="#E8E8E8"/>
<path d="M1081.2 587.62C1073.9 582.42 1075.1 571.52 1083 567.52C1089 564.52 1097.2 567.32 1100.3 573.22C1103.4 579.12 1100.7 587.42 1094.8 590.52C1088.6 593.72 1080.9 590.92 1077.4 585.22C1076.4 583.62 1073.8 585.12 1074.8 586.72C1079.3 594.22 1089.7 597.52 1097.4 592.52C1104.7 587.72 1107 576.62 1101.6 569.62C1096.3 562.82 1085.7 561.22 1079 566.72C1071.2 573.02 1071.8 584.52 1079.8 590.32C1081.3 591.32 1082.8 588.72 1081.2 587.62Z" fill="#E8E8E8"/>
<path d="M1109.7 767.416C1110.8 763.816 1112.4 762.816 1114.3 764.516C1114.8 764.716 1115.3 765.016 1115.7 765.216C1116.4 765.416 1117.3 765.616 1118 765.516C1119.5 765.316 1120.7 764.416 1121.4 763.216C1123.9 759.216 1121.1 755.316 1118.6 752.216C1117.3 750.716 1114.9 748.716 1115.2 746.416C1115.6 742.016 1118.2 743.816 1120.4 743.516C1122 743.316 1123.4 742.716 1124.2 741.216C1125 739.916 1124.8 738.216 1124.6 736.816C1124.5 736.016 1124.2 735.116 1124.2 734.316C1123.5 732.216 1124.5 730.916 1127.2 730.416C1128.5 731.316 1129.6 732.416 1130.5 733.816C1131.6 735.416 1134.2 733.916 1133.1 732.316C1130.4 728.516 1122.4 723.316 1121.1 731.216C1120.5 735.216 1124.2 739.416 1118.3 740.416C1115.4 740.916 1113.4 740.916 1112.5 744.316C1111.7 747.116 1112.8 749.816 1114.5 752.016C1115.3 753.016 1116.2 753.916 1117 754.816C1118 755.816 1118.7 756.916 1119.2 758.216C1118 759.416 1116.9 760.616 1115.7 761.816C1114.8 762.016 1112.5 760.116 1111.2 760.016C1105.4 759.616 1102.3 767.416 1108.1 769.916C1110 770.716 1111.5 768.116 1109.7 767.416Z" fill="#E8E8E8"/>
<path d="M1134.1 763.116C1132.5 760.516 1130 756.516 1131.1 753.216C1131.9 750.716 1135.3 749.616 1136.8 747.616C1139.1 744.516 1138.8 740.416 1136.7 737.316C1136.3 738.116 1135.8 738.816 1135.4 739.616C1141.1 740.016 1145.9 736.616 1147.6 731.116C1148.2 729.216 1145.3 728.516 1144.7 730.316C1143.4 734.516 1139.8 736.916 1135.4 736.616C1134.3 736.516 1133.5 737.916 1134.1 738.916C1135.4 740.816 1135.9 743.516 1134.6 745.616C1133.4 747.416 1131.8 747.516 1130.5 748.816C1129.3 750.016 1128.5 751.216 1128.2 753.016C1127.4 757.116 1129.6 761.216 1131.6 764.616C1132.5 766.316 1135.1 764.816 1134.1 763.116Z" fill="#E8E8E8"/>
<path d="M855.051 57.0082C854.851 55.9082 854.551 54.8082 854.351 53.7082C855.251 52.8082 856.151 52.0082 857.251 51.4082C857.851 51.0082 858.552 50.6082 859.152 50.1082C860.352 49.1082 861.151 48.1082 861.751 46.7082C862.451 44.9082 862.251 43.2082 862.051 41.3082C861.951 40.7082 861.851 40.0082 861.751 39.4082C861.651 38.7082 862.051 30.6082 865.251 33.2082C866.751 34.4082 868.851 32.3082 867.351 31.1082C865.151 29.3082 862.851 29.6082 860.851 31.5082C857.451 34.8082 859.051 38.7082 859.251 42.7082C859.551 48.7082 851.751 49.0082 851.051 54.5082C850.751 57.0082 851.751 59.3082 854.351 59.8082C856.151 60.2082 856.951 57.3082 855.051 57.0082Z" fill="#EC615B"/>
<path d="M866.051 48.7082C868.451 50.6082 871.851 49.2081 872.351 46.1081C872.851 43.4081 871.051 40.9082 871.251 38.2082C871.551 34.5082 874.052 31.3082 877.452 30.0082C879.252 29.3082 878.452 26.4082 876.652 27.1082C873.352 28.3082 870.751 30.5082 869.351 33.8082C868.651 35.3082 868.251 37.0082 868.251 38.7082C868.251 39.5082 868.352 40.3081 868.452 41.0081C868.452 41.0081 869.951 47.9081 868.251 46.5081C866.651 45.4081 864.551 47.5082 866.051 48.7082Z" fill="#EC615B"/>
<path d="M1237.5 692.416C1235.7 691.416 1235.5 689.116 1236.8 687.616C1238.1 686.116 1240.5 685.516 1242.4 685.816C1244 686.116 1245.8 686.916 1246.5 688.516C1247.3 690.316 1246.1 693.416 1243.7 693.116C1241.8 692.816 1241 695.716 1242.9 696.016C1246.3 696.516 1249.3 694.216 1249.8 690.716C1250.4 687.016 1247.4 684.016 1244 683.116C1240.5 682.116 1236.1 683.216 1234 686.416C1232.1 689.316 1232.9 693.416 1236.1 695.016C1237.7 695.916 1239.2 693.316 1237.5 692.416Z" fill="#EC615B"/>
<path d="M1011.2 626.12C1013.3 624.52 1015.6 624.42 1018.1 625.72C1019.2 626.32 1020.7 625.32 1020.3 624.02C1019.4 622.22 1019.6 620.62 1021.1 619.22C1021.8 616.12 1023.4 615.92 1025.8 618.52C1026.5 619.92 1028.5 619.12 1028.6 617.72C1028.6 616.42 1028.7 615.02 1028.9 613.72C1029.2 610.52 1031.3 609.72 1035 611.22C1035.8 613.02 1038.3 611.42 1037.6 609.72C1036.4 606.92 1033.2 606.02 1030.4 607.12C1026.2 608.82 1025.7 613.82 1025.6 617.72C1026.5 617.42 1027.5 617.22 1028.4 616.92C1027 613.92 1023.4 612.82 1020.4 614.32C1016.6 616.32 1016.4 621.02 1017.4 624.72C1018.1 624.12 1018.9 623.62 1019.6 623.02C1016.2 621.32 1013 621.42 1009.7 623.42C1008.1 624.52 1009.6 627.12 1011.2 626.12Z" fill="#EC615B"/>
<path d="M1022.75 49.1081C1017.35 50.7081 1013.55 55.3081 1012.85 61.0081C1012.15 66.4081 1015.35 73.1082 1021.35 73.7082C1025.75 74.1082 1030.15 69.1081 1027.45 65.0081C1024.55 60.5081 1018.95 63.8081 1016.65 67.0081C1010.15 76.3081 1015.95 94.5082 1029.35 90.2082C1033.05 89.0082 1037.65 84.5082 1035.55 80.2082C1032.95 74.9082 1027.15 80.6081 1025.65 83.6081C1022.55 89.8081 1021.75 98.7081 1028.15 103.108C1033.15 106.508 1040.05 104.308 1041.65 98.4081C1042.05 97.1081 1040.15 95.7081 1039.15 96.9081C1032.25 105.608 1037.55 117.608 1048.75 118.008C1050.65 118.108 1050.65 115.108 1048.75 115.008C1040.35 114.708 1035.95 105.708 1041.25 99.1081C1040.45 98.6081 1039.55 98.1081 1038.75 97.6081C1037.25 103.308 1030.25 102.408 1027.55 98.2082C1025.15 94.3082 1025.95 89.0081 1028.15 85.1081C1028.65 84.1081 1031.35 79.4081 1032.95 82.4081C1033.75 84.0081 1030.75 86.3081 1029.75 86.9081C1026.65 88.6081 1022.55 88.1081 1020.15 85.5081C1017.65 82.9081 1016.85 78.9081 1017.15 75.4081C1017.35 73.5081 1017.75 71.3082 1018.65 69.7082C1019.05 69.1082 1019.55 68.5081 1019.95 67.9081C1022.45 65.5081 1022.35 66.2081 1019.55 70.1081C1017.55 70.3081 1015.85 64.8081 1015.75 63.5081C1015.65 62.2081 1015.85 60.9082 1016.15 59.7082C1017.15 56.0082 1019.85 53.2081 1023.55 52.1081C1025.45 51.5081 1024.65 48.6081 1022.75 49.1081Z" fill="#EC615B"/>
<path d="M1169.8 466C1175.76 466 1180.6 460.628 1180.6 454C1180.6 447.373 1175.76 442 1169.8 442C1163.84 442 1159 447.373 1159 454C1159 460.628 1163.84 466 1169.8 466Z" fill="#8C3566"/>
<path d="M159.6 447.4C171.529 447.4 181.2 437.505 181.2 425.3C181.2 413.094 171.529 403.2 159.6 403.2C147.671 403.2 138 413.094 138 425.3C138 437.505 147.671 447.4 159.6 447.4Z" fill="#8C3566"/>
<path d="M348.2 598.4C355.49 598.4 361.4 592.49 361.4 585.2C361.4 577.91 355.49 572 348.2 572C340.91 572 335 577.91 335 585.2C335 592.49 340.91 598.4 348.2 598.4Z" stroke="#EC615B" stroke-width="3" stroke-miterlimit="10"/>
<path d="M352.5 579C357.194 579 361 575.194 361 570.5C361 565.806 357.194 562 352.5 562C347.806 562 344 565.806 344 570.5C344 575.194 347.806 579 352.5 579Z" stroke="#5222D0" stroke-width="3" stroke-miterlimit="10"/>
<path d="M804.787 53.1813C812.087 40.0813 829.487 48.3813 838.087 55.0813C846.887 61.8813 855.187 69.0813 866.787 69.8813C887.087 71.3813 905.087 56.3813 922.487 48.3813C933.287 43.3813 944.787 40.2813 956.587 43.1813C968.587 46.0813 978.99 52.8813 990.59 56.8813C1000.59 60.2813 1010.79 60.4813 1020.19 55.2813C1032.89 48.2813 1041.99 36.9813 1057.99 39.4813C1073.29 41.8813 1085.69 52.3813 1100.69 55.7813C1111.49 58.1813 1123.59 57.4813 1131.19 48.5813C1132.39 47.0813 1130.29 44.9813 1129.09 46.4813C1120.49 56.5813 1106.09 54.9813 1094.79 50.9813C1081.89 46.4813 1070.59 37.8813 1056.69 36.2813C1043.19 34.7812 1034.09 42.2813 1023.69 49.4813C1018.29 53.1813 1012.49 56.1813 1005.79 56.4813C999.39 56.7813 993.19 54.8813 987.29 52.4813C975.987 47.9813 965.287 41.2813 953.087 39.4813C943.187 37.9813 933.587 40.3813 924.487 44.2813C905.687 52.2813 885.387 70.5813 863.587 66.5813C849.387 63.9813 841.287 50.7813 828.387 45.5813C819.387 41.9813 807.387 42.3813 802.187 51.6813C801.287 53.3813 803.887 54.8813 804.787 53.1813Z" fill="#E8E8E8"/>
<path d="M1180.99 460.693C1191.42 460.693 1199.89 452.231 1199.89 441.793C1199.89 431.355 1191.42 422.893 1180.99 422.893C1170.55 422.893 1162.09 431.355 1162.09 441.793C1162.09 452.231 1170.55 460.693 1180.99 460.693Z" stroke="#EC615B" stroke-width="3" stroke-miterlimit="10"/>
</svg>
