<svg width="1288" height="741" viewBox="0 0 1288 741" fill="none" xmlns="http://www.w3.org/2000/svg">
<path d="M1124.6 540.312C1130.2 540.893 1135.8 539.066 1139.5 535.494C1140.7 534.248 1138.6 532.503 1137.4 533.749C1134.2 536.906 1129.6 538.401 1124.6 537.903C1122.7 537.654 1122.7 540.146 1124.6 540.312Z" fill="#161616"/>
<path d="M282.787 357.67C284.087 355.594 287.687 349.945 291.687 355.178C292.387 356.009 292.387 358.335 292.587 359.166C292.987 360.91 293.687 362.738 295.187 364.067C300.187 368.387 303.687 361.326 308.887 363.652C315.487 366.559 306.887 372.706 312.287 376.112C313.587 376.943 315.087 376.943 316.587 376.445C317.587 376.112 318.387 375.365 319.387 374.949C323.087 373.62 324.387 376.362 324.687 378.771C324.787 379.518 325.287 379.934 326.187 380.017C327.287 380.1 328.287 380.183 329.387 380.266C331.287 380.432 331.287 377.94 329.387 377.774C328.287 377.691 327.287 377.608 326.187 377.525C326.687 377.94 327.187 378.355 327.687 378.771C327.387 376.528 326.887 373.62 324.387 372.291C321.687 370.796 319.887 372.125 317.387 373.122C316.187 373.62 315.187 375.282 313.487 373.288C312.887 372.54 314.187 370.214 314.387 369.384C314.787 368.054 314.987 366.891 314.487 365.562C313.687 363.485 311.487 361.741 308.987 361.076C305.887 360.163 304.387 361.242 301.587 361.907C299.087 362.489 296.587 362.322 295.687 360.079C295.387 359.249 295.287 358.252 295.187 357.421C294.887 356.092 294.687 354.68 293.887 353.434C289.787 347.203 282.687 352.437 280.187 356.674C279.287 357.837 281.887 359.083 282.787 357.67Z" fill="#161616"/>
<path d="M297.648 345.992C300.048 344.082 302.248 343.251 304.848 345.078C306.948 346.574 306.548 347.072 307.148 349.066C307.548 350.229 307.948 351.309 309.148 352.139C310.648 353.219 312.348 353.219 314.248 353.053C316.048 352.887 318.148 351.89 319.648 353.469C320.348 354.216 320.248 355.878 320.248 356.791C320.348 359.284 320.348 362.274 323.748 363.188C324.748 363.437 325.848 363.022 326.748 363.271C327.948 362.856 328.448 363.105 328.548 364.185C328.948 364.849 329.148 365.514 329.048 366.345C329.548 368.255 330.448 369.668 332.248 370.997C333.648 372.077 335.748 370.332 334.348 369.252C331.348 366.926 333.448 363.686 330.948 361.61C328.348 359.45 324.248 362.607 323.348 358.619C322.648 355.545 324.048 351.392 319.148 350.312C315.648 349.564 311.948 352.472 310.048 348.484C309.248 346.823 309.548 344.995 308.148 343.417C304.848 339.845 298.748 341.672 295.448 344.248C294.048 345.328 296.248 347.155 297.648 345.992Z" fill="#161616"/>
<path d="M200.4 501.378C206.7 510.017 210.5 519.571 211.4 529.622C211.6 531.201 214.6 531.201 214.4 529.622C213.4 519.072 209.6 509.187 203 500.132C201.9 498.72 199.3 499.966 200.4 501.378Z" fill="#E8E8E8"/>
<path d="M212.6 498.636C217.8 506.445 220.7 514.919 221.4 523.807C221.5 525.386 224.5 525.386 224.4 523.807C223.7 514.503 220.6 505.615 215.2 497.39C214.3 495.978 211.7 497.224 212.6 498.636Z" fill="#E8E8E8"/>
<path d="M199.6 517.328C208.3 512.593 218.1 510.1 228.6 509.934C230.5 509.934 230.5 507.442 228.6 507.442C217.7 507.608 207.3 510.267 198.1 515.251C196.5 516.082 198 518.241 199.6 517.328Z" fill="#E8E8E8"/>
<path d="M199.3 527.462C210.2 521.98 222.1 518.491 234.7 516.912C236.6 516.663 235.8 514.254 233.9 514.503C221 516.082 208.9 519.737 197.8 525.303C196.2 526.133 197.7 528.293 199.3 527.462Z" fill="#E8E8E8"/>
<path d="M1081.2 488.146C1073.9 483.826 1075.1 474.772 1083 471.449C1089 468.957 1097.2 471.283 1100.3 476.184C1103.4 481.085 1100.7 487.98 1094.8 490.555C1088.6 493.214 1080.9 490.888 1077.4 486.152C1076.4 484.823 1073.8 486.069 1074.8 487.399C1079.3 493.629 1089.7 496.37 1097.4 492.217C1104.7 488.229 1107 479.008 1101.6 473.193C1096.3 467.544 1085.7 466.215 1079 470.784C1071.2 476.018 1071.8 485.571 1079.8 490.389C1081.3 491.22 1082.8 489.06 1081.2 488.146Z" fill="#E8E8E8"/>
<path d="M1109.7 637.506C1110.8 634.515 1112.4 633.685 1114.3 635.097C1114.8 635.263 1115.3 635.512 1115.7 635.678C1116.4 635.844 1117.3 636.011 1118 635.928C1119.5 635.761 1120.7 635.014 1121.4 634.017C1123.9 630.694 1121.1 627.454 1118.6 624.879C1117.3 623.633 1114.9 621.971 1115.2 620.061C1115.6 616.406 1118.2 617.901 1120.4 617.652C1122 617.486 1123.4 616.987 1124.2 615.741C1125 614.661 1124.8 613.249 1124.6 612.086C1124.5 611.421 1124.2 610.674 1124.2 610.009C1123.5 608.265 1124.5 607.185 1127.2 606.769C1128.5 607.517 1129.6 608.431 1130.5 609.594C1131.6 610.923 1134.2 609.677 1133.1 608.348C1130.4 605.191 1122.4 600.871 1121.1 607.434C1120.5 610.757 1124.2 614.246 1118.3 615.077C1115.4 615.492 1113.4 615.492 1112.5 618.316C1111.7 620.642 1112.8 622.885 1114.5 624.713C1115.3 625.544 1116.2 626.291 1117 627.039C1118 627.87 1118.7 628.783 1119.2 629.863C1118 630.86 1116.9 631.857 1115.7 632.854C1114.8 633.02 1112.5 631.442 1111.2 631.359C1105.4 631.026 1102.3 637.506 1108.1 639.583C1110 640.247 1111.5 638.087 1109.7 637.506Z" fill="#E8E8E8"/>
<path d="M1134.1 633.934C1132.5 631.774 1130 628.451 1131.1 625.71C1131.9 623.633 1135.3 622.719 1136.8 621.058C1139.1 618.482 1138.8 615.077 1136.7 612.501C1136.3 613.166 1135.8 613.747 1135.4 614.412C1141.1 614.744 1145.9 611.92 1147.6 607.351C1148.2 605.773 1145.3 605.191 1144.7 606.686C1143.4 610.175 1139.8 612.169 1135.4 611.92C1134.3 611.837 1133.5 613 1134.1 613.83C1135.4 615.409 1135.9 617.652 1134.6 619.396C1133.4 620.892 1131.8 620.975 1130.5 622.055C1129.3 623.051 1128.5 624.048 1128.2 625.544C1127.4 628.95 1129.6 632.355 1131.6 635.18C1132.5 636.592 1135.1 635.346 1134.1 633.934Z" fill="#E8E8E8"/>
<path d="M855.051 47.3577C854.851 46.4439 854.551 45.5301 854.351 44.6163C855.251 43.8686 856.151 43.2041 857.251 42.7056C857.851 42.3734 858.552 42.0411 859.152 41.6257C860.352 40.795 861.151 39.9643 861.751 38.8013C862.451 37.306 862.251 35.8938 862.051 34.3154C861.951 33.817 861.851 33.2355 861.751 32.737C861.651 32.1555 862.051 25.4267 865.251 27.5866C866.751 28.5834 868.851 26.8389 867.351 25.8421C865.151 24.3468 862.851 24.596 860.851 26.1744C857.451 28.9157 859.051 32.1555 859.251 35.4784C859.551 40.4627 851.751 40.7119 851.051 45.2809C850.751 47.3577 851.751 49.2683 854.351 49.6837C856.151 50.016 856.951 47.6069 855.051 47.3577Z" fill="#EC615B"/>
<path d="M866.051 40.4628C868.451 42.0412 871.851 40.8781 872.351 38.3028C872.851 36.0599 871.051 33.9832 871.251 31.7403C871.551 28.6666 874.052 26.0083 877.452 24.9284C879.252 24.3469 878.452 21.9378 876.652 22.5193C873.352 23.5162 870.751 25.3437 869.351 28.0851C868.651 29.3312 868.251 30.7434 868.251 32.1556C868.251 32.8202 868.352 33.4847 868.452 34.0662C868.452 34.0662 869.951 39.7981 868.251 38.6351C866.651 37.7213 864.551 39.4659 866.051 40.4628Z" fill="#EC615B"/>
<path d="M1237.5 575.202C1235.7 574.371 1235.5 572.461 1236.8 571.215C1238.1 569.969 1240.5 569.47 1242.4 569.719C1244 569.969 1245.8 570.633 1246.5 571.962C1247.3 573.458 1246.1 576.033 1243.7 575.784C1241.8 575.534 1241 577.943 1242.9 578.193C1246.3 578.608 1249.3 576.697 1249.8 573.79C1250.4 570.716 1247.4 568.224 1244 567.476C1240.5 566.646 1236.1 567.559 1234 570.218C1232.1 572.627 1232.9 576.033 1236.1 577.362C1237.7 578.11 1239.2 575.95 1237.5 575.202Z" fill="#EC615B"/>
<path d="M1011.2 520.129C1013.3 518.8 1015.6 518.717 1018.1 519.796C1019.2 520.295 1020.7 519.464 1020.3 518.384C1019.4 516.889 1019.6 515.56 1021.1 514.397C1021.8 511.822 1023.4 511.656 1025.8 513.815C1026.5 514.978 1028.5 514.314 1028.6 513.151C1028.6 512.071 1028.7 510.908 1028.9 509.828C1029.2 507.17 1031.3 506.505 1035 507.751C1035.8 509.246 1038.3 507.917 1037.6 506.505C1036.4 504.179 1033.2 503.431 1030.4 504.345C1026.2 505.757 1025.7 509.911 1025.6 513.151C1026.5 512.902 1027.5 512.735 1028.4 512.486C1027 509.994 1023.4 509.08 1020.4 510.326C1016.6 511.988 1016.4 515.892 1017.4 518.966C1018.1 518.467 1018.9 518.052 1019.6 517.554C1016.2 516.141 1013 516.224 1009.7 517.886C1008.1 518.8 1009.6 520.96 1011.2 520.129Z" fill="#EC615B"/>
<path d="M1169.8 387.114C1175.76 387.114 1180.6 382.652 1180.6 377.146C1180.6 371.641 1175.76 367.177 1169.8 367.177C1163.84 367.177 1159 371.641 1159 377.146C1159 382.652 1163.84 387.114 1169.8 387.114Z" fill="#8C3566"/>
<path d="M159.6 371.663C171.529 371.663 181.2 363.443 181.2 353.304C181.2 343.164 171.529 334.945 159.6 334.945C147.671 334.945 138 343.164 138 353.304C138 363.443 147.671 371.663 159.6 371.663Z" fill="#8C3566"/>
<path d="M348.2 497.101C355.49 497.101 361.4 492.192 361.4 486.136C361.4 480.08 355.49 475.17 348.2 475.17C340.91 475.17 335 480.08 335 486.136C335 492.192 340.91 497.101 348.2 497.101Z" stroke="#EC615B" stroke-width="3" stroke-miterlimit="10"/>
<path d="M352.5 480.985C357.194 480.985 361 477.824 361 473.924C361 470.025 357.194 466.863 352.5 466.863C347.806 466.863 344 470.025 344 473.924C344 477.824 347.806 480.985 352.5 480.985Z" stroke="#5222D0" stroke-width="3" stroke-miterlimit="10"/>
<path d="M1180.99 382.706C1191.42 382.706 1199.89 375.676 1199.89 367.005C1199.89 358.334 1191.42 351.305 1180.99 351.305C1170.55 351.305 1162.09 358.334 1162.09 367.005C1162.09 375.676 1170.55 382.706 1180.99 382.706Z" stroke="#EC615B" stroke-width="3" stroke-miterlimit="10"/>
<path d="M1260 111.048C1254.6 112.377 1250.8 116.198 1250.1 120.933C1249.4 125.419 1252.6 130.985 1258.6 131.484C1263 131.816 1267.4 127.662 1264.7 124.256C1261.8 120.518 1256.2 123.259 1253.9 125.918C1247.4 133.643 1253.2 148.763 1266.6 145.19C1270.3 144.194 1274.9 140.455 1272.8 136.883C1270.2 132.48 1264.4 137.215 1262.9 139.708C1259.8 144.858 1259 152.251 1265.4 155.907C1270.4 158.731 1277.3 156.903 1278.9 152.002C1279.3 150.922 1277.4 149.759 1276.4 150.756C1269.5 157.983 1274.8 167.952 1286 168.284C1287.9 168.367 1287.9 165.875 1286 165.792C1277.6 165.543 1273.2 158.066 1278.5 152.584C1277.7 152.168 1276.8 151.753 1276 151.338C1274.5 156.073 1267.5 155.325 1264.8 151.836C1262.4 148.596 1263.2 144.194 1265.4 140.954C1265.9 140.123 1268.6 136.219 1270.2 138.711C1271 140.04 1268 141.951 1267 142.449C1263.9 143.861 1259.8 143.446 1257.4 141.286C1254.9 139.126 1254.1 135.803 1254.4 132.896C1254.6 131.317 1255 129.49 1255.9 128.161C1256.3 127.662 1256.8 127.164 1257.2 126.665C1259.7 124.672 1259.6 125.253 1256.8 128.493C1254.8 128.659 1253.1 124.09 1253 123.01C1252.9 121.93 1253.1 120.85 1253.4 119.854C1254.4 116.78 1257.1 114.454 1260.8 113.54C1262.7 113.042 1261.9 110.633 1260 111.048Z" fill="#EC615B"/>
</svg>
