<svg width="1201" height="1217" viewBox="0 0 1201 1217" fill="none" xmlns="http://www.w3.org/2000/svg">
<path d="M159.787 601.556C161.087 599.056 164.687 592.256 168.687 598.556C169.387 599.556 169.387 602.356 169.587 603.356C169.987 605.456 170.687 607.656 172.187 609.256C177.187 614.456 180.687 605.956 185.887 608.756C192.487 612.256 183.887 619.656 189.287 623.756C190.587 624.756 192.087 624.756 193.587 624.156C194.587 623.756 195.387 622.856 196.387 622.356C200.087 620.756 201.387 624.056 201.687 626.956C201.787 627.856 202.287 628.356 203.187 628.456C204.287 628.556 205.287 628.656 206.387 628.756C208.287 628.956 208.287 625.956 206.387 625.756C205.287 625.656 204.287 625.556 203.187 625.456C203.687 625.956 204.187 626.456 204.687 626.956C204.387 624.256 203.887 620.756 201.387 619.156C198.687 617.356 196.887 618.956 194.387 620.156C193.187 620.756 192.187 622.756 190.487 620.356C189.887 619.456 191.187 616.656 191.387 615.656C191.787 614.056 191.987 612.656 191.487 611.056C190.687 608.556 188.487 606.456 185.987 605.656C182.887 604.556 181.387 605.856 178.587 606.656C176.087 607.356 173.587 607.156 172.687 604.456C172.387 603.456 172.287 602.256 172.187 601.256C171.887 599.656 171.687 597.956 170.887 596.456C166.787 588.956 159.687 595.256 157.187 600.356C156.287 601.756 158.887 603.256 159.787 601.556Z" fill="#161616"/>
<path d="M144.281 128.986C146.681 126.686 148.881 125.686 151.481 127.886C153.581 129.686 153.181 130.286 153.781 132.686C154.181 134.086 154.581 135.386 155.781 136.386C157.281 137.686 158.981 137.686 160.881 137.486C162.681 137.286 164.781 136.086 166.281 137.986C166.981 138.886 166.881 140.886 166.881 141.986C166.981 144.986 166.981 148.586 170.381 149.686C171.381 149.986 172.481 149.486 173.381 149.786C174.581 149.286 175.081 149.586 175.181 150.886C175.581 151.686 175.781 152.486 175.681 153.486C176.181 155.786 177.081 157.486 178.881 159.086C180.281 160.386 182.381 158.286 180.981 156.986C177.981 154.186 180.081 150.286 177.581 147.786C174.981 145.186 170.881 148.986 169.981 144.186C169.281 140.486 170.681 135.486 165.781 134.186C162.281 133.286 158.581 136.786 156.681 131.986C155.881 129.986 156.181 127.786 154.781 125.886C151.481 121.586 145.381 123.786 142.081 126.886C140.681 128.186 142.881 130.386 144.281 128.986Z" fill="#161616"/>
<path d="M174.648 587.498C177.048 585.198 179.248 584.198 181.848 586.398C183.948 588.198 183.548 588.798 184.148 591.198C184.548 592.598 184.948 593.898 186.148 594.898C187.648 596.198 189.348 596.198 191.248 595.998C193.048 595.798 195.148 594.598 196.648 596.498C197.348 597.398 197.248 599.398 197.248 600.498C197.348 603.498 197.348 607.098 200.748 608.198C201.748 608.498 202.848 607.998 203.748 608.298C204.948 607.798 205.448 608.098 205.548 609.398C205.948 610.198 206.148 610.998 206.048 611.998C206.548 614.298 207.448 615.998 209.248 617.598C210.648 618.898 212.748 616.798 211.348 615.498C208.348 612.698 210.448 608.798 207.948 606.298C205.348 603.698 201.248 607.498 200.348 602.698C199.648 598.998 201.048 593.998 196.148 592.698C192.648 591.798 188.948 595.298 187.048 590.498C186.248 588.498 186.548 586.298 185.148 584.398C181.848 580.098 175.748 582.298 172.448 585.398C171.048 586.698 173.248 588.898 174.648 587.498Z" fill="#161616"/>
<path d="M215.4 904.548C221.7 914.948 225.5 926.448 226.4 938.548C226.6 940.448 229.6 940.448 229.4 938.548C228.4 925.848 224.6 913.948 218 903.048C216.9 901.348 214.3 902.848 215.4 904.548Z" fill="#E8E8E8"/>
<path d="M227.6 901.248C232.8 910.648 235.7 920.848 236.4 931.548C236.5 933.448 239.5 933.448 239.4 931.548C238.7 920.348 235.6 909.648 230.2 899.748C229.3 898.048 226.7 899.548 227.6 901.248Z" fill="#E8E8E8"/>
<path d="M214.6 923.748C223.3 918.048 233.1 915.048 243.6 914.848C245.5 914.848 245.5 911.848 243.6 911.848C232.7 912.048 222.3 915.248 213.1 921.248C211.5 922.248 213 924.848 214.6 923.748Z" fill="#E8E8E8"/>
<path d="M214.3 935.948C225.2 929.348 237.1 925.148 249.7 923.248C251.6 922.948 250.8 920.048 248.9 920.348C236 922.248 223.9 926.648 212.8 933.348C211.2 934.348 212.7 936.948 214.3 935.948Z" fill="#E8E8E8"/>
<path d="M115.381 78.1858C114.581 75.7858 114.981 73.4858 116.781 71.5858C118.781 69.4858 121.181 69.7858 123.681 70.1858C125.481 70.4858 126.881 70.6858 128.581 69.6858C129.881 68.8858 130.781 67.3858 131.381 66.0858C131.781 65.0858 132.081 64.0858 132.281 63.0858C132.381 62.3858 132.581 61.6858 132.681 61.0858C132.881 58.6858 134.581 57.6858 137.681 58.0858C137.581 59.8858 140.081 59.9858 140.581 58.4858C141.381 56.1858 142.381 53.7858 144.481 52.3858C147.581 50.2858 151.981 50.6858 152.581 54.9858C152.881 56.8858 155.681 56.0858 155.481 54.1858C154.881 50.0858 150.981 47.4858 146.881 48.0858C141.881 48.7858 139.181 53.4858 137.781 57.7858C138.781 57.8858 139.781 58.0858 140.681 58.1858C140.881 55.1858 138.081 53.2858 135.181 53.6858C130.481 54.2858 130.281 59.5858 129.281 63.0858C128.581 65.5858 127.981 67.4858 124.481 67.3858C123.481 67.3858 122.281 66.6858 121.181 66.6858C119.281 66.6858 117.381 67.3858 115.881 68.4858C112.581 70.9858 111.181 75.1858 112.481 79.0858C113.081 80.7858 115.981 80.0858 115.381 78.1858Z" fill="#5222D0"/>
<path d="M51.8 180C56.5496 180 60.4 176.194 60.4 171.5C60.4 166.806 56.5496 163 51.8 163C47.0503 163 43.2 166.806 43.2 171.5C43.2 176.194 47.0503 180 51.8 180Z" fill="#552758"/>
<path d="M21.6 283.4C33.5294 283.4 43.2 273.505 43.2 261.3C43.2 249.094 33.5294 239.2 21.6 239.2C9.67066 239.2 0 249.094 0 261.3C0 273.505 9.67066 283.4 21.6 283.4Z" fill="#8C3566"/>
<path d="M95.2 918.4C102.49 918.4 108.4 912.49 108.4 905.2C108.4 897.91 102.49 892 95.2 892C87.9099 892 82 897.91 82 905.2C82 912.49 87.9099 918.4 95.2 918.4Z" stroke="#EC615B" stroke-width="3" stroke-miterlimit="10"/>
<path d="M99.5 899C104.194 899 108 895.194 108 890.5C108 885.806 104.194 882 99.5 882C94.8056 882 91 885.806 91 890.5C91 895.194 94.8056 899 99.5 899Z" stroke="#5222D0" stroke-width="3" stroke-miterlimit="10"/>
<path d="M1075.58 1096.42C1081.18 1097.12 1086.78 1094.92 1090.48 1090.62C1091.68 1089.12 1089.58 1087.02 1088.38 1088.52C1085.18 1092.32 1080.58 1094.12 1075.58 1093.52C1073.68 1093.22 1073.68 1096.22 1075.58 1096.42Z" fill="#161616"/>
<path d="M1112.97 452.414C1109.97 452.114 1114.47 446.214 1115.37 445.714C1117.77 444.414 1120.57 445.114 1122.37 447.014C1126.27 451.214 1122.97 457.414 1117.67 458.014C1115.77 458.214 1115.77 461.214 1117.67 461.014C1122.07 460.514 1125.97 457.614 1126.97 453.214C1127.97 448.914 1125.37 444.314 1121.37 442.614C1117.47 441.014 1113.17 442.514 1110.87 446.014C1108.87 449.014 1108.37 455.014 1113.07 455.414C1114.87 455.614 1114.87 452.614 1112.97 452.414Z" fill="#161616"/>
<path d="M1092.77 446.314C1090.67 444.414 1093.17 440.614 1095.57 442.714C1098.07 444.814 1094.67 447.714 1092.37 446.014C1090.87 444.814 1089.37 447.414 1090.87 448.614C1092.97 450.214 1096.17 449.714 1098.07 447.814C1100.27 445.614 1099.77 442.214 1097.47 440.314C1095.17 438.414 1091.87 438.514 1090.07 441.014C1088.47 443.214 1088.67 446.414 1090.67 448.314C1092.07 449.714 1094.27 447.614 1092.77 446.314Z" fill="#161616"/>
<path d="M1102.5 548.02C1103.5 566.62 1094.2 584.52 1078.5 594.52C1076.9 595.52 1078.4 598.12 1080 597.12C1096.6 586.62 1106.5 567.72 1105.5 548.02C1105.4 546.12 1102.4 546.12 1102.5 548.02Z" fill="#161616"/>
<path d="M1104.5 550.22C1114.1 557.22 1110.2 569.92 1104.9 578.22C1099.9 586.12 1091.8 595.52 1081.4 593.92C1079.5 593.62 1078.7 596.52 1080.6 596.82C1093.1 598.62 1102.6 588.12 1108.4 578.32C1114.2 568.62 1116.4 555.22 1106 547.62C1104.4 546.52 1102.9 549.12 1104.5 550.22Z" fill="#161616"/>
<path d="M1097.05 378.12C1092.45 380.42 1090.65 386.42 1094.55 390.32C1096.65 392.42 1098.45 391.82 1100.95 392.62C1102.55 393.12 1104.35 394.12 1104.05 395.72C1103.85 396.82 1102.75 397.72 1102.15 398.62C1101.15 399.92 1099.95 401.42 1099.55 403.02C1099.15 404.92 1099.65 406.82 1101.15 408.12C1103.35 410.02 1106.25 408.82 1108.65 410.02C1113.65 412.42 1104.55 422.92 1112.25 424.92C1114.15 425.42 1114.95 422.52 1113.05 422.02C1109.85 421.22 1113.85 415.12 1114.15 413.22C1114.35 411.52 1114.05 409.82 1112.75 408.62C1109.35 405.32 1099.35 408.82 1104.45 400.42C1106.05 397.82 1108.95 394.62 1107.05 391.22C1106.45 390.12 1105.45 389.52 1104.25 389.22C1103.05 389.02 1101.15 389.22 1099.95 389.12C1094.65 388.82 1094.05 382.92 1098.55 380.62C1100.25 379.92 1098.75 377.32 1097.05 378.12Z" fill="#E8E8E8"/>
<path d="M1119.25 394.92C1115.95 396.22 1115.85 399.82 1117.85 402.52C1119.15 404.42 1121.25 404.82 1122.95 406.12C1127.15 409.22 1123.45 411.82 1122.75 415.42C1121.55 421.62 1128.15 419.52 1130.05 423.52C1131.65 426.82 1131.05 430.52 1135.15 432.02C1136.95 432.72 1137.75 429.82 1135.95 429.12C1133.05 428.12 1133.45 422.62 1131.85 420.42C1131.35 419.62 1130.65 419.12 1129.95 418.52C1129.55 418.22 1128.95 418.32 1128.65 418.12C1127.95 418.02 1127.45 417.52 1127.25 416.52C1125.85 415.62 1125.65 414.72 1126.85 413.72C1127.75 410.92 1129.55 409.22 1127.65 406.32C1126.95 405.22 1125.65 404.42 1124.55 403.72C1123.65 403.12 1117.15 399.12 1120.15 397.92C1121.85 397.12 1121.05 394.22 1119.25 394.92Z" fill="#E8E8E8"/>
<path d="M1032.18 1033.62C1024.88 1028.42 1026.08 1017.52 1033.98 1013.52C1039.98 1010.52 1048.18 1013.32 1051.28 1019.22C1054.38 1025.12 1051.68 1033.42 1045.78 1036.52C1039.58 1039.72 1031.88 1036.92 1028.38 1031.22C1027.38 1029.62 1024.78 1031.12 1025.78 1032.72C1030.28 1040.22 1040.68 1043.52 1048.38 1038.52C1055.68 1033.72 1057.98 1022.62 1052.58 1015.62C1047.28 1008.82 1036.68 1007.22 1029.98 1012.72C1022.18 1019.02 1022.78 1030.52 1030.78 1036.32C1032.28 1037.32 1033.78 1034.72 1032.18 1033.62Z" fill="#E8E8E8"/>
<path d="M1060.68 1213.42C1061.78 1209.82 1063.38 1208.82 1065.28 1210.52C1065.78 1210.72 1066.28 1211.02 1066.68 1211.22C1067.38 1211.42 1068.28 1211.62 1068.98 1211.52C1070.48 1211.32 1071.68 1210.42 1072.38 1209.22C1074.88 1205.22 1072.08 1201.32 1069.58 1198.22C1068.28 1196.72 1065.88 1194.72 1066.18 1192.42C1066.58 1188.02 1069.18 1189.82 1071.38 1189.52C1072.98 1189.32 1074.38 1188.72 1075.18 1187.22C1075.98 1185.92 1075.78 1184.22 1075.58 1182.82C1075.48 1182.02 1075.18 1181.12 1075.18 1180.32C1074.48 1178.22 1075.48 1176.92 1078.18 1176.42C1079.48 1177.32 1080.58 1178.42 1081.48 1179.82C1082.58 1181.42 1085.18 1179.92 1084.08 1178.32C1081.38 1174.52 1073.38 1169.32 1072.08 1177.22C1071.48 1181.22 1075.18 1185.42 1069.28 1186.42C1066.38 1186.92 1064.38 1186.92 1063.48 1190.32C1062.68 1193.12 1063.78 1195.82 1065.48 1198.02C1066.28 1199.02 1067.18 1199.92 1067.98 1200.82C1068.98 1201.82 1069.68 1202.92 1070.18 1204.22C1068.98 1205.42 1067.88 1206.62 1066.68 1207.82C1065.78 1208.02 1063.48 1206.12 1062.18 1206.02C1056.38 1205.62 1053.28 1213.42 1059.08 1215.92C1060.98 1216.72 1062.48 1214.12 1060.68 1213.42Z" fill="#E8E8E8"/>
<path d="M1085.08 1209.12C1083.48 1206.52 1080.98 1202.52 1082.08 1199.22C1082.88 1196.72 1086.28 1195.62 1087.78 1193.62C1090.08 1190.52 1089.78 1186.42 1087.68 1183.32C1087.28 1184.12 1086.78 1184.82 1086.38 1185.62C1092.08 1186.02 1096.88 1182.62 1098.58 1177.12C1099.18 1175.22 1096.28 1174.52 1095.68 1176.32C1094.38 1180.52 1090.78 1182.92 1086.38 1182.62C1085.28 1182.52 1084.48 1183.92 1085.08 1184.92C1086.38 1186.82 1086.88 1189.52 1085.58 1191.62C1084.38 1193.42 1082.78 1193.52 1081.48 1194.82C1080.28 1196.02 1079.48 1197.22 1079.18 1199.02C1078.38 1203.12 1080.58 1207.22 1082.58 1210.62C1083.48 1212.32 1086.08 1210.82 1085.08 1209.12Z" fill="#E8E8E8"/>
<path d="M1188.48 1138.42C1186.68 1137.42 1186.48 1135.12 1187.78 1133.62C1189.08 1132.12 1191.48 1131.52 1193.38 1131.82C1194.98 1132.12 1196.78 1132.92 1197.48 1134.52C1198.28 1136.32 1197.08 1139.42 1194.68 1139.12C1192.78 1138.82 1191.98 1141.72 1193.88 1142.02C1197.28 1142.52 1200.28 1140.22 1200.78 1136.72C1201.38 1133.02 1198.38 1130.02 1194.98 1129.12C1191.48 1128.12 1187.08 1129.22 1184.98 1132.42C1183.08 1135.32 1183.88 1139.42 1187.08 1141.02C1188.68 1141.92 1190.18 1139.32 1188.48 1138.42Z" fill="#EC615B"/>
<path d="M962.184 1072.12C964.284 1070.52 966.584 1070.42 969.084 1071.72C970.184 1072.32 971.684 1071.32 971.284 1070.02C970.384 1068.22 970.584 1066.62 972.084 1065.22C972.784 1062.12 974.384 1061.92 976.784 1064.52C977.484 1065.92 979.484 1065.12 979.584 1063.72C979.584 1062.42 979.684 1061.02 979.884 1059.72C980.184 1056.52 982.284 1055.72 985.984 1057.22C986.784 1059.02 989.284 1057.42 988.584 1055.72C987.384 1052.92 984.184 1052.02 981.384 1053.12C977.184 1054.82 976.684 1059.82 976.584 1063.72C977.484 1063.42 978.484 1063.22 979.384 1062.92C977.984 1059.92 974.384 1058.82 971.384 1060.32C967.584 1062.32 967.384 1067.02 968.384 1070.72C969.084 1070.12 969.884 1069.62 970.584 1069.02C967.184 1067.32 963.984 1067.42 960.684 1069.42C959.084 1070.52 960.584 1073.12 962.184 1072.12Z" fill="#EC615B"/>
<path d="M1083 0.0576528C1077.6 1.65765 1073.8 6.25765 1073.1 11.9576C1072.4 17.3576 1075.6 24.0577 1081.6 24.6577C1086 25.0577 1090.4 20.0576 1087.7 15.9576C1084.8 11.4576 1079.2 14.7576 1076.9 17.9576C1070.4 27.2576 1076.2 45.4577 1089.6 41.1577C1093.3 39.9577 1097.9 35.4577 1095.8 31.1577C1093.2 25.8577 1087.4 31.5577 1085.9 34.5577C1082.8 40.7577 1082 49.6577 1088.4 54.0577C1093.4 57.4577 1100.3 55.2576 1101.9 49.3576C1102.3 48.0576 1100.4 46.6576 1099.4 47.8576C1092.5 56.5576 1097.8 68.5576 1109 68.9576C1110.9 69.0576 1110.9 66.0576 1109 65.9576C1100.6 65.6576 1096.2 56.6577 1101.5 50.0577C1100.7 49.5577 1099.8 49.0577 1099 48.5577C1097.5 54.2577 1090.5 53.3577 1087.8 49.1577C1085.4 45.2577 1086.2 39.9577 1088.4 36.0577C1088.9 35.0577 1091.6 30.3576 1093.2 33.3576C1094 34.9576 1091 37.2576 1090 37.8576C1086.9 39.5576 1082.8 39.0576 1080.4 36.4576C1077.9 33.8576 1077.1 29.8576 1077.4 26.3576C1077.6 24.4576 1078 22.2577 1078.9 20.6577C1079.3 20.0577 1079.8 19.4576 1080.2 18.8576C1082.7 16.4576 1082.6 17.1577 1079.8 21.0577C1077.8 21.2577 1076.1 15.7576 1076 14.4576C1075.9 13.1576 1076.1 11.8577 1076.4 10.6577C1077.4 6.95766 1080.1 4.15765 1083.8 3.05765C1085.7 2.45765 1084.9 -0.442347 1083 0.0576528Z" fill="#EC615B"/>
<path d="M1049.55 354.12C1056.73 354.12 1062.55 347.897 1062.55 340.22C1062.55 332.543 1056.73 326.32 1049.55 326.32C1042.37 326.32 1036.55 332.543 1036.55 340.22C1036.55 347.897 1042.37 354.12 1049.55 354.12Z" fill="#BCA9EE"/>
<path d="M1112.18 959.6C1116.16 959.6 1119.38 956.108 1119.38 951.8C1119.38 947.492 1116.16 944 1112.18 944C1108.21 944 1104.98 947.492 1104.98 951.8C1104.98 956.108 1108.21 959.6 1112.18 959.6Z" fill="#5222D0"/>
<path d="M1034.45 371.42C1042.79 371.42 1049.55 365.018 1049.55 357.12C1049.55 349.222 1042.79 342.82 1034.45 342.82C1026.11 342.82 1019.35 349.222 1019.35 357.12C1019.35 365.018 1026.11 371.42 1034.45 371.42Z" fill="#8C3566"/>
<path d="M1014.88 984.42C1020.85 984.42 1025.68 979.048 1025.68 972.42C1025.68 965.793 1020.85 960.42 1014.88 960.42C1008.92 960.42 1004.08 965.793 1004.08 972.42C1004.08 979.048 1008.92 984.42 1014.88 984.42Z" fill="#8C3566"/>
<path d="M1163.99 633.693C1174.42 633.693 1182.89 625.231 1182.89 614.793C1182.89 604.355 1174.42 595.893 1163.99 595.893C1153.55 595.893 1145.09 604.355 1145.09 614.793C1145.09 625.231 1153.55 633.693 1163.99 633.693Z" stroke="#EC615B" stroke-width="3" stroke-miterlimit="10"/>
</svg>
