<svg width="1121" height="1217" viewBox="0 0 1121 1217" fill="none" xmlns="http://www.w3.org/2000/svg">
<path d="M79.7866 601.556C81.0866 599.056 84.6866 592.256 88.6866 598.556C89.3866 599.556 89.3866 602.356 89.5866 603.356C89.9866 605.456 90.6866 607.656 92.1866 609.256C97.1866 614.456 100.687 605.956 105.887 608.756C112.487 612.256 103.887 619.656 109.287 623.756C110.587 624.756 112.087 624.756 113.587 624.156C114.587 623.756 115.387 622.856 116.387 622.356C120.087 620.756 121.387 624.056 121.687 626.956C121.787 627.856 122.287 628.356 123.187 628.456C124.287 628.556 125.287 628.656 126.387 628.756C128.287 628.956 128.287 625.956 126.387 625.756C125.287 625.656 124.287 625.556 123.187 625.456C123.687 625.956 124.187 626.456 124.687 626.956C124.387 624.256 123.887 620.756 121.387 619.156C118.687 617.356 116.887 618.956 114.387 620.156C113.187 620.756 112.187 622.756 110.487 620.356C109.887 619.456 111.187 616.656 111.387 615.656C111.787 614.056 111.987 612.656 111.487 611.056C110.687 608.556 108.487 606.456 105.987 605.656C102.887 604.556 101.387 605.856 98.5866 606.656C96.0866 607.356 93.5866 607.156 92.6866 604.456C92.3866 603.456 92.2866 602.256 92.1866 601.256C91.8866 599.656 91.6866 597.956 90.8866 596.456C86.7866 588.956 79.6866 595.256 77.1866 600.356C76.2866 601.756 78.8866 603.256 79.7866 601.556Z" fill="#161616"/>
<path d="M94.6484 587.498C97.0484 585.198 99.2483 584.198 101.848 586.398C103.948 588.198 103.548 588.798 104.148 591.198C104.548 592.598 104.948 593.898 106.148 594.898C107.648 596.198 109.348 596.198 111.248 595.998C113.048 595.798 115.148 594.598 116.648 596.498C117.348 597.398 117.248 599.398 117.248 600.498C117.348 603.498 117.348 607.098 120.748 608.198C121.748 608.498 122.848 607.998 123.748 608.298C124.948 607.798 125.448 608.098 125.548 609.398C125.948 610.198 126.148 610.998 126.048 611.998C126.548 614.298 127.448 615.998 129.248 617.598C130.648 618.898 132.748 616.798 131.348 615.498C128.348 612.698 130.448 608.798 127.948 606.298C125.348 603.698 121.248 607.498 120.348 602.698C119.648 598.998 121.048 593.998 116.148 592.698C112.648 591.798 108.948 595.298 107.048 590.498C106.248 588.498 106.548 586.298 105.148 584.398C101.848 580.098 95.7484 582.298 92.4484 585.398C91.0484 586.698 93.2484 588.898 94.6484 587.498Z" fill="#161616"/>
<path d="M135.4 904.548C141.7 914.948 145.5 926.448 146.4 938.548C146.6 940.448 149.6 940.448 149.4 938.548C148.4 925.848 144.6 913.948 138 903.048C136.9 901.348 134.3 902.848 135.4 904.548Z" fill="#E8E8E8"/>
<path d="M147.6 901.248C152.8 910.648 155.7 920.848 156.4 931.548C156.5 933.448 159.5 933.448 159.4 931.548C158.7 920.348 155.6 909.648 150.2 899.748C149.3 898.048 146.7 899.548 147.6 901.248Z" fill="#E8E8E8"/>
<path d="M134.6 923.748C143.3 918.048 153.1 915.048 163.6 914.848C165.5 914.848 165.5 911.848 163.6 911.848C152.7 912.048 142.3 915.248 133.1 921.248C131.5 922.248 133 924.848 134.6 923.748Z" fill="#E8E8E8"/>
<path d="M134.3 935.948C145.2 929.348 157.1 925.148 169.7 923.248C171.6 922.948 170.8 920.048 168.9 920.348C156 922.248 143.9 926.648 132.8 933.348C131.2 934.348 132.7 936.948 134.3 935.948Z" fill="#E8E8E8"/>
<path d="M15.2 918.4C22.4902 918.4 28.4 912.49 28.4 905.2C28.4 897.91 22.4902 892 15.2 892C7.90985 892 2 897.91 2 905.2C2 912.49 7.90985 918.4 15.2 918.4Z" stroke="#EC615B" stroke-width="3" stroke-miterlimit="10"/>
<path d="M19.5 899C24.1944 899 28 895.194 28 890.5C28 885.806 24.1944 882 19.5 882C14.8056 882 11 885.806 11 890.5C11 895.194 14.8056 899 19.5 899Z" stroke="#5222D0" stroke-width="3" stroke-miterlimit="10"/>
<path d="M995.581 1096.42C1001.18 1097.12 1006.78 1094.92 1010.48 1090.62C1011.68 1089.12 1009.58 1087.02 1008.38 1088.52C1005.18 1092.32 1000.58 1094.12 995.581 1093.52C993.681 1093.22 993.681 1096.22 995.581 1096.42Z" fill="#161616"/>
<path d="M1032.97 452.414C1029.97 452.114 1034.47 446.214 1035.37 445.714C1037.77 444.414 1040.57 445.114 1042.37 447.014C1046.27 451.214 1042.97 457.414 1037.67 458.014C1035.77 458.214 1035.77 461.214 1037.67 461.014C1042.07 460.514 1045.97 457.614 1046.97 453.214C1047.97 448.914 1045.37 444.314 1041.37 442.614C1037.47 441.014 1033.17 442.514 1030.87 446.014C1028.87 449.014 1028.37 455.014 1033.07 455.414C1034.87 455.614 1034.87 452.614 1032.97 452.414Z" fill="#161616"/>
<path d="M1012.77 446.314C1010.67 444.414 1013.17 440.614 1015.57 442.714C1018.07 444.814 1014.67 447.714 1012.37 446.014C1010.87 444.814 1009.37 447.414 1010.87 448.614C1012.97 450.214 1016.17 449.714 1018.07 447.814C1020.27 445.614 1019.77 442.214 1017.47 440.314C1015.17 438.414 1011.87 438.514 1010.07 441.014C1008.47 443.214 1008.67 446.414 1010.67 448.314C1012.07 449.714 1014.27 447.614 1012.77 446.314Z" fill="#161616"/>
<path d="M1022.5 548.02C1023.5 566.62 1014.2 584.52 998.5 594.52C996.9 595.52 998.4 598.12 1000 597.12C1016.6 586.62 1026.5 567.72 1025.5 548.02C1025.4 546.12 1022.4 546.12 1022.5 548.02Z" fill="#161616"/>
<path d="M1024.5 550.22C1034.1 557.22 1030.2 569.92 1024.9 578.22C1019.9 586.12 1011.8 595.52 1001.4 593.92C999.5 593.62 998.7 596.52 1000.6 596.82C1013.1 598.62 1022.6 588.12 1028.4 578.32C1034.2 568.62 1036.4 555.22 1026 547.62C1024.4 546.52 1022.9 549.12 1024.5 550.22Z" fill="#161616"/>
<path d="M1017.05 378.12C1012.45 380.42 1010.65 386.42 1014.55 390.32C1016.65 392.42 1018.45 391.82 1020.95 392.62C1022.55 393.12 1024.35 394.12 1024.05 395.72C1023.85 396.82 1022.75 397.72 1022.15 398.62C1021.15 399.92 1019.95 401.42 1019.55 403.02C1019.15 404.92 1019.65 406.82 1021.15 408.12C1023.35 410.02 1026.25 408.82 1028.65 410.02C1033.65 412.42 1024.55 422.92 1032.25 424.92C1034.15 425.42 1034.95 422.52 1033.05 422.02C1029.85 421.22 1033.85 415.12 1034.15 413.22C1034.35 411.52 1034.05 409.82 1032.75 408.62C1029.35 405.32 1019.35 408.82 1024.45 400.42C1026.05 397.82 1028.95 394.62 1027.05 391.22C1026.45 390.12 1025.45 389.52 1024.25 389.22C1023.05 389.02 1021.15 389.22 1019.95 389.12C1014.65 388.82 1014.05 382.92 1018.55 380.62C1020.25 379.92 1018.75 377.32 1017.05 378.12Z" fill="#E8E8E8"/>
<path d="M1039.25 394.92C1035.95 396.22 1035.85 399.82 1037.85 402.52C1039.15 404.42 1041.25 404.82 1042.95 406.12C1047.15 409.22 1043.45 411.82 1042.75 415.42C1041.55 421.62 1048.15 419.52 1050.05 423.52C1051.65 426.82 1051.05 430.52 1055.15 432.02C1056.95 432.72 1057.75 429.82 1055.95 429.12C1053.05 428.12 1053.45 422.62 1051.85 420.42C1051.35 419.62 1050.65 419.12 1049.95 418.52C1049.55 418.22 1048.95 418.32 1048.65 418.12C1047.95 418.02 1047.45 417.52 1047.25 416.52C1045.85 415.62 1045.65 414.72 1046.85 413.72C1047.75 410.92 1049.55 409.22 1047.65 406.32C1046.95 405.22 1045.65 404.42 1044.55 403.72C1043.65 403.12 1037.15 399.12 1040.15 397.92C1041.85 397.12 1041.05 394.22 1039.25 394.92Z" fill="#E8E8E8"/>
<path d="M952.184 1033.62C944.884 1028.42 946.084 1017.52 953.984 1013.52C959.984 1010.52 968.184 1013.32 971.284 1019.22C974.384 1025.12 971.684 1033.42 965.784 1036.52C959.584 1039.72 951.884 1036.92 948.384 1031.22C947.384 1029.62 944.784 1031.12 945.784 1032.72C950.284 1040.22 960.684 1043.52 968.384 1038.52C975.684 1033.72 977.984 1022.62 972.584 1015.62C967.284 1008.82 956.684 1007.22 949.984 1012.72C942.184 1019.02 942.784 1030.52 950.784 1036.32C952.284 1037.32 953.784 1034.72 952.184 1033.62Z" fill="#E8E8E8"/>
<path d="M980.681 1213.42C981.781 1209.82 983.381 1208.82 985.281 1210.52C985.781 1210.72 986.281 1211.02 986.681 1211.22C987.381 1211.42 988.281 1211.62 988.981 1211.52C990.481 1211.32 991.681 1210.42 992.381 1209.22C994.881 1205.22 992.081 1201.32 989.581 1198.22C988.281 1196.72 985.881 1194.72 986.181 1192.42C986.581 1188.02 989.181 1189.82 991.381 1189.52C992.981 1189.32 994.381 1188.72 995.181 1187.22C995.981 1185.92 995.781 1184.22 995.581 1182.82C995.481 1182.02 995.181 1181.12 995.181 1180.32C994.481 1178.22 995.481 1176.92 998.181 1176.42C999.481 1177.32 1000.58 1178.42 1001.48 1179.82C1002.58 1181.42 1005.18 1179.92 1004.08 1178.32C1001.38 1174.52 993.381 1169.32 992.081 1177.22C991.481 1181.22 995.181 1185.42 989.281 1186.42C986.381 1186.92 984.381 1186.92 983.481 1190.32C982.681 1193.12 983.781 1195.82 985.481 1198.02C986.281 1199.02 987.181 1199.92 987.981 1200.82C988.981 1201.82 989.681 1202.92 990.181 1204.22C988.981 1205.42 987.881 1206.62 986.681 1207.82C985.781 1208.02 983.481 1206.12 982.181 1206.02C976.381 1205.62 973.281 1213.42 979.081 1215.92C980.981 1216.72 982.481 1214.12 980.681 1213.42Z" fill="#E8E8E8"/>
<path d="M1005.08 1209.12C1003.48 1206.52 1000.98 1202.52 1002.08 1199.22C1002.88 1196.72 1006.28 1195.62 1007.78 1193.62C1010.08 1190.52 1009.78 1186.42 1007.68 1183.32C1007.28 1184.12 1006.78 1184.82 1006.38 1185.62C1012.08 1186.02 1016.88 1182.62 1018.58 1177.12C1019.18 1175.22 1016.28 1174.52 1015.68 1176.32C1014.38 1180.52 1010.78 1182.92 1006.38 1182.62C1005.28 1182.52 1004.48 1183.92 1005.08 1184.92C1006.38 1186.82 1006.88 1189.52 1005.58 1191.62C1004.38 1193.42 1002.78 1193.52 1001.48 1194.82C1000.28 1196.02 999.481 1197.22 999.181 1199.02C998.381 1203.12 1000.58 1207.22 1002.58 1210.62C1003.48 1212.32 1006.08 1210.82 1005.08 1209.12Z" fill="#E8E8E8"/>
<path d="M1108.48 1138.42C1106.68 1137.42 1106.48 1135.12 1107.78 1133.62C1109.08 1132.12 1111.48 1131.52 1113.38 1131.82C1114.98 1132.12 1116.78 1132.92 1117.48 1134.52C1118.28 1136.32 1117.08 1139.42 1114.68 1139.12C1112.78 1138.82 1111.98 1141.72 1113.88 1142.02C1117.28 1142.52 1120.28 1140.22 1120.78 1136.72C1121.38 1133.02 1118.38 1130.02 1114.98 1129.12C1111.48 1128.12 1107.08 1129.22 1104.98 1132.42C1103.08 1135.32 1103.88 1139.42 1107.08 1141.02C1108.68 1141.92 1110.18 1139.32 1108.48 1138.42Z" fill="#EC615B"/>
<path d="M882.184 1072.12C884.284 1070.52 886.584 1070.42 889.084 1071.72C890.184 1072.32 891.684 1071.32 891.284 1070.02C890.384 1068.22 890.584 1066.62 892.084 1065.22C892.784 1062.12 894.384 1061.92 896.784 1064.52C897.484 1065.92 899.484 1065.12 899.584 1063.72C899.584 1062.42 899.684 1061.02 899.884 1059.72C900.184 1056.52 902.284 1055.72 905.984 1057.22C906.784 1059.02 909.284 1057.42 908.584 1055.72C907.384 1052.92 904.184 1052.02 901.384 1053.12C897.184 1054.82 896.684 1059.82 896.584 1063.72C897.484 1063.42 898.484 1063.22 899.384 1062.92C897.984 1059.92 894.384 1058.82 891.384 1060.32C887.584 1062.32 887.384 1067.02 888.384 1070.72C889.084 1070.12 889.884 1069.62 890.584 1069.02C887.184 1067.32 883.984 1067.42 880.684 1069.42C879.084 1070.52 880.584 1073.12 882.184 1072.12Z" fill="#EC615B"/>
<path d="M1003 0.0576528C997.595 1.65765 993.795 6.25765 993.095 11.9576C992.395 17.3576 995.595 24.0577 1001.6 24.6577C1006 25.0577 1010.4 20.0576 1007.7 15.9576C1004.8 11.4576 999.195 14.7576 996.895 17.9576C990.395 27.2576 996.195 45.4577 1009.6 41.1577C1013.3 39.9577 1017.9 35.4577 1015.8 31.1577C1013.2 25.8577 1007.4 31.5577 1005.9 34.5577C1002.8 40.7577 1002 49.6576 1008.4 54.0577C1013.4 57.4577 1020.3 55.2576 1021.9 49.3576C1022.3 48.0576 1020.4 46.6576 1019.4 47.8576C1012.5 56.5576 1017.8 68.5576 1029 68.9576C1030.9 69.0576 1030.9 66.0576 1029 65.9576C1020.6 65.6576 1016.2 56.6576 1021.5 50.0577C1020.7 49.5577 1019.8 49.0577 1019 48.5577C1017.5 54.2577 1010.5 53.3577 1007.8 49.1577C1005.4 45.2577 1006.2 39.9577 1008.4 36.0577C1008.9 35.0577 1011.6 30.3576 1013.2 33.3576C1014 34.9576 1011 37.2576 1010 37.8576C1006.9 39.5576 1002.8 39.0576 1000.4 36.4576C997.895 33.8576 997.095 29.8576 997.395 26.3576C997.595 24.4576 997.995 22.2577 998.895 20.6577C999.295 20.0577 999.795 19.4576 1000.2 18.8576C1002.7 16.4576 1002.6 17.1577 999.795 21.0577C997.795 21.2577 996.095 15.7576 995.995 14.4576C995.895 13.1576 996.095 11.8577 996.395 10.6577C997.395 6.95766 1000.1 4.15765 1003.8 3.05765C1005.7 2.45765 1004.9 -0.442347 1003 0.0576528Z" fill="#EC615B"/>
<path d="M969.552 354.12C976.731 354.12 982.552 347.897 982.552 340.22C982.552 332.543 976.731 326.32 969.552 326.32C962.372 326.32 956.552 332.543 956.552 340.22C956.552 347.897 962.372 354.12 969.552 354.12Z" fill="#BCA9EE"/>
<path d="M1032.18 959.6C1036.16 959.6 1039.38 956.108 1039.38 951.8C1039.38 947.492 1036.16 944 1032.18 944C1028.21 944 1024.98 947.492 1024.98 951.8C1024.98 956.108 1028.21 959.6 1032.18 959.6Z" fill="#5222D0"/>
<path d="M954.451 371.42C962.791 371.42 969.552 365.018 969.552 357.12C969.552 349.222 962.791 342.82 954.451 342.82C946.112 342.82 939.351 349.222 939.351 357.12C939.351 365.018 946.112 371.42 954.451 371.42Z" fill="#8C3566"/>
<path d="M934.884 984.42C940.849 984.42 945.684 979.048 945.684 972.42C945.684 965.793 940.849 960.42 934.884 960.42C928.919 960.42 924.084 965.793 924.084 972.42C924.084 979.048 928.919 984.42 934.884 984.42Z" fill="#8C3566"/>
<path d="M1083.99 633.693C1094.42 633.693 1102.89 625.231 1102.89 614.793C1102.89 604.355 1094.42 595.893 1083.99 595.893C1073.55 595.893 1065.09 604.355 1065.09 614.793C1065.09 625.231 1073.55 633.693 1083.99 633.693Z" stroke="#EC615B" stroke-width="3" stroke-miterlimit="10"/>
</svg>
