<svg width="138" height="113" viewBox="0 0 138 113" fill="none" xmlns="http://www.w3.org/2000/svg">
<path d="M10.8 45.107C16.76 45.107 21.6 39.735 21.6 33.107C21.6 26.48 16.76 21.107 10.8 21.107C4.84005 21.107 0 26.48 0 33.107C0 39.735 4.84005 45.107 10.8 45.107Z" fill="#8C3566"/>
<path d="M123.2 111.4C130.49 111.4 136.4 105.49 136.4 98.2C136.4 90.91 130.49 85 123.2 85C115.91 85 110 90.91 110 98.2C110 105.49 115.91 111.4 123.2 111.4Z" stroke="#1C1919" stroke-width="3" stroke-miterlimit="10"/>
<path d="M127.5 92C132.194 92 136 88.194 136 83.5C136 78.806 132.194 75 127.5 75C122.806 75 119 78.806 119 83.5C119 88.194 122.806 92 127.5 92Z" stroke="#5222D0" stroke-width="3" stroke-miterlimit="10"/>
<path d="M21.99 39.8C32.42 39.8 40.89 31.338 40.89 20.9C40.89 10.462 32.42 2 21.99 2C11.55 2 3.08997 10.462 3.08997 20.9C3.08997 31.338 11.55 39.8 21.99 39.8Z" stroke="#EC615B" stroke-width="3" stroke-miterlimit="10"/>
</svg>
