<svg width="1600" height="1200" viewBox="0 0 1600 1200" fill="none" xmlns="http://www.w3.org/2000/svg">
<g clip-path="url(#clip0_0:1)">
<path d="M626.293 1123.7C628.126 1123.7 628.126 1120.7 626.293 1120.7C624.46 1120.7 624.46 1123.7 626.293 1123.7Z" fill="#E8E8E8"/>
<path d="M857.48 1170.7C917.593 1210.7 984.358 1239.6 1054.02 1255.8C1055.86 1256.2 1056.63 1253.3 1054.79 1252.9C985.323 1236.7 918.847 1208 858.927 1168.1C857.384 1167.1 855.936 1169.7 857.48 1170.7Z" fill="#E8E8E8"/>
<path d="M1042.44 1066.7C1036.17 1053.7 1033.77 1039.5 1035.12 1025.1C1034.35 1025.5 1033.66 1026 1032.89 1026.4C1035.69 1028.5 1038.5 1030.6 1041.3 1032.8C1042.36 1033.6 1043.7 1032.3 1043.41 1031.1C1036.37 1006 1035.88 979.5 1042.06 954.2C1041.19 954.3 1040.33 954.4 1039.46 954.6C1041.2 957.5 1042.84 960.3 1044.58 963.2C1045.25 964.4 1047.37 964 1047.27 962.4C1044.57 932.4 1048.52 902.2 1058.85 874C1058.08 874.2 1057.21 874.4 1056.44 874.7C1062.71 882.3 1064.26 892.1 1065.03 901.8C1065.8 912.4 1066.18 923.1 1066.57 933.7C1067.44 955.9 1067.72 978.1 1067.53 1000.2C1068.5 1000.2 1069.46 1000.2 1070.43 1000.2C1069.65 986.5 1073.33 973.4 1080.95 962.2C1080.18 962.3 1079.4 962.4 1078.63 962.5C1080.46 964.9 1082.2 967.2 1084.03 969.6C1084.9 970.7 1086.45 969.7 1086.55 968.5C1086.84 958.7 1092.91 950.2 1101.79 947.1C1101.21 946.6 1100.53 946.1 1099.95 945.7C1101.88 981.1 1098.22 1016.4 1089.06 1050.5C1088.58 1052.4 1091.37 1053.2 1091.86 1051.3C1101.02 1016.9 1104.78 981.3 1102.85 945.7C1102.75 944.8 1101.99 943.9 1101.02 944.3C1090.79 947.9 1083.94 957.5 1083.65 968.6C1084.52 968.2 1085.3 967.9 1086.16 967.5C1084.33 965.1 1082.59 962.8 1080.76 960.4C1080.08 959.6 1078.93 960 1078.44 960.7C1070.53 972.3 1066.66 986.1 1067.53 1000.3C1067.63 1002.2 1070.43 1002.2 1070.43 1000.3C1070.62 976.2 1070.24 952 1069.18 927.9C1068.7 917.2 1068.6 906.3 1067.25 895.7C1066.19 887.2 1063.86 879.2 1058.37 872.6C1057.59 871.7 1056.34 872.3 1055.95 873.3C1045.53 901.7 1041.59 932.2 1044.29 962.5C1045.16 962.2 1046.12 962 1046.99 961.7C1045.25 958.8 1043.61 956 1041.88 953.1C1041.2 952 1039.56 952.2 1039.27 953.5C1033 979.4 1033.47 1006.4 1040.61 1032C1041.29 1031.4 1042.07 1030.9 1042.74 1030.3C1039.95 1028.2 1037.14 1026.1 1034.34 1023.9C1033.37 1023.2 1032.23 1024.2 1032.13 1025.2C1030.68 1040.1 1033.38 1054.9 1039.85 1068.3C1040.72 1069.9 1043.22 1068.4 1042.44 1066.7Z" fill="#E8E8E8"/>
<path d="M499.603 1148.2C477.797 1135.6 459.078 1118 445.087 1096.6C444.991 1097.2 444.894 1097.8 444.894 1098.4C447.499 1095.8 451.552 1096.7 453.096 1100C453.964 1099.5 454.736 1099 455.604 1098.5C445.956 1083.4 436.403 1068.2 426.754 1053.1C422.026 1045.7 417.298 1038.2 412.57 1030.8C410.158 1026.9 407.649 1023.1 405.237 1019.2C404.176 1017.5 403.115 1015.9 402.053 1014.2C399.737 1010.5 398.966 1010.3 400.123 1005.6C400.992 1005.5 401.86 1005.4 402.729 1005.2C389.124 985.7 378.992 964 372.528 940.9C371.852 941.5 371.08 942 370.405 942.6C392.79 955.4 407.939 979.2 423.667 999.5C441.421 1022.4 459.078 1045.4 476.542 1068.6C477.218 1067.9 477.893 1067.2 478.569 1066.5C467.955 1055 460.911 1040.9 457.92 1025.4C457.245 1026 456.473 1026.5 455.797 1027.1C463.227 1032.6 469.499 1039.2 474.709 1046.9C475.481 1048 477.411 1047.7 477.411 1046.1C477.314 1042 477.218 1037.9 477.121 1033.8C476.542 1034.3 475.867 1034.8 475.288 1035.2C483.49 1037.9 489.376 1044.3 494.393 1051.3C499.603 1058.7 504.331 1066.4 509.252 1074C519.866 1090.4 530.576 1106.8 541.19 1123.2C542.251 1124.8 544.76 1123.3 543.699 1121.7C531.927 1103.6 520.252 1085.6 508.48 1067.5C499.989 1054.4 491.595 1037.3 475.964 1032.2C475.095 1031.9 474.13 1032.7 474.13 1033.6C474.227 1037.7 474.323 1041.8 474.42 1045.9C475.288 1045.6 476.253 1045.4 477.121 1045.1C471.622 1036.9 464.964 1030 457.148 1024.2C455.99 1023.4 454.833 1024.7 455.025 1025.9C458.113 1042 465.543 1056.5 476.446 1068.3C477.797 1069.7 479.63 1067.7 478.472 1066.2C460.525 1042.6 442.482 1019 424.342 995.6C408.807 975.6 393.852 952.5 371.756 939.8C370.694 939.2 369.247 940.2 369.633 941.5C376.194 964.8 386.422 986.8 400.123 1006.5C400.799 1007.5 402.439 1007.5 402.729 1006.1C403.886 1001.6 397.325 1000.3 395.492 1004C393.659 1007.9 397.422 1012.5 399.351 1015.4C403.018 1021.2 406.685 1027 410.351 1032.8C424.535 1055.1 438.719 1077.4 452.806 1099.7C453.868 1101.3 456.183 1099.9 455.315 1098.2C452.806 1093.2 446.438 1092.2 442.578 1096C442.096 1096.4 442 1097.3 442.385 1097.8C456.666 1119.7 475.674 1137.7 497.963 1150.5C499.796 1151.7 501.244 1149.1 499.603 1148.2Z" fill="#E8E8E8"/>
<path d="M541.383 1090.3C513.208 1060.6 489.955 1026.2 472.587 988.6C472.008 989.3 471.525 990.1 470.946 990.8C475.674 992.7 479.148 996 481.463 1000.6C482.332 1000.1 483.104 999.6 483.972 999.1C473.069 983.2 465.639 965.3 461.876 946.2C461.201 946.8 460.429 947.3 459.753 947.9C472.779 956.5 480.113 971.7 488.121 984.9C496.998 999.6 505.972 1014.4 514.849 1029.1C515.813 1030.7 518.322 1029.2 517.357 1027.6C507.805 1011.8 498.156 995.9 488.604 980.1C480.981 967.4 473.744 953.6 461.201 945.4C460.043 944.6 458.885 945.9 459.078 947.1C462.841 966.4 470.464 984.7 481.463 1000.8C482.525 1002.4 484.841 1001 483.972 999.3C481.27 994 477.121 990.3 471.718 988.1C470.464 987.6 469.595 989.2 470.078 990.3C487.542 1028.1 510.989 1062.7 539.357 1092.6C540.708 1093.8 542.734 1091.7 541.383 1090.3Z" fill="#E8E8E8"/>
<path d="M328.722 1096.5C317.722 1087.6 310.678 1075 308.555 1060.7C308.073 1061.3 307.59 1062 307.204 1062.6C310.678 1062.3 313.476 1063.4 315.599 1066.4C316.66 1068 319.169 1066.5 318.108 1064.9C307.397 1048.9 300.547 1030.7 298.038 1011.3C297.17 1011.7 296.398 1012 295.529 1012.4C297.363 1013.8 299.099 1015.3 300.933 1016.7C302.187 1017.7 304.117 1016.5 303.248 1014.9C287.424 986.3 278.161 954.4 276.328 921.5C275.46 921.8 274.495 922 273.626 922.3C298.135 955.5 315.792 993.4 333.16 1031C334.028 1030.5 334.8 1030 335.669 1029.5C333.063 1026 337.984 1022.3 341.169 1023C344.063 1023.7 346.186 1026.8 347.44 1029.3C350.046 1034.2 351.879 1039.7 354.002 1044.9C358.73 1056.5 363.457 1068.1 368.185 1079.7C368.861 1081.5 371.37 1079.9 370.694 1078.2C366.738 1068.4 362.686 1058.6 358.73 1048.9C355.545 1041.1 353.133 1031.5 348.019 1024.8C345.318 1021.2 340.976 1018.5 336.634 1020.7C332.871 1022.5 330.265 1027.2 333.064 1031C334.221 1032.5 336.344 1031.3 335.572 1029.5C318.204 991.9 300.547 954 275.846 920.8C275.074 919.7 273.047 919.9 273.144 921.6C275.074 955 284.337 987.5 300.45 1016.5C301.222 1015.9 301.994 1015.3 302.766 1014.7C300.933 1013.3 299.196 1011.8 297.363 1010.4C296.494 1009.7 294.661 1010 294.854 1011.5C297.363 1031.4 304.31 1050.1 315.31 1066.6C316.178 1066.1 316.95 1065.6 317.818 1065.1C315.213 1061.3 311.547 1059.3 306.915 1059.8C305.854 1059.9 305.371 1060.7 305.564 1061.7C307.783 1076.4 315.213 1089.6 326.502 1098.8C328.143 1099.8 330.169 1097.7 328.722 1096.5Z" fill="#E8E8E8"/>
<path d="M160.414 508.631C168.326 495.131 185.308 488.431 199.782 493.831C212.808 498.731 221.299 511.431 231.526 520.331C240.403 528.131 250.921 532.731 262.692 530.131C274.85 527.431 285.174 519.131 295.692 512.731C307.27 505.631 319.91 500.531 333.129 506.431C345.287 511.931 354.164 522.731 365.935 528.931C377.321 535.031 388.803 534.031 400.092 528.331C412.925 521.931 424.89 510.931 439.749 510.931C458.565 510.831 473.038 525.931 490.116 531.831C502.853 536.131 518.774 536.731 527.94 525.031C529.098 523.531 527.072 521.431 525.914 522.931C515.975 535.731 497.836 532.631 485.003 526.631C471.108 520.131 458.468 509.431 442.74 508.131C428.364 506.931 416.399 515.531 404.434 522.531C398.066 526.331 391.119 529.831 383.689 530.331C376.549 530.831 369.988 528.231 364.006 524.531C353.199 517.731 344.225 507.631 332.261 502.931C320.875 498.531 309.393 501.631 299.069 507.331C287.49 513.731 276.973 523.031 264.14 526.731C249.57 530.831 238.088 523.131 227.956 512.931C218.115 503.131 208.369 491.331 193.992 489.331C179.808 487.331 165.239 494.531 157.905 507.131C156.941 508.731 159.449 510.231 160.414 508.631Z" fill="#E8E8E8"/>
<path d="M946.636 429.7C953.679 416.6 970.464 424.9 978.762 431.6C987.253 438.4 995.271 445.6 1006.46 446.4C1026.05 447.9 1043.41 432.9 1060.2 424.9C1070.62 419.9 1081.72 416.8 1093.1 419.7C1104.68 422.6 1114.71 429.4 1125.91 433.4C1135.56 436.8 1145.4 437 1154.47 431.8C1166.72 424.8 1175.5 413.5 1190.94 416C1205.7 418.4 1217.67 428.9 1232.14 432.3C1242.56 434.7 1254.24 434 1261.57 425.1C1262.73 423.6 1260.7 421.5 1259.54 423C1251.25 433.1 1237.36 431.5 1226.46 427.5C1214.01 423 1203.1 414.4 1189.69 412.8C1176.66 411.3 1167.88 418.8 1157.84 426C1152.63 429.7 1147.05 432.7 1140.58 433C1134.41 433.3 1128.43 431.4 1122.73 429C1111.83 424.5 1101.5 417.8 1089.72 416C1080.17 414.5 1070.91 416.9 1062.13 420.8C1043.99 428.8 1024.4 447.1 1003.37 443.1C989.665 440.5 981.849 427.3 969.407 422.1C960.723 418.5 949.144 418.9 944.127 428.2C943.259 429.9 945.767 431.4 946.636 429.7Z" fill="#E8E8E8"/>
<path d="M1089.54 396C1098.51 376.5 1123.5 385.4 1137.69 391.5C1146.28 395.2 1155.25 398.8 1164.71 398.4C1172.52 398.1 1179.95 395.5 1186.99 392.4C1203.3 385.1 1219.99 373.2 1238.62 378.4C1255.02 383.1 1269.3 397.2 1287.34 393.2C1297.76 390.9 1306.44 383.8 1316.57 380.8C1329.98 376.9 1342.92 383.1 1354.79 389.1C1356.43 389.9 1357.97 387.4 1356.24 386.5C1346.68 381.7 1336.64 376.7 1325.74 376.5C1315.89 376.4 1307.41 381.3 1298.82 385.5C1288.6 390.6 1279.13 392.5 1268.23 388.4C1259.25 385.1 1251.16 379.5 1242.09 376.3C1224.34 370.1 1208.31 378.5 1192.48 386.4C1183.9 390.6 1174.93 394.8 1165.28 395.3C1154.38 395.9 1144.43 391.1 1134.59 386.9C1119.73 380.6 1095.71 375.4 1086.93 394.4C1086.25 396.2 1088.77 397.7 1089.54 396Z" fill="#E8E8E8"/>
<path d="M151.055 487.8C166.493 491.1 175.08 506.3 188.975 512.7C194.475 515.3 200.939 516.8 206.922 515.3C213.676 513.7 216.667 508.5 220.43 503C232.395 485.7 253.14 502.1 266.552 508C273.017 510.9 280.06 512.4 287.007 510.3C293.376 508.4 298.683 504.3 303.989 500.4C311.226 495 318.849 490 328.208 490.8C338.918 491.7 348.374 498.4 356.865 504.5C358.409 505.6 359.857 503 358.313 501.9C345.962 493.1 330.813 483.5 315.472 489.9C301.77 495.6 291.446 511.3 275.139 507.9C259.991 504.7 248.122 490.9 231.816 492.8C225.158 493.6 220.623 497.3 216.957 503C214.448 507 211.843 510.7 207.308 512.2C203.448 513.5 199.106 513.1 195.247 512C178.361 507.2 169.195 488.7 151.73 485C149.993 484.5 149.221 487.4 151.055 487.8Z" fill="#E8E8E8"/>
<path d="M386.584 278C421.755 278 450.267 248.451 450.267 212C450.267 175.549 421.755 146 386.584 146C351.413 146 322.901 175.549 322.901 212C322.901 248.451 351.413 278 386.584 278Z" stroke="#E8E8E8" stroke-width="2" stroke-miterlimit="10"/>
<path d="M202.001 378.3C209.035 378.3 214.737 372.39 214.737 365.1C214.737 357.81 209.035 351.9 202.001 351.9C194.967 351.9 189.264 357.81 189.264 365.1C189.264 372.39 194.967 378.3 202.001 378.3Z" stroke="#EC615B" stroke-width="3" stroke-miterlimit="10"/>
<path d="M291.735 727.7C298.29 727.7 303.603 722.193 303.603 715.4C303.603 708.607 298.29 703.1 291.735 703.1C285.181 703.1 279.867 708.607 279.867 715.4C279.867 722.193 285.181 727.7 291.735 727.7Z" stroke="#EC615B" stroke-width="3" stroke-miterlimit="10"/>
<path d="M1055.95 204.3C1062.51 204.3 1067.82 198.793 1067.82 192C1067.82 185.207 1062.51 179.7 1055.95 179.7C1049.4 179.7 1044.08 185.207 1044.08 192C1044.08 198.793 1049.4 204.3 1055.95 204.3Z" stroke="#EC615B" stroke-width="3" stroke-miterlimit="10"/>
<path d="M1156.2 838.3C1166.28 838.3 1174.44 829.838 1174.44 819.4C1174.44 808.962 1166.28 800.5 1156.2 800.5C1146.14 800.5 1137.97 808.962 1137.97 819.4C1137.97 829.838 1146.14 838.3 1156.2 838.3Z" stroke="#EC615B" stroke-width="3" stroke-miterlimit="10"/>
<path d="M394.43 792.2C400.399 792.2 405.237 787.186 405.237 781C405.237 774.814 400.399 769.8 394.43 769.8C388.461 769.8 383.624 774.814 383.624 781C383.624 787.186 388.461 792.2 394.43 792.2Z" stroke="#5222D0" stroke-width="3" stroke-miterlimit="10"/>
<path d="M957.443 296.8C964.104 296.8 969.504 291.204 969.504 284.3C969.504 277.396 964.104 271.8 957.443 271.8C950.781 271.8 945.381 277.396 945.381 284.3C945.381 291.204 950.781 296.8 957.443 296.8Z" stroke="#5222D0" stroke-width="3" stroke-miterlimit="10"/>
<path d="M1225.87 339.8C1233.34 339.8 1239.38 333.532 1239.38 325.8C1239.38 318.068 1233.34 311.8 1225.87 311.8C1218.41 311.8 1212.36 318.068 1212.36 325.8C1212.36 333.532 1218.41 339.8 1225.87 339.8Z" stroke="#5222D0" stroke-width="3" stroke-miterlimit="10"/>
<path d="M1089.54 396C1098.51 376.5 1123.5 385.4 1137.69 391.5C1146.28 395.2 1155.25 398.8 1164.71 398.4C1172.52 398.1 1179.95 395.5 1186.99 392.4C1203.3 385.1 1219.99 373.2 1238.62 378.4C1255.02 383.1 1269.3 397.2 1287.34 393.2C1297.76 390.9 1306.44 383.8 1316.57 380.8C1329.98 376.9 1342.92 383.1 1354.79 389.1C1356.43 389.9 1357.97 387.4 1356.24 386.5C1346.68 381.7 1336.64 376.7 1325.74 376.5C1315.89 376.4 1307.41 381.3 1298.82 385.5C1288.6 390.6 1279.13 392.5 1268.23 388.4C1259.25 385.1 1251.16 379.5 1242.09 376.3C1224.34 370.1 1208.31 378.5 1192.48 386.4C1183.9 390.6 1174.93 394.8 1165.28 395.3C1154.38 395.9 1144.43 391.1 1134.59 386.9C1119.73 380.6 1095.71 375.4 1086.93 394.4C1086.25 396.2 1088.77 397.7 1089.54 396Z" fill="#E8E8E8"/>
<path d="M1055.95 204.3C1062.51 204.3 1067.82 198.793 1067.82 192C1067.82 185.207 1062.51 179.7 1055.95 179.7C1049.4 179.7 1044.08 185.207 1044.08 192C1044.08 198.793 1049.4 204.3 1055.95 204.3Z" stroke="#EC615B" stroke-width="3" stroke-miterlimit="10"/>
<path d="M1225.87 339.8C1233.34 339.8 1239.38 333.532 1239.38 325.8C1239.38 318.068 1233.34 311.8 1225.87 311.8C1218.41 311.8 1212.36 318.068 1212.36 325.8C1212.36 333.532 1218.41 339.8 1225.87 339.8Z" stroke="#5222D0" stroke-width="3" stroke-miterlimit="10"/>
<path d="M450.556 414C455.085 414 458.758 410.194 458.758 405.5C458.758 400.806 455.085 397 450.556 397C446.026 397 442.354 400.806 442.354 405.5C442.354 410.194 446.026 414 450.556 414Z" stroke="#5222D0" stroke-width="3" stroke-miterlimit="10"/>
</g>
<defs>
<clipPath id="clip0_0:1">
<rect width="1600" height="1200" fill="white"/>
</clipPath>
</defs>
</svg>
