<svg id="Layer_1" data-name="Layer 1" xmlns="http://www.w3.org/2000/svg" xmlns:xlink="http://www.w3.org/1999/xlink" viewBox="0 0 1016.01 583.74"><defs><style>.cls-1{fill:#f3ebff;}.cls-2{fill:url(#linear-gradient);}.cls-3,.cls-5{opacity:0.9;}.cls-3{fill:url(#linear-gradient-2);}.cls-4{opacity:0.15;}.cls-5{fill:url(#linear-gradient-3);}.cls-6{fill:url(#linear-gradient-4);}</style><linearGradient id="linear-gradient" x1="684.66" y1="692.82" x2="972.18" y2="440.54" gradientUnits="userSpaceOnUse"><stop offset="0" stop-color="#b82de7"/><stop offset="1" stop-color="#602be0"/></linearGradient><linearGradient id="linear-gradient-2" x1="185.78" y1="-119.6" x2="525.7" y2="446.31" gradientTransform="matrix(0.96, -0.29, 0.29, 0.96, 64.95, 572.13)" gradientUnits="userSpaceOnUse"><stop offset="0" stop-color="#f45cf4"/><stop offset="0.12" stop-color="#d54ceb"/><stop offset="0.39" stop-color="#8825d6"/><stop offset="0.45" stop-color="#771cd1"/><stop offset="1" stop-color="#f45cf4"/></linearGradient><linearGradient id="linear-gradient-3" x1="185.8" y1="129.02" x2="579.44" y2="-360.14" gradientTransform="matrix(0.96, -0.29, 0.29, 0.96, 64.95, 572.13)" gradientUnits="userSpaceOnUse"><stop offset="0.1" stop-color="#3d1291"/><stop offset="0.35" stop-color="#4e31c4"/><stop offset="0.47" stop-color="#5238d9"/><stop offset="0.56" stop-color="#533be2"/><stop offset="0.63" stop-color="#5238da"/><stop offset="0.75" stop-color="#4e31c5"/><stop offset="0.75" stop-color="#4e31c4"/><stop offset="0.82" stop-color="#4825b1"/><stop offset="0.92" stop-color="#40179a"/><stop offset="0.99" stop-color="#3d1291"/></linearGradient><linearGradient id="linear-gradient-4" x1="404.57" y1="539.43" x2="721.85" y2="370.71" gradientUnits="userSpaceOnUse"><stop offset="0" stop-color="#b82de7"/><stop offset="0.22" stop-color="#b42de7"/><stop offset="0.43" stop-color="#a92de6"/><stop offset="0.64" stop-color="#952ce4"/><stop offset="0.84" stop-color="#7a2ce2"/><stop offset="1" stop-color="#602be0"/></linearGradient></defs><path class="cls-1" d="M715,631.52a1.09,1.09,0,0,0-.81-.36,1.15,1.15,0,0,0-.84.36,1.07,1.07,0,0,0-.37.82,1.16,1.16,0,0,0,.37.84,1.2,1.2,0,0,0,.84.33,1.13,1.13,0,0,0,.81-.33,1.18,1.18,0,0,0,.36-.84A1.09,1.09,0,0,0,715,631.52Z" transform="translate(-32.16 -67.94)"/><path class="cls-1" d="M1047.33,637.89s0,.19-.14.53L1043,650.61a1.13,1.13,0,0,1-1.1.9,1.24,1.24,0,0,1-1.12-.9l-4.15-10.31-4.12,10.31c-.26.6-.63.9-1.12.9a1.12,1.12,0,0,1-1.09-.9l-4.15-12.19a5.29,5.29,0,0,1-.14-.53,1.06,1.06,0,0,1,.32-.77,1,1,0,0,1,.77-.33,1,1,0,0,1,1,.65l3.39,10.51,4-10.43a1.08,1.08,0,0,1,1.06-.73,1.12,1.12,0,0,1,1.1.73l4,10.43,3.4-10.51a1,1,0,0,1,1-.65,1.08,1.08,0,0,1,.78.33A1,1,0,0,1,1047.33,637.89Z" transform="translate(-32.16 -67.94)"/><path class="cls-1" d="M1024.07,640.07a7.09,7.09,0,0,0-2.8-2.56,7.5,7.5,0,0,0-3.35-.8,7,7,0,0,0-2.5.48,8.12,8.12,0,0,0-2.35,1.37,6.53,6.53,0,0,0-1.77,2.37,8.29,8.29,0,0,0,0,6.53,6.41,6.41,0,0,0,1.77,2.36,8.93,8.93,0,0,0,2.34,1.36,7.15,7.15,0,0,0,2.51.47,7.52,7.52,0,0,0,5-2,6.81,6.81,0,0,0,2.3-5.47A7.29,7.29,0,0,0,1024.07,640.07Zm-2.7,8.11a4.9,4.9,0,0,1-3.45,1.43,5.08,5.08,0,0,1-3.48-1.43,6,6,0,0,1,0-8,4.94,4.94,0,0,1,3.48-1.45,4.77,4.77,0,0,1,3.45,1.45,5.2,5.2,0,0,1,1.54,4A5.26,5.26,0,0,1,1021.37,648.18Z" transform="translate(-32.16 -67.94)"/><path class="cls-1" d="M1010.13,637.83a1,1,0,0,1-.4.81,1.74,1.74,0,0,1-1.12.31,4.45,4.45,0,0,0-3.19,1.21,4.26,4.26,0,0,0-1.52,2.63v7.63a1.18,1.18,0,0,1-.33.83,1.12,1.12,0,0,1-.82.35,1.2,1.2,0,0,1-1.18-1.18V638a1.2,1.2,0,0,1,1.18-1.18,1.12,1.12,0,0,1,.82.35,1.18,1.18,0,0,1,.33.83v2.27a4.42,4.42,0,0,1,1.57-2.24,4.84,4.84,0,0,1,3.39-1.26,1.31,1.31,0,0,1,.93.31A1,1,0,0,1,1010.13,637.83Z" transform="translate(-32.16 -67.94)"/><path class="cls-1" d="M999.05,637.83a1,1,0,0,1-.39.81,1.76,1.76,0,0,1-1.12.31,4.49,4.49,0,0,0-3.2,1.21,4.24,4.24,0,0,0-1.51,2.63v7.63a1.15,1.15,0,0,1-.34.83,1.08,1.08,0,0,1-.81.35,1.14,1.14,0,0,1-.83-.35,1.16,1.16,0,0,1-.35-.83V638a1.16,1.16,0,0,1,.35-.83,1.14,1.14,0,0,1,.83-.35,1.08,1.08,0,0,1,.81.35,1.15,1.15,0,0,1,.34.83v2.27A4.35,4.35,0,0,1,994.4,638a4.81,4.81,0,0,1,3.39-1.26,1.28,1.28,0,0,1,.92.31A1,1,0,0,1,999.05,637.83Z" transform="translate(-32.16 -67.94)"/><path class="cls-1" d="M987.09,640.07a7.09,7.09,0,0,0-2.8-2.56,7.46,7.46,0,0,0-3.35-.8,7.05,7.05,0,0,0-2.5.48,8.12,8.12,0,0,0-2.35,1.37,6.53,6.53,0,0,0-1.77,2.37,8.29,8.29,0,0,0,0,6.53,6.41,6.41,0,0,0,1.77,2.36,8.93,8.93,0,0,0,2.34,1.36,7.15,7.15,0,0,0,2.51.47,7.52,7.52,0,0,0,5-2,6.81,6.81,0,0,0,2.3-5.47A7.29,7.29,0,0,0,987.09,640.07Zm-2.7,8.11a4.9,4.9,0,0,1-3.45,1.43,5.08,5.08,0,0,1-3.48-1.43,6,6,0,0,1,0-8,4.94,4.94,0,0,1,3.48-1.45,4.77,4.77,0,0,1,3.45,1.45,5.2,5.2,0,0,1,1.54,4A5.26,5.26,0,0,1,984.39,648.18Z" transform="translate(-32.16 -67.94)"/><path class="cls-1" d="M971.41,643v7.43a1.15,1.15,0,0,1-.34.83,1.08,1.08,0,0,1-.81.35,1.14,1.14,0,0,1-.83-.35,1.16,1.16,0,0,1-.35-.83V643a4.31,4.31,0,0,0-1.05-3.13,3.64,3.64,0,0,0-2.73-1.08,4.09,4.09,0,0,0-3.14,1.29,4.74,4.74,0,0,0-1.43,2.72v7.63a1.2,1.2,0,0,1-1.18,1.18,1.08,1.08,0,0,1-.81-.35,1.15,1.15,0,0,1-.34-.83V643a4.27,4.27,0,0,0-1.07-3.13,3.68,3.68,0,0,0-2.74-1.08,4.09,4.09,0,0,0-3.14,1.29,4.74,4.74,0,0,0-1.43,2.72v7.63a1.16,1.16,0,0,1-.35.83,1.13,1.13,0,0,1-.8.35,1.14,1.14,0,0,1-.83-.35,1.16,1.16,0,0,1-.35-.83V638a1.16,1.16,0,0,1,.35-.83,1.14,1.14,0,0,1,.83-.35,1.08,1.08,0,0,1,.81.35,1.19,1.19,0,0,1,.34.83v2.27a4.07,4.07,0,0,1,1.59-2.24,5.33,5.33,0,0,1,3.65-1.26,5.59,5.59,0,0,1,3.17.92,5,5,0,0,1,1.93,2.72,6.47,6.47,0,0,1,2.19-2.62,5.76,5.76,0,0,1,3.39-1,5.43,5.43,0,0,1,3.87,1.51A6.24,6.24,0,0,1,971.41,643Z" transform="translate(-32.16 -67.94)"/><path class="cls-1" d="M944.28,640.07a7.09,7.09,0,0,0-2.8-2.56,7.46,7.46,0,0,0-3.35-.8,7.05,7.05,0,0,0-2.5.48,8.12,8.12,0,0,0-2.35,1.37,6.53,6.53,0,0,0-1.77,2.37,8.29,8.29,0,0,0,0,6.53,6.41,6.41,0,0,0,1.77,2.36,8.93,8.93,0,0,0,2.34,1.36,7.15,7.15,0,0,0,2.51.47,7.5,7.5,0,0,0,5-2,6.81,6.81,0,0,0,2.3-5.47A7.29,7.29,0,0,0,944.28,640.07Zm-2.7,8.11a4.9,4.9,0,0,1-3.45,1.43,5.08,5.08,0,0,1-3.48-1.43,6,6,0,0,1,0-8,4.94,4.94,0,0,1,3.48-1.45,4.77,4.77,0,0,1,3.45,1.45,5.16,5.16,0,0,1,1.54,4A5.23,5.23,0,0,1,941.58,648.18Z" transform="translate(-32.16 -67.94)"/><path class="cls-1" d="M933.5,632.87a1,1,0,0,1-.32.75,1,1,0,0,1-.74.31h-4.82v16.4a1.3,1.3,0,0,1-.35.89,1.11,1.11,0,0,1-.83.38,1.15,1.15,0,0,1-.86-.38,1.3,1.3,0,0,1-.35-.89v-16.4h-4.85a1,1,0,0,1-.72-.31,1,1,0,0,1-.31-.75,1,1,0,0,1,.31-.73,1,1,0,0,1,.72-.31h12.06a1,1,0,0,1,.74.31A1,1,0,0,1,933.5,632.87Z" transform="translate(-32.16 -67.94)"/><path class="cls-1" d="M911.3,637.83a1,1,0,0,1-.39.81,1.76,1.76,0,0,1-1.12.31,4.49,4.49,0,0,0-3.2,1.21,4.24,4.24,0,0,0-1.51,2.63v7.63a1.15,1.15,0,0,1-.34.83,1.08,1.08,0,0,1-.81.35,1.14,1.14,0,0,1-.83-.35,1.16,1.16,0,0,1-.35-.83V638a1.16,1.16,0,0,1,.35-.83,1.14,1.14,0,0,1,.83-.35,1.08,1.08,0,0,1,.81.35,1.15,1.15,0,0,1,.34.83v2.27a4.35,4.35,0,0,1,1.57-2.24,4.81,4.81,0,0,1,3.39-1.26,1.32,1.32,0,0,1,.93.31A1,1,0,0,1,911.3,637.83Z" transform="translate(-32.16 -67.94)"/><path class="cls-1" d="M898.29,638.64a7.1,7.1,0,0,0-4.82-1.93,6.85,6.85,0,0,0-6,3.33,7.59,7.59,0,0,0-1.15,4.15,6.86,6.86,0,0,0,2.22,5.47,7.65,7.65,0,0,0,5.21,1.94,6.59,6.59,0,0,0,4.54-1.52,1.42,1.42,0,0,0,.62-1,.76.76,0,0,0-.87-.86,2.11,2.11,0,0,0-1,.42,5.54,5.54,0,0,1-6.7-.14A4.74,4.74,0,0,1,888.7,645l10.32.05c1,0,1.49-.44,1.49-1.32A6.47,6.47,0,0,0,898.29,638.64Zm-9.59,4.66a4.66,4.66,0,0,1,1.6-3.37,4.9,4.9,0,0,1,3.17-1.17,4.82,4.82,0,0,1,3.17,1.17,4.66,4.66,0,0,1,1.6,3.37Z" transform="translate(-32.16 -67.94)"/><path class="cls-1" d="M884.58,649.55a.81.81,0,0,1,.31.67,1.12,1.12,0,0,1-.74,1,4.52,4.52,0,0,1-1.89.35q-2.93,0-2.92-3.17v-9.62h-1.23a.8.8,0,0,1-.87-.46,1.12,1.12,0,0,1,0-1,.76.76,0,0,1,.87-.43h1.23v-2.41a1.12,1.12,0,0,1,.35-.82,1.16,1.16,0,0,1,.83-.33,1.14,1.14,0,0,1,1.15,1.15v2.41h2.24a1,1,0,0,1,.7.26,1,1,0,0,1,0,1.4,1,1,0,0,1-.7.27h-2.24v9.53c0,.83.35,1.24,1.06,1.24.11,0,.48-.06,1.1-.17A.79.79,0,0,1,884.58,649.55Z" transform="translate(-32.16 -67.94)"/><path class="cls-1" d="M875.42,649.55a.83.83,0,0,1,.3.67,1.11,1.11,0,0,1-.74,1,4.46,4.46,0,0,1-1.89.35c-1.94,0-2.92-1.06-2.92-3.17v-9.62h-1.23a.8.8,0,0,1-.87-.46,1.12,1.12,0,0,1,0-1,.76.76,0,0,1,.87-.43h1.23v-2.41a1.12,1.12,0,0,1,.35-.82,1.18,1.18,0,0,1,.83-.33,1.14,1.14,0,0,1,1.15,1.15v2.41h2.24a1,1,0,0,1,.7.26,1,1,0,0,1,0,1.4,1,1,0,0,1-.7.27H872.5v9.53c0,.83.36,1.24,1.07,1.24.11,0,.47-.06,1.09-.17A.81.81,0,0,1,875.42,649.55Z" transform="translate(-32.16 -67.94)"/><path class="cls-1" d="M864.71,638.64a7.13,7.13,0,0,0-4.83-1.93,6.83,6.83,0,0,0-6,3.33,7.5,7.5,0,0,0-1.15,4.15,6.89,6.89,0,0,0,2.21,5.47,7.7,7.7,0,0,0,5.22,1.94,6.61,6.61,0,0,0,4.54-1.52,1.43,1.43,0,0,0,.61-1,.75.75,0,0,0-.86-.86,2.09,2.09,0,0,0-1,.42,5.19,5.19,0,0,1-3.25,1.06,5.29,5.29,0,0,1-3.45-1.2,4.69,4.69,0,0,1-1.62-3.42l10.32.05c1,0,1.48-.44,1.48-1.32A6.49,6.49,0,0,0,864.71,638.64Zm-9.59,4.66a4.58,4.58,0,0,1,1.6-3.37,4.87,4.87,0,0,1,3.16-1.17,4.8,4.8,0,0,1,3.17,1.17,4.58,4.58,0,0,1,1.6,3.37Z" transform="translate(-32.16 -67.94)"/><path class="cls-1" d="M846.31,640.66a3.86,3.86,0,0,0,3-3.95,4.29,4.29,0,0,0-1.66-3.58,7.08,7.08,0,0,0-4.51-1.3h-4.91a1.25,1.25,0,0,0-.92.36,1.3,1.3,0,0,0-.37.93v17a1.26,1.26,0,0,0,1.29,1.29h5.05a8.55,8.55,0,0,0,5.36-1.48,4.92,4.92,0,0,0,1.87-4.1Q850.46,642,846.31,640.66Zm-7-6.78h3.81a4.44,4.44,0,0,1,2.85.81,2.77,2.77,0,0,1,1,2.27q0,2.94-3.84,2.94h-3.81Zm4,15.53h-4v-7.6h4a5.6,5.6,0,0,1,3.66,1,3.55,3.55,0,0,1,1.25,2.89C848.14,648.18,846.5,649.41,843.23,649.41Z" transform="translate(-32.16 -67.94)"/><path class="cls-1" d="M826,637.14a1.15,1.15,0,0,0-.84-.35,1.12,1.12,0,0,0-.82.35,1.18,1.18,0,0,0-.33.83v1.68a4.93,4.93,0,0,0-2-2.14,5.69,5.69,0,0,0-3-.8,6.87,6.87,0,0,0-4.77,2,8.11,8.11,0,0,0,0,11,6.87,6.87,0,0,0,4.77,2,5.6,5.6,0,0,0,3.15-.92,4.42,4.42,0,0,0,1.84-2.3v2a1.1,1.1,0,0,0,.35.82,1.07,1.07,0,0,0,.8.35,1.2,1.2,0,0,0,1.17-1.17V638A1.18,1.18,0,0,0,826,637.14Zm-3.34,11.06a4.69,4.69,0,0,1-3.31,1.41,4.87,4.87,0,0,1-3.42-1.43,6.17,6.17,0,0,1,0-8,4.83,4.83,0,0,1,3.42-1.43,4.61,4.61,0,0,1,3.31,1.4,5.3,5.3,0,0,1,1.46,4A5.4,5.4,0,0,1,822.68,648.2Z" transform="translate(-32.16 -67.94)"/><path class="cls-1" d="M803.81,637.83a1,1,0,0,1-.39.81,1.74,1.74,0,0,1-1.12.31,4.49,4.49,0,0,0-3.2,1.21,4.29,4.29,0,0,0-1.51,2.63v7.63a1.15,1.15,0,0,1-.34.83,1.08,1.08,0,0,1-.81.35,1.2,1.2,0,0,1-1.18-1.18V638a1.2,1.2,0,0,1,1.18-1.18,1.08,1.08,0,0,1,.81.35,1.15,1.15,0,0,1,.34.83v2.27a4.42,4.42,0,0,1,1.57-2.24,4.84,4.84,0,0,1,3.39-1.26,1.31,1.31,0,0,1,.93.31A1,1,0,0,1,803.81,637.83Z" transform="translate(-32.16 -67.94)"/><path class="cls-1" d="M791.86,640.07a7.11,7.11,0,0,0-2.81-2.56,7.46,7.46,0,0,0-3.35-.8,7,7,0,0,0-2.49.48,8.17,8.17,0,0,0-2.36,1.37,6.51,6.51,0,0,0-1.76,2.37,8.18,8.18,0,0,0,0,6.53,6.39,6.39,0,0,0,1.76,2.36,8.93,8.93,0,0,0,2.34,1.36,7.15,7.15,0,0,0,2.51.47,7.5,7.5,0,0,0,5-2,6.81,6.81,0,0,0,2.3-5.47A7.36,7.36,0,0,0,791.86,640.07Zm-2.71,8.11a4.9,4.9,0,0,1-3.45,1.43,5,5,0,0,1-3.47-1.43,6,6,0,0,1,0-8,4.9,4.9,0,0,1,3.47-1.45,4.77,4.77,0,0,1,3.45,1.45,5.16,5.16,0,0,1,1.54,4A5.23,5.23,0,0,1,789.15,648.18Z" transform="translate(-32.16 -67.94)"/><path class="cls-1" d="M779.93,632.9a.92.92,0,0,1-.25.65.83.83,0,0,1-.62.27,2.73,2.73,0,0,1-.93-.31,3.75,3.75,0,0,0-1.62-.42c-1.57,0-2.36.92-2.36,2.75v1h3.25a1,1,0,0,1,.71.26,1,1,0,0,1,0,1.4,1,1,0,0,1-.71.27h-3.25v11.64a1.2,1.2,0,0,1-1.17,1.17,1.07,1.07,0,0,1-.8-.35,1.1,1.1,0,0,1-.35-.82V638.81h-1a.78.78,0,0,1-.86-.46,1.12,1.12,0,0,1,0-1,.74.74,0,0,1,.86-.43h1v-1.12a4.35,4.35,0,0,1,1.34-3.59,5,5,0,0,1,3.11-1.1,5.06,5.06,0,0,1,3.09.93A1.17,1.17,0,0,1,779.93,632.9Z" transform="translate(-32.16 -67.94)"/><path class="cls-1" d="M761.14,647.28a3.67,3.67,0,0,1-1.65,3.17,7.32,7.32,0,0,1-7,.47,4,4,0,0,1-1.9-1.74,2.5,2.5,0,0,1-.42-1.14,1,1,0,0,1,.27-.71.94.94,0,0,1,.69-.28,1.13,1.13,0,0,1,1,.7,3.4,3.4,0,0,0,3.42,1.86,4.39,4.39,0,0,0,2.38-.59,1.81,1.81,0,0,0,.92-1.6c0-1-.77-1.7-2.32-2.13l-2.1-.56c-2.55-.68-3.82-2-3.82-4a3.55,3.55,0,0,1,1.43-2.92,5.51,5.51,0,0,1,3.56-1.12,5.15,5.15,0,0,1,4.68,2.27,1.41,1.41,0,0,1,.21,1.26.84.84,0,0,1-.88.53,1.37,1.37,0,0,1-1.09-.7,3.33,3.33,0,0,0-2.92-1.43,3.1,3.1,0,0,0-2,.58,1.83,1.83,0,0,0-.73,1.5c0,1,.76,1.74,2.27,2.13l1.8.45a7.8,7.8,0,0,1,3.17,1.53A3.14,3.14,0,0,1,761.14,647.28Z" transform="translate(-32.16 -67.94)"/><path class="cls-1" d="M747.49,643v7.43a1.16,1.16,0,0,1-.35.83,1.14,1.14,0,0,1-.83.35,1.1,1.1,0,0,1-.81-.35,1.19,1.19,0,0,1-.34-.83V643a4.27,4.27,0,0,0-1.06-3.13,3.7,3.7,0,0,0-2.75-1.08,4.09,4.09,0,0,0-3.14,1.29,4.8,4.8,0,0,0-1.43,2.72v7.63a1.17,1.17,0,0,1-2.33,0V638a1.17,1.17,0,0,1,2-.83,1.18,1.18,0,0,1,.33.83v2.27a4.1,4.1,0,0,1,1.6-2.24,5.3,5.3,0,0,1,3.64-1.26,5.4,5.4,0,0,1,3.87,1.51A6.24,6.24,0,0,1,747.49,643Z" transform="translate(-32.16 -67.94)"/><path class="cls-1" d="M731.05,640.07a7.11,7.11,0,0,0-2.81-2.56,7.46,7.46,0,0,0-3.35-.8,7,7,0,0,0-2.49.48,8.17,8.17,0,0,0-2.36,1.37,6.63,6.63,0,0,0-1.76,2.37,8.29,8.29,0,0,0,0,6.53,6.5,6.5,0,0,0,1.76,2.36,8.82,8.82,0,0,0,2.35,1.36,7.09,7.09,0,0,0,2.5.47,7.48,7.48,0,0,0,5-2,6.78,6.78,0,0,0,2.3-5.47A7.36,7.36,0,0,0,731.05,640.07Zm-2.71,8.11a4.9,4.9,0,0,1-3.45,1.43,5.06,5.06,0,0,1-3.47-1.43,6,6,0,0,1,0-8,4.94,4.94,0,0,1,3.47-1.45,4.77,4.77,0,0,1,3.45,1.45,5.16,5.16,0,0,1,1.54,4A5.23,5.23,0,0,1,728.34,648.18Z" transform="translate(-32.16 -67.94)"/><path class="cls-1" d="M715.34,638v12.45a1.2,1.2,0,0,1-.34.85,1.08,1.08,0,0,1-.81.35,1.1,1.1,0,0,1-.83-.35,1.17,1.17,0,0,1-.35-.85V638a1.16,1.16,0,0,1,.35-.83,1.14,1.14,0,0,1,.83-.35,1.11,1.11,0,0,1,.81.35A1.19,1.19,0,0,1,715.34,638Z" transform="translate(-32.16 -67.94)"/><path class="cls-1" d="M710.15,649.55a.84.84,0,0,1,.31.67,1.12,1.12,0,0,1-.75,1,4.46,4.46,0,0,1-1.89.35q-2.91,0-2.91-3.17v-9.62h-1.24a.8.8,0,0,1-.87-.46,1.19,1.19,0,0,1,0-1,.76.76,0,0,1,.87-.43h1.24v-2.41a1.08,1.08,0,0,1,.35-.82,1.16,1.16,0,0,1,.82-.33,1.13,1.13,0,0,1,1.15,1.15v2.41h2.25a1,1,0,0,1,.7.26,1,1,0,0,1,0,1.4,1,1,0,0,1-.7.27h-2.25v9.53c0,.83.36,1.24,1.07,1.24.11,0,.48-.06,1.09-.17A.81.81,0,0,1,710.15,649.55Z" transform="translate(-32.16 -67.94)"/><path class="cls-1" d="M700.11,637.14a1.12,1.12,0,0,0-.84-.35,1.08,1.08,0,0,0-.81.35,1.15,1.15,0,0,0-.34.83v1.68a5,5,0,0,0-2-2.14,5.73,5.73,0,0,0-3-.8,6.83,6.83,0,0,0-4.76,2,8.09,8.09,0,0,0,0,11,6.83,6.83,0,0,0,4.76,2,5.63,5.63,0,0,0,3.16-.92,4.44,4.44,0,0,0,1.83-2.3v2a1.14,1.14,0,0,0,.35.82,1.09,1.09,0,0,0,.8.35,1.12,1.12,0,0,0,.83-.35,1.14,1.14,0,0,0,.35-.82V638A1.15,1.15,0,0,0,700.11,637.14Zm-3.33,11.06a4.71,4.71,0,0,1-3.31,1.41,4.87,4.87,0,0,1-3.42-1.43,6.14,6.14,0,0,1,0-8,4.83,4.83,0,0,1,3.42-1.43,4.65,4.65,0,0,1,3.31,1.4,5.3,5.3,0,0,1,1.45,4A5.39,5.39,0,0,1,696.78,648.2Z" transform="translate(-32.16 -67.94)"/><path class="cls-1" d="M685.42,637.86a3.33,3.33,0,0,1-.14.53l-5.35,12.22a1.27,1.27,0,0,1-1.18.9,1.24,1.24,0,0,1-1.15-.9l-5.38-12.22a1.43,1.43,0,0,1-.11-.53,1,1,0,0,1,.32-.74,1,1,0,0,1,.77-.33,1.13,1.13,0,0,1,1.09.79l4.46,10.54,4.49-10.54a1.12,1.12,0,0,1,1.09-.79,1,1,0,0,1,.77.33A1,1,0,0,1,685.42,637.86Z" transform="translate(-32.16 -67.94)"/><path class="cls-1" d="M670.13,640.07a7.11,7.11,0,0,0-2.81-2.56,7.46,7.46,0,0,0-3.35-.8,7,7,0,0,0-2.49.48,8.17,8.17,0,0,0-2.36,1.37,6.63,6.63,0,0,0-1.76,2.37,8.29,8.29,0,0,0,0,6.53,6.5,6.5,0,0,0,1.76,2.36,8.82,8.82,0,0,0,2.35,1.36,7.09,7.09,0,0,0,2.5.47,7.48,7.48,0,0,0,5-2,6.78,6.78,0,0,0,2.3-5.47A7.36,7.36,0,0,0,670.13,640.07Zm-2.71,8.11a4.9,4.9,0,0,1-3.45,1.43,5.06,5.06,0,0,1-3.47-1.43,6,6,0,0,1,0-8,4.94,4.94,0,0,1,3.47-1.45,4.77,4.77,0,0,1,3.45,1.45,5.16,5.16,0,0,1,1.54,4A5.23,5.23,0,0,1,667.42,648.18Z" transform="translate(-32.16 -67.94)"/><path class="cls-1" d="M653.88,643v7.43a1.12,1.12,0,0,1-.35.83,1.14,1.14,0,0,1-.82.35,1.12,1.12,0,0,1-.82-.35,1.18,1.18,0,0,1-.33-.83V643a4.27,4.27,0,0,0-1.07-3.13,3.7,3.7,0,0,0-2.75-1.08,4.11,4.11,0,0,0-3.14,1.29,4.8,4.8,0,0,0-1.43,2.72v7.63a1.16,1.16,0,0,1-2.32,0V638a1.16,1.16,0,0,1,2-.83,1.18,1.18,0,0,1,.33.83v2.27a4.15,4.15,0,0,1,1.6-2.24,5.31,5.31,0,0,1,3.65-1.26,5.39,5.39,0,0,1,3.86,1.51A6.24,6.24,0,0,1,653.88,643Z" transform="translate(-32.16 -67.94)"/><path class="cls-1" d="M637.48,643v7.43a1.16,1.16,0,0,1-.35.83,1.14,1.14,0,0,1-.82.35,1.12,1.12,0,0,1-.82-.35,1.18,1.18,0,0,1-.33-.83V643a4.27,4.27,0,0,0-1.07-3.13,3.7,3.7,0,0,0-2.75-1.08,4.11,4.11,0,0,0-3.14,1.29,4.8,4.8,0,0,0-1.43,2.72v7.63a1.16,1.16,0,0,1-2.32,0V638a1.16,1.16,0,0,1,2-.83,1.18,1.18,0,0,1,.33.83v2.27a4.15,4.15,0,0,1,1.6-2.24,5.31,5.31,0,0,1,3.65-1.26,5.39,5.39,0,0,1,3.86,1.51A6.24,6.24,0,0,1,637.48,643Z" transform="translate(-32.16 -67.94)"/><path class="cls-1" d="M621.08,632.92v17.44a1.22,1.22,0,0,1-.35.87,1.12,1.12,0,0,1-.83.37,1.18,1.18,0,0,1-.88-.37,1.22,1.22,0,0,1-.35-.87V632.92a1.25,1.25,0,0,1,.35-.87,1.18,1.18,0,0,1,.88-.36,1.11,1.11,0,0,1,.83.36A1.25,1.25,0,0,1,621.08,632.92Z" transform="translate(-32.16 -67.94)"/><path class="cls-1" d="M1040.17,532.68q-8-12.13-19.26-17.63a52.08,52.08,0,0,0-23-5.49,48.07,48.07,0,0,0-17.14,3.28,57.21,57.21,0,0,0-16.19,9.44,44.63,44.63,0,0,0-12.14,16.28,56.83,56.83,0,0,0,0,44.89,43.75,43.75,0,0,0,12.14,16.18A59.11,59.11,0,0,0,980.64,609a48,48,0,0,0,17.24,3.27q18.69,0,34.49-13.68,15.8-13.49,15.8-37.57Q1048.17,544.82,1040.17,532.68Zm-18.59,55.68q-10.41,9.82-23.7,9.83-13.1,0-23.89-9.83-10.4-10.22-10.4-27.36T974,533.64q10.59-10,23.89-10,13.49,0,23.7,10,10.59,9.83,10.6,27.36Q1032.18,578.34,1021.58,588.36Z" transform="translate(-32.16 -67.94)"/><path class="cls-1" d="M958.39,483.17a6.91,6.91,0,0,1-2.22,5.2,7.19,7.19,0,0,1-5.1,2.12H917.93V603.2a8.69,8.69,0,0,1-2.41,6.07,7.52,7.52,0,0,1-5.68,2.6,7.74,7.74,0,0,1-5.88-2.6,8.65,8.65,0,0,1-2.41-6.07V490.49H868.22a6.85,6.85,0,0,1-5-2.12,7.08,7.08,0,0,1-2.12-5.2,7.24,7.24,0,0,1,7.13-7.13h82.85a7.19,7.19,0,0,1,5.1,2.12A6.69,6.69,0,0,1,958.39,483.17Z" transform="translate(-32.16 -67.94)"/><path class="cls-1" d="M855.51,522.86q-15-13.31-33.14-13.3-26.4,0-41.42,22.93Q773,544.82,773.05,561q0,24.29,15.22,37.57a52.73,52.73,0,0,0,35.83,13.3q19.46,0,31.21-10.41c2.83-2.44,4.24-4.81,4.24-7.13q0-6-6-6-2.31,0-6.74,2.89a37.92,37.92,0,0,1-46.05-1q-10-8.28-11.18-23.51l70.91.39q10.2,0,10.21-9.06Q870.73,536.15,855.51,522.86Zm-65.9,32q1.17-15,11-23.12a33.39,33.39,0,0,1,21.77-8.09,32.91,32.91,0,0,1,21.77,8.09q9.83,8.09,11,23.12Z" transform="translate(-32.16 -67.94)"/><path class="cls-1" d="M725.27,536.73q20.22-6.75,20.22-27.17,0-15.6-11.36-24.56t-31-9H669.39a8.55,8.55,0,0,0-8.86,8.86V602a8.55,8.55,0,0,0,8.86,8.86h34.68q23.89,0,36.8-10.11t12.91-28.23Q753.78,545.59,725.27,536.73ZM676.91,490.1h26.2q12.72,0,19.55,5.59t6.84,15.61q0,20.22-26.39,20.22h-26.2Zm27.16,106.74H676.91V544.63h27.16q16.57,0,25.14,7.13t8.58,19.84Q737.79,596.84,704.07,596.84Z" transform="translate(-32.16 -67.94)"/><path class="cls-1" d="M633.56,483.55V603.39a8.34,8.34,0,0,1-2.41,6,7.64,7.64,0,0,1-5.68,2.51,8,8,0,0,1-6.07-2.51,8.3,8.3,0,0,1-2.41-6V483.55a8.3,8.3,0,0,1,2.41-6,8,8,0,0,1,6.07-2.51,7.64,7.64,0,0,1,5.68,2.51A8.34,8.34,0,0,1,633.56,483.55Z" transform="translate(-32.16 -67.94)"/><path class="cls-1" d="M542.83,406.16h0q-3.11,6.84-6.42,13.61c-.15.31-.3.63-.47,1A702.12,702.12,0,0,1,488,501.6a617,617,0,0,1-68,81.23c-3.33,3.34-6.9,6.59-10.66,9.75-3.15,2.49-6.38,4.9-9.41,7.42l-.16.13c-19.36,14.37-41.88,26.19-61.08,34-7.59,2.93-15.23,5.54-22.76,7.87l-1,.29A277.45,277.45,0,0,1,283,649a248.7,248.7,0,0,1-40.47,2.63c-1.12,0-2.24,0-3.39-.08l-1.46,0-1.77-.08c-1.53-.07-3-.15-4.58-.25L229,651l-4.48-.36-1.46-.13-.19,0q-11.33-1.1-22.42-3.22l-1-.2-3.29-.71h-.08l-.33-.08-1.19-.25-3.81-.82c-56.88-13.16-124.32-60-145.38-95.08C33.33,530,27.53,505.78,36.56,482.27c9.55-24.86,31.84-38.92,56-45.2,37.93-9.87,82.64-4.91,123,5.75l3.67,1,1.15.32,3.22.91c1.58.45,3.15.92,4.71,1.38l4.17,1.28c2.77.85,5.5,1.74,8.2,2.64h0c-19.44-106.83,16.74-213.66,90.66-286.87,35.94-35.59,116.21-110.28,187.8-93C547.18,77.29,573.73,105,581,143.24,598,232.61,580.26,324,542.83,406.16Z" transform="translate(-32.16 -67.94)"/><path class="cls-1" d="M733.25,364.67c-7.2-2-25.49-5.21-52.48,3.88-44.06,14.84-77.37,46.85-77.37,46.85l-21.16,19.8a.92.92,0,0,1-.66.26.8.8,0,0,0,.69-.49c1.05-2.25,2.23-4.74,3.54-7.42,15.66-19.67,49.34-55.16,96.54-68.17,31.81-8.77,46.38-.89,51.73,3.7A.92.92,0,0,1,733.25,364.67Z" transform="translate(-32.16 -67.94)"/><path class="cls-1" d="M740.76,312.1c-9.43-2.92-35.87-8.17-67.87,10.83-34.78,20.65-47.59,38.86-58.28,54-11.19,15.89-21.73,36-28.8,50.61-1.92,2.4-3.57,4.57-4.94,6.43l0,0c6.81-20.29,22.56-60.15,48.51-87,22.83-23.66,50.46-40,76.09-43.56,16.87-2.38,29.58,2.17,36.08,7.21A.84.84,0,0,1,740.76,312.1Z" transform="translate(-32.16 -67.94)"/><path class="cls-1" d="M483.67,576a269.19,269.19,0,0,1-54.14,32,2.49,2.49,0,0,1-2.65-4.17c28.65-24.44,57.26-60.24,78.74-90.14,19-26.46,41-67.8,60-75.48,8.26-3.32,15,.78,16,9.21C585.38,479.24,524,544.83,483.67,576Z" transform="translate(-32.16 -67.94)"/><path class="cls-2" d="M625.47,475.07a7.64,7.64,0,0,1,5.68,2.51,8.34,8.34,0,0,1,2.41,6V603.39a8.34,8.34,0,0,1-2.41,6,7.64,7.64,0,0,1-5.68,2.51,8,8,0,0,1-6.07-2.51,8.3,8.3,0,0,1-2.41-6V483.55a8.3,8.3,0,0,1,2.41-6A8,8,0,0,1,625.47,475.07Zm99.8,61.66q28.5,8.87,28.51,35.83,0,18.12-12.91,28.23t-36.8,10.11H669.39a8.55,8.55,0,0,1-8.86-8.86V484.9a8.55,8.55,0,0,1,8.86-8.86h33.72q19.65,0,31,9t11.36,24.56Q745.49,530,725.27,536.73ZM703.11,490.1h-26.2v41.42h26.2q26.39,0,26.39-20.22,0-10-6.84-15.61T703.11,490.1Zm-26.2,106.74h27.16q33.72,0,33.72-25.24,0-12.72-8.58-19.84t-25.14-7.13H676.91Zm145.46-87.28q18.11,0,33.14,13.3,15.21,13.29,15.22,35.25,0,9.06-10.21,9.06l-70.91-.39q1.17,15.22,11.18,23.51a37.92,37.92,0,0,0,46.05,1q4.42-2.89,6.74-2.89,6,0,6,6c0,2.32-1.41,4.69-4.24,7.13q-11.74,10.41-31.21,10.41a52.73,52.73,0,0,1-35.83-13.3Q773,585.28,773.05,561q0-16.18,7.9-28.51Q796,509.56,822.37,509.56Zm0,14.07a33.39,33.39,0,0,0-21.77,8.09q-9.83,8.09-11,23.12h65.51q-1.15-15-11-23.12A32.91,32.91,0,0,0,822.37,523.63ZM868.22,476h82.85a7.19,7.19,0,0,1,5.1,2.12,6.69,6.69,0,0,1,2.22,5,6.91,6.91,0,0,1-2.22,5.2,7.19,7.19,0,0,1-5.1,2.12H917.93V603.2a8.69,8.69,0,0,1-2.41,6.07,7.52,7.52,0,0,1-5.68,2.6,7.74,7.74,0,0,1-5.88-2.6,8.65,8.65,0,0,1-2.41-6.07V490.49H868.22a6.85,6.85,0,0,1-5-2.12,7.08,7.08,0,0,1-2.12-5.2,7.24,7.24,0,0,1,7.13-7.13Zm129.66,33.52a52.08,52.08,0,0,1,23,5.49q11.27,5.49,19.26,17.63t8,28.32q0,24.09-15.8,37.57-15.79,13.68-34.49,13.68A48,48,0,0,1,980.64,609a59.11,59.11,0,0,1-16.09-9.35,43.75,43.75,0,0,1-12.14-16.18,56.83,56.83,0,0,1,0-44.89,44.63,44.63,0,0,1,12.14-16.28,57.21,57.21,0,0,1,16.19-9.44A48.07,48.07,0,0,1,997.88,509.56Zm34.3,51.44q0-17.52-10.6-27.36-10.22-10-23.7-10-13.29,0-23.89,10-10.4,10.22-10.4,27.36T974,588.36q10.78,9.82,23.89,9.83,13.29,0,23.7-9.83Q1032.17,578.34,1032.18,561ZM619.9,631.69a1.11,1.11,0,0,1,.83.36,1.25,1.25,0,0,1,.35.87v17.44a1.22,1.22,0,0,1-.35.87,1.12,1.12,0,0,1-.83.37,1.18,1.18,0,0,1-.88-.37,1.22,1.22,0,0,1-.35-.87V632.92a1.25,1.25,0,0,1,.35-.87A1.18,1.18,0,0,1,619.9,631.69Zm12.12,5a5.39,5.39,0,0,1,3.86,1.51,6.24,6.24,0,0,1,1.6,4.74v7.43a1.16,1.16,0,0,1-.35.83,1.14,1.14,0,0,1-.82.35,1.12,1.12,0,0,1-.82-.35,1.18,1.18,0,0,1-.33-.83V643a4.27,4.27,0,0,0-1.07-3.13,3.7,3.7,0,0,0-2.75-1.08,4.11,4.11,0,0,0-3.14,1.29,4.8,4.8,0,0,0-1.43,2.72v7.63a1.16,1.16,0,0,1-2.32,0V638a1.16,1.16,0,0,1,2-.83,1.18,1.18,0,0,1,.33.83v2.27a4.15,4.15,0,0,1,1.6-2.24A5.31,5.31,0,0,1,632,636.74Zm16.4,0a5.39,5.39,0,0,1,3.86,1.51,6.24,6.24,0,0,1,1.6,4.74v7.43a1.12,1.12,0,0,1-.35.83,1.14,1.14,0,0,1-.82.35,1.12,1.12,0,0,1-.82-.35,1.18,1.18,0,0,1-.33-.83V643a4.27,4.27,0,0,0-1.07-3.13,3.7,3.7,0,0,0-2.75-1.08,4.11,4.11,0,0,0-3.14,1.29,4.8,4.8,0,0,0-1.43,2.72v7.63a1.16,1.16,0,0,1-2.32,0V638a1.16,1.16,0,0,1,2-.83,1.18,1.18,0,0,1,.33.83v2.27a4.15,4.15,0,0,1,1.6-2.24A5.31,5.31,0,0,1,648.42,636.74Zm15.55,0a7.46,7.46,0,0,1,3.35.8,7.11,7.11,0,0,1,2.81,2.56,7.36,7.36,0,0,1,1.16,4.12,6.78,6.78,0,0,1-2.3,5.47,7.48,7.48,0,0,1-5,2,7.09,7.09,0,0,1-2.5-.47,8.82,8.82,0,0,1-2.35-1.36,6.5,6.5,0,0,1-1.76-2.36,8.29,8.29,0,0,1,0-6.53,6.63,6.63,0,0,1,1.76-2.37,8.17,8.17,0,0,1,2.36-1.37A7,7,0,0,1,664,636.71Zm5,7.48a5.16,5.16,0,0,0-1.54-4,4.77,4.77,0,0,0-3.45-1.45,4.94,4.94,0,0,0-3.47,1.45,6,6,0,0,0,0,8,5.06,5.06,0,0,0,3.47,1.43,4.9,4.9,0,0,0,3.45-1.43A5.23,5.23,0,0,0,669,644.19Zm15.37-7.4a1,1,0,0,1,.77.33,1,1,0,0,1,.32.74,3.33,3.33,0,0,1-.14.53l-5.35,12.22a1.27,1.27,0,0,1-1.18.9,1.24,1.24,0,0,1-1.15-.9l-5.38-12.22a1.43,1.43,0,0,1-.11-.53,1,1,0,0,1,.32-.74,1,1,0,0,1,.77-.33,1.13,1.13,0,0,1,1.09.79l4.46,10.54,4.49-10.54A1.12,1.12,0,0,1,684.33,636.79Zm8.8-.08a5.73,5.73,0,0,1,3,.8,5,5,0,0,1,2,2.14V638a1.15,1.15,0,0,1,.34-.83,1.08,1.08,0,0,1,.81-.35,1.12,1.12,0,0,1,.84.35,1.15,1.15,0,0,1,.34.83v12.48a1.14,1.14,0,0,1-.35.82,1.12,1.12,0,0,1-.83.35,1.09,1.09,0,0,1-.8-.35,1.14,1.14,0,0,1-.35-.82v-2a4.44,4.44,0,0,1-1.83,2.3,5.63,5.63,0,0,1-3.16.92,6.83,6.83,0,0,1-4.76-2,8.09,8.09,0,0,1,0-11A6.83,6.83,0,0,1,693.13,636.71Zm.34,12.9a4.71,4.71,0,0,0,3.31-1.41,5.39,5.39,0,0,0,1.45-4,5.3,5.3,0,0,0-1.45-4,4.65,4.65,0,0,0-3.31-1.4,4.83,4.83,0,0,0-3.42,1.43,6.14,6.14,0,0,0,0,8A4.87,4.87,0,0,0,693.47,649.61Zm15.92-.2a.81.81,0,0,1,.76.14.84.84,0,0,1,.31.67,1.12,1.12,0,0,1-.75,1,4.46,4.46,0,0,1-1.89.35q-2.91,0-2.91-3.17v-9.62h-1.24a.8.8,0,0,1-.87-.46,1.19,1.19,0,0,1,0-1,.76.76,0,0,1,.87-.43h1.24v-2.41a1.08,1.08,0,0,1,.35-.82,1.16,1.16,0,0,1,.82-.33,1.13,1.13,0,0,1,1.15,1.15v2.41h2.25a1,1,0,0,1,.7.26,1,1,0,0,1,0,1.4,1,1,0,0,1-.7.27h-2.25v9.53c0,.83.36,1.24,1.07,1.24C708.41,649.58,708.78,649.52,709.39,649.41ZM715,633.18a1.13,1.13,0,0,1-.81.33,1.2,1.2,0,0,1-.84-.33,1.16,1.16,0,0,1-.37-.84,1.07,1.07,0,0,1,.37-.82,1.15,1.15,0,0,1,.84-.36,1.23,1.23,0,0,1,1.17,1.18A1.18,1.18,0,0,1,715,633.18Zm.34,4.79v12.45a1.2,1.2,0,0,1-.34.85,1.08,1.08,0,0,1-.81.35,1.1,1.1,0,0,1-.83-.35,1.17,1.17,0,0,1-.35-.85V638a1.16,1.16,0,0,1,.35-.83,1.14,1.14,0,0,1,.83-.35,1.11,1.11,0,0,1,.81.35A1.19,1.19,0,0,1,715.34,638Zm9.55-1.26a7.46,7.46,0,0,1,3.35.8,7.11,7.11,0,0,1,2.81,2.56,7.36,7.36,0,0,1,1.16,4.12,6.78,6.78,0,0,1-2.3,5.47,7.48,7.48,0,0,1-5,2,7.09,7.09,0,0,1-2.5-.47,8.82,8.82,0,0,1-2.35-1.36,6.5,6.5,0,0,1-1.76-2.36,8.29,8.29,0,0,1,0-6.53,6.63,6.63,0,0,1,1.76-2.37,8.17,8.17,0,0,1,2.36-1.37A7,7,0,0,1,724.89,636.71Zm5,7.48a5.16,5.16,0,0,0-1.54-4,4.77,4.77,0,0,0-3.45-1.45,4.94,4.94,0,0,0-3.47,1.45,6,6,0,0,0,0,8,5.06,5.06,0,0,0,3.47,1.43,4.9,4.9,0,0,0,3.45-1.43A5.23,5.23,0,0,0,729.88,644.19ZM742,636.74a5.4,5.4,0,0,1,3.87,1.51,6.24,6.24,0,0,1,1.6,4.74v7.43a1.16,1.16,0,0,1-.35.83,1.14,1.14,0,0,1-.83.35,1.1,1.1,0,0,1-.81-.35,1.19,1.19,0,0,1-.34-.83V643a4.27,4.27,0,0,0-1.06-3.13,3.7,3.7,0,0,0-2.75-1.08,4.09,4.09,0,0,0-3.14,1.29,4.8,4.8,0,0,0-1.43,2.72v7.63a1.17,1.17,0,0,1-2.33,0V638a1.17,1.17,0,0,1,2-.83,1.18,1.18,0,0,1,.33.83v2.27a4.1,4.1,0,0,1,1.6-2.24A5.3,5.3,0,0,1,742,636.74Zm13.57,0a5.15,5.15,0,0,1,4.68,2.27,1.41,1.41,0,0,1,.21,1.26.84.84,0,0,1-.88.53,1.37,1.37,0,0,1-1.09-.7,3.33,3.33,0,0,0-2.92-1.43,3.1,3.1,0,0,0-2,.58,1.83,1.83,0,0,0-.73,1.5c0,1,.76,1.74,2.27,2.13l1.8.45a7.8,7.8,0,0,1,3.17,1.53,3.14,3.14,0,0,1,1,2.45,3.67,3.67,0,0,1-1.65,3.17,7.32,7.32,0,0,1-7,.47,4,4,0,0,1-1.9-1.74,2.5,2.5,0,0,1-.42-1.14,1,1,0,0,1,.27-.71.94.94,0,0,1,.69-.28,1.13,1.13,0,0,1,1,.7,3.4,3.4,0,0,0,3.42,1.86,4.39,4.39,0,0,0,2.38-.59,1.81,1.81,0,0,0,.92-1.6c0-1-.77-1.7-2.32-2.13l-2.1-.56c-2.55-.68-3.82-2-3.82-4a3.55,3.55,0,0,1,1.43-2.92A5.51,5.51,0,0,1,755.59,636.71ZM779.37,632a1.17,1.17,0,0,1,.56.9.92.92,0,0,1-.25.65.83.83,0,0,1-.62.27,2.73,2.73,0,0,1-.93-.31,3.75,3.75,0,0,0-1.62-.42c-1.57,0-2.36.92-2.36,2.75v1h3.25a1,1,0,0,1,.71.26,1,1,0,0,1,0,1.4,1,1,0,0,1-.71.27h-3.25v11.64a1.2,1.2,0,0,1-1.17,1.17,1.07,1.07,0,0,1-.8-.35,1.1,1.1,0,0,1-.35-.82V638.81h-1a.78.78,0,0,1-.86-.46,1.12,1.12,0,0,1,0-1,.74.74,0,0,1,.86-.43h1v-1.12a4.35,4.35,0,0,1,1.34-3.59,5,5,0,0,1,3.11-1.1A5.06,5.06,0,0,1,779.37,632Zm6.33,4.71a7.46,7.46,0,0,1,3.35.8,7.11,7.11,0,0,1,2.81,2.56,7.36,7.36,0,0,1,1.16,4.12,6.81,6.81,0,0,1-2.3,5.47,7.5,7.5,0,0,1-5,2,7.15,7.15,0,0,1-2.51-.47,8.93,8.93,0,0,1-2.34-1.36,6.39,6.39,0,0,1-1.76-2.36,8.18,8.18,0,0,1,0-6.53,6.51,6.51,0,0,1,1.76-2.37,8.17,8.17,0,0,1,2.36-1.37A7,7,0,0,1,785.7,636.71Zm5,7.48a5.16,5.16,0,0,0-1.54-4,4.77,4.77,0,0,0-3.45-1.45,4.9,4.9,0,0,0-3.47,1.45,6,6,0,0,0,0,8,5,5,0,0,0,3.47,1.43,4.9,4.9,0,0,0,3.45-1.43A5.23,5.23,0,0,0,790.69,644.19Zm11.86-7.45a1.31,1.31,0,0,1,.93.31,1,1,0,0,1,.33.78,1,1,0,0,1-.39.81,1.74,1.74,0,0,1-1.12.31,4.49,4.49,0,0,0-3.2,1.21,4.29,4.29,0,0,0-1.51,2.63v7.63a1.15,1.15,0,0,1-.34.83,1.08,1.08,0,0,1-.81.35,1.2,1.2,0,0,1-1.18-1.18V638a1.2,1.2,0,0,1,1.18-1.18,1.08,1.08,0,0,1,.81.35,1.15,1.15,0,0,1,.34.83v2.27a4.42,4.42,0,0,1,1.57-2.24A4.84,4.84,0,0,1,802.55,636.74Zm16.49,0a5.69,5.69,0,0,1,3,.8,4.93,4.93,0,0,1,2,2.14V638a1.18,1.18,0,0,1,.33-.83,1.12,1.12,0,0,1,.82-.35,1.15,1.15,0,0,1,.84.35,1.18,1.18,0,0,1,.33.83v12.48a1.2,1.2,0,0,1-1.17,1.17,1.07,1.07,0,0,1-.8-.35,1.1,1.1,0,0,1-.35-.82v-2a4.42,4.42,0,0,1-1.84,2.3,5.6,5.6,0,0,1-3.15.92,6.87,6.87,0,0,1-4.77-2,8.11,8.11,0,0,1,0-11A6.87,6.87,0,0,1,819,636.71Zm.33,12.9a4.69,4.69,0,0,0,3.31-1.41,5.4,5.4,0,0,0,1.46-4,5.3,5.3,0,0,0-1.46-4,4.61,4.61,0,0,0-3.31-1.4,4.83,4.83,0,0,0-3.42,1.43,6.17,6.17,0,0,0,0,8A4.87,4.87,0,0,0,819.37,649.61Zm26.94-9q4.16,1.29,4.15,5.22a4.92,4.92,0,0,1-1.87,4.1,8.55,8.55,0,0,1-5.36,1.48h-5.05a1.26,1.26,0,0,1-1.29-1.29v-17a1.3,1.3,0,0,1,.37-.93,1.25,1.25,0,0,1,.92-.36h4.91a7.08,7.08,0,0,1,4.51,1.3,4.29,4.29,0,0,1,1.66,3.58A3.86,3.86,0,0,1,846.31,640.66Zm-3.22-6.78h-3.81v6h3.81q3.84,0,3.84-2.94a2.77,2.77,0,0,0-1-2.27A4.44,4.44,0,0,0,843.09,633.88Zm-3.81,15.53h4c3.27,0,4.91-1.23,4.91-3.67a3.55,3.55,0,0,0-1.25-2.89,5.6,5.6,0,0,0-3.66-1h-4Zm20.6-12.7a7.13,7.13,0,0,1,4.83,1.93,6.49,6.49,0,0,1,2.21,5.13c0,.88-.49,1.32-1.48,1.32L855.12,645a4.69,4.69,0,0,0,1.62,3.42,5.29,5.29,0,0,0,3.45,1.2,5.19,5.19,0,0,0,3.25-1.06,2.09,2.09,0,0,1,1-.42.75.75,0,0,1,.86.86,1.43,1.43,0,0,1-.61,1,6.61,6.61,0,0,1-4.54,1.52,7.7,7.7,0,0,1-5.22-1.94,6.89,6.89,0,0,1-2.21-5.47,7.5,7.5,0,0,1,1.15-4.15A6.83,6.83,0,0,1,859.88,636.71Zm0,2a4.87,4.87,0,0,0-3.16,1.17,4.58,4.58,0,0,0-1.6,3.37h9.53a4.58,4.58,0,0,0-1.6-3.37A4.8,4.8,0,0,0,859.88,638.76Zm14.78,10.65a.81.81,0,0,1,.76.14.83.83,0,0,1,.3.67,1.11,1.11,0,0,1-.74,1,4.46,4.46,0,0,1-1.89.35c-1.94,0-2.92-1.06-2.92-3.17v-9.62h-1.23a.8.8,0,0,1-.87-.46,1.12,1.12,0,0,1,0-1,.76.76,0,0,1,.87-.43h1.23v-2.41a1.12,1.12,0,0,1,.35-.82,1.18,1.18,0,0,1,.83-.33,1.14,1.14,0,0,1,1.15,1.15v2.41h2.24a1,1,0,0,1,.7.26,1,1,0,0,1,0,1.4,1,1,0,0,1-.7.27H872.5v9.53c0,.83.36,1.24,1.07,1.24C873.68,649.58,874,649.52,874.66,649.41Zm9.17,0a.79.79,0,0,1,.75.14.81.81,0,0,1,.31.67,1.12,1.12,0,0,1-.74,1,4.52,4.52,0,0,1-1.89.35q-2.93,0-2.92-3.17v-9.62h-1.23a.8.8,0,0,1-.87-.46,1.12,1.12,0,0,1,0-1,.76.76,0,0,1,.87-.43h1.23v-2.41a1.12,1.12,0,0,1,.35-.82,1.16,1.16,0,0,1,.83-.33,1.14,1.14,0,0,1,1.15,1.15v2.41h2.24a1,1,0,0,1,.7.26,1,1,0,0,1,0,1.4,1,1,0,0,1-.7.27h-2.24v9.53c0,.83.35,1.24,1.06,1.24C882.84,649.58,883.21,649.52,883.83,649.41Zm9.64-12.7a7.1,7.1,0,0,1,4.82,1.93,6.47,6.47,0,0,1,2.22,5.13c0,.88-.5,1.32-1.49,1.32L888.7,645a4.74,4.74,0,0,0,1.63,3.42,5.54,5.54,0,0,0,6.7.14,2.11,2.11,0,0,1,1-.42.76.76,0,0,1,.87.86,1.42,1.42,0,0,1-.62,1,6.59,6.59,0,0,1-4.54,1.52,7.65,7.65,0,0,1-5.21-1.94,6.86,6.86,0,0,1-2.22-5.47,7.59,7.59,0,0,1,1.15-4.15A6.85,6.85,0,0,1,893.47,636.71Zm0,2a4.9,4.9,0,0,0-3.17,1.17,4.66,4.66,0,0,0-1.6,3.37h9.54a4.66,4.66,0,0,0-1.6-3.37A4.82,4.82,0,0,0,893.47,638.76Zm16.57-2a1.32,1.32,0,0,1,.93.31,1,1,0,0,1,.33.78,1,1,0,0,1-.39.81,1.76,1.76,0,0,1-1.12.31,4.49,4.49,0,0,0-3.2,1.21,4.24,4.24,0,0,0-1.51,2.63v7.63a1.15,1.15,0,0,1-.34.83,1.08,1.08,0,0,1-.81.35,1.14,1.14,0,0,1-.83-.35,1.16,1.16,0,0,1-.35-.83V638a1.16,1.16,0,0,1,.35-.83,1.14,1.14,0,0,1,.83-.35,1.08,1.08,0,0,1,.81.35,1.15,1.15,0,0,1,.34.83v2.27a4.35,4.35,0,0,1,1.57-2.24A4.81,4.81,0,0,1,910,636.74Zm10.34-4.91h12.06a1,1,0,0,1,.74.31,1,1,0,0,1,.32.73,1,1,0,0,1-.32.75,1,1,0,0,1-.74.31h-4.82v16.4a1.3,1.3,0,0,1-.35.89,1.11,1.11,0,0,1-.83.38,1.15,1.15,0,0,1-.86-.38,1.3,1.3,0,0,1-.35-.89v-16.4h-4.85a1,1,0,0,1-.72-.31,1,1,0,0,1-.31-.75,1,1,0,0,1,.31-.73A1,1,0,0,1,920.38,631.83Zm17.75,4.88a7.46,7.46,0,0,1,3.35.8,7.09,7.09,0,0,1,2.8,2.56,7.29,7.29,0,0,1,1.17,4.12,6.81,6.81,0,0,1-2.3,5.47,7.5,7.5,0,0,1-5,2,7.15,7.15,0,0,1-2.51-.47,8.93,8.93,0,0,1-2.34-1.36,6.41,6.41,0,0,1-1.77-2.36,8.29,8.29,0,0,1,0-6.53,6.53,6.53,0,0,1,1.77-2.37,8.12,8.12,0,0,1,2.35-1.37A7.05,7.05,0,0,1,938.13,636.71Zm5,7.48a5.16,5.16,0,0,0-1.54-4,4.77,4.77,0,0,0-3.45-1.45,4.94,4.94,0,0,0-3.48,1.45,6,6,0,0,0,0,8,5.08,5.08,0,0,0,3.48,1.43,4.9,4.9,0,0,0,3.45-1.43A5.23,5.23,0,0,0,943.12,644.19Zm22.82-7.45a5.43,5.43,0,0,1,3.87,1.51,6.24,6.24,0,0,1,1.6,4.74v7.43a1.15,1.15,0,0,1-.34.83,1.08,1.08,0,0,1-.81.35,1.14,1.14,0,0,1-.83-.35,1.16,1.16,0,0,1-.35-.83V643a4.31,4.31,0,0,0-1.05-3.13,3.64,3.64,0,0,0-2.73-1.08,4.09,4.09,0,0,0-3.14,1.29,4.74,4.74,0,0,0-1.43,2.72v7.63a1.2,1.2,0,0,1-1.18,1.18,1.08,1.08,0,0,1-.81-.35,1.15,1.15,0,0,1-.34-.83V643a4.27,4.27,0,0,0-1.07-3.13,3.68,3.68,0,0,0-2.74-1.08,4.09,4.09,0,0,0-3.14,1.29,4.74,4.74,0,0,0-1.43,2.72v7.63a1.16,1.16,0,0,1-.35.83,1.13,1.13,0,0,1-.8.35,1.14,1.14,0,0,1-.83-.35,1.16,1.16,0,0,1-.35-.83V638a1.16,1.16,0,0,1,.35-.83,1.14,1.14,0,0,1,.83-.35,1.08,1.08,0,0,1,.81.35,1.19,1.19,0,0,1,.34.83v2.27a4.07,4.07,0,0,1,1.59-2.24,5.33,5.33,0,0,1,3.65-1.26,5.59,5.59,0,0,1,3.17.92,5,5,0,0,1,1.93,2.72,6.47,6.47,0,0,1,2.19-2.62A5.76,5.76,0,0,1,965.94,636.74Zm15,0a7.46,7.46,0,0,1,3.35.8,7.09,7.09,0,0,1,2.8,2.56,7.29,7.29,0,0,1,1.17,4.12,6.81,6.81,0,0,1-2.3,5.47,7.52,7.52,0,0,1-5,2,7.15,7.15,0,0,1-2.51-.47,8.93,8.93,0,0,1-2.34-1.36,6.41,6.41,0,0,1-1.77-2.36,8.29,8.29,0,0,1,0-6.53,6.53,6.53,0,0,1,1.77-2.37,8.12,8.12,0,0,1,2.35-1.37A7.05,7.05,0,0,1,980.94,636.71Zm5,7.48a5.2,5.2,0,0,0-1.54-4,4.77,4.77,0,0,0-3.45-1.45,4.94,4.94,0,0,0-3.48,1.45,6,6,0,0,0,0,8,5.08,5.08,0,0,0,3.48,1.43,4.9,4.9,0,0,0,3.45-1.43A5.26,5.26,0,0,0,985.93,644.19Zm11.86-7.45a1.28,1.28,0,0,1,.92.31,1,1,0,0,1,.34.78,1,1,0,0,1-.39.81,1.76,1.76,0,0,1-1.12.31,4.49,4.49,0,0,0-3.2,1.21,4.24,4.24,0,0,0-1.51,2.63v7.63a1.15,1.15,0,0,1-.34.83,1.08,1.08,0,0,1-.81.35,1.14,1.14,0,0,1-.83-.35,1.16,1.16,0,0,1-.35-.83V638a1.16,1.16,0,0,1,.35-.83,1.14,1.14,0,0,1,.83-.35,1.08,1.08,0,0,1,.81.35,1.15,1.15,0,0,1,.34.83v2.27A4.35,4.35,0,0,1,994.4,638,4.81,4.81,0,0,1,997.79,636.74Zm11.07,0a1.31,1.31,0,0,1,.93.31,1,1,0,0,1,.34.78,1,1,0,0,1-.4.81,1.74,1.74,0,0,1-1.12.31,4.45,4.45,0,0,0-3.19,1.21,4.26,4.26,0,0,0-1.52,2.63v7.63a1.18,1.18,0,0,1-.33.83,1.12,1.12,0,0,1-.82.35,1.2,1.2,0,0,1-1.18-1.18V638a1.2,1.2,0,0,1,1.18-1.18,1.12,1.12,0,0,1,.82.35,1.18,1.18,0,0,1,.33.83v2.27a4.42,4.42,0,0,1,1.57-2.24A4.84,4.84,0,0,1,1008.86,636.74Zm9.06,0a7.5,7.5,0,0,1,3.35.8,7.09,7.09,0,0,1,2.8,2.56,7.29,7.29,0,0,1,1.17,4.12,6.81,6.81,0,0,1-2.3,5.47,7.52,7.52,0,0,1-5,2,7.15,7.15,0,0,1-2.51-.47,8.93,8.93,0,0,1-2.34-1.36,6.41,6.41,0,0,1-1.77-2.36,8.29,8.29,0,0,1,0-6.53,6.53,6.53,0,0,1,1.77-2.37,8.12,8.12,0,0,1,2.35-1.37A7,7,0,0,1,1017.92,636.71Zm5,7.48a5.2,5.2,0,0,0-1.54-4,4.77,4.77,0,0,0-3.45-1.45,4.94,4.94,0,0,0-3.48,1.45,6,6,0,0,0,0,8,5.08,5.08,0,0,0,3.48,1.43,4.9,4.9,0,0,0,3.45-1.43A5.26,5.26,0,0,0,1022.91,644.19Zm23.3-7.4a1.08,1.08,0,0,1,.78.33,1,1,0,0,1,.34.77s0,.19-.14.53L1043,650.61a1.13,1.13,0,0,1-1.1.9,1.24,1.24,0,0,1-1.12-.9l-4.15-10.31-4.12,10.31c-.26.6-.63.9-1.12.9a1.12,1.12,0,0,1-1.09-.9l-4.15-12.19a5.29,5.29,0,0,1-.14-.53,1.06,1.06,0,0,1,.32-.77,1,1,0,0,1,.77-.33,1,1,0,0,1,1,.65l3.39,10.51,4-10.43a1.08,1.08,0,0,1,1.06-.73,1.12,1.12,0,0,1,1.1.73l4,10.43,3.4-10.51A1,1,0,0,1,1046.21,636.79Z" transform="translate(-32.16 -67.94)"/><path class="cls-3" d="M316,642a269.37,269.37,0,0,1-33,7,245.73,245.73,0,0,1-54,2c-20.28-1.56-25-3-38.23-5.8-56.88-13.16-124.32-60-145.38-95.08C33.33,530,27.53,505.78,36.56,482.27c9.55-24.86,31.84-38.92,56-45.2,46-12,102-2.12,148.07,13.27C276.22,461.5,345,472,391,470c90.71-3.94,152-64,152-64S496,512,416,587c-4.95,4.64-10.78,8.65-16,13C376.55,619.54,345.4,632.89,316,642Z" transform="translate(-32.16 -67.94)"/><path class="cls-4" d="M277.1,554.57A71.84,71.84,0,0,1,194.34,646a.58.58,0,0,0-.19,0l-1-.23a49.87,49.87,0,0,0,28.78-2.61c36.77-14.87,55.44-54.31,29.17-107.45a.34.34,0,0,1-.12-.18c-7.33-13.79-15-24.09-27.14-50.75-5.27-11.58-16.19-41.22-17-44.12,11.64,2.78,23,6.1,33.79,9.71A326.19,326.19,0,0,0,271.37,541a.87.87,0,0,0,.1.19C271.89,542,275.93,550.76,277.1,554.57Z" transform="translate(-32.16 -67.94)"/><path class="cls-5" d="M581,143.24c30.82,162.25-52.7,331-160.93,439.59-27.52,27.6-71.5,49.28-99.31,57.78A250.1,250.1,0,0,1,194.37,646a71.84,71.84,0,0,0,82.76-91.44,135.84,135.84,0,0,0-5.63-13.41.55.55,0,0,1-.09-.19,325.28,325.28,0,0,1-30.75-90.62c-19.44-106.84,16.74-213.68,90.66-286.89,35.94-35.59,116.21-110.28,187.8-93C547.18,77.29,573.73,105,581,143.24Z" transform="translate(-32.16 -67.94)"/><path class="cls-6" d="M740.76,312.1c-9.43-2.92-35.87-8.17-67.87,10.83-34.78,20.65-47.59,38.86-58.28,54-11.19,15.89-21.72,36-28.8,50.61,15.67-19.67,49.33-55.16,96.54-68.17,31.81-8.77,46.38-.89,51.73,3.7a.92.92,0,0,1-.83,1.59c-7.2-2-25.49-5.21-52.48,3.88-44.06,14.84-77.37,46.85-77.37,46.85l-21.16,19.8a.88.88,0,0,1-.69.25.83.83,0,0,1-.86-.81.81.81,0,0,1,.13-.55c6.79-20.27,22.55-60.19,48.53-87.1,22.83-23.66,50.46-40,76.09-43.57,16.87-2.37,29.58,2.18,36.08,7.22A.84.84,0,0,1,740.76,312.1ZM581.66,447.47c3.72,31.77-57.63,97.36-98,128.55a269.19,269.19,0,0,1-54.14,32,2.49,2.49,0,0,1-2.65-4.17c28.65-24.44,57.26-60.24,78.74-90.14,19-26.46,41-67.8,60-75.48C573.91,434.94,580.67,439,581.66,447.47Z" transform="translate(-32.16 -67.94)"/></svg>