<svg width="771" height="318" viewBox="0 0 771 318" fill="none" xmlns="http://www.w3.org/2000/svg">
<path d="M227.2 26.2C230.07 26.2 232.4 23.917 232.4 21.1C232.4 18.283 230.07 16 227.2 16C224.33 16 222 18.283 222 21.1C222 23.917 224.33 26.2 227.2 26.2Z" fill="#833561"/>
<path d="M7.80002 128C11.887 128 15.2 124.776 15.2 120.8C15.2 116.824 11.887 113.6 7.80002 113.6C3.71302 113.6 0.400024 116.824 0.400024 120.8C0.400024 124.776 3.71302 128 7.80002 128Z" fill="#EC615B"/>
<path d="M763.6 291.5C767.69 291.5 771 288.276 771 284.3C771 280.324 767.69 277.1 763.6 277.1C759.51 277.1 756.2 280.324 756.2 284.3C756.2 288.276 759.51 291.5 763.6 291.5Z" fill="#EC615B"/>
<path d="M17.4979 272.265C20.6979 268.365 26.1979 269.665 27.7979 274.165C28.7979 276.865 28.6979 279.165 31.1979 281.065C35.6979 284.465 41.6979 281.865 46.4979 280.865C58.9979 278.365 54.8979 290.865 61.9979 295.765C65.0979 297.965 69.7979 297.365 71.3979 293.765C72.1979 292.065 69.5979 290.465 68.7979 292.265C66.1979 298.065 61.3979 290.565 60.5979 288.265C60.0979 286.865 59.7979 285.465 59.1979 284.165C58.2979 282.065 57.0979 280.065 55.0979 278.765C49.4979 275.265 43.2979 279.565 37.5979 279.665C31.4979 279.865 32.0979 275.665 29.9979 271.565C29.0979 269.765 27.5979 268.465 25.6979 267.665C21.9979 266.265 17.7979 267.065 15.3979 270.165C14.0979 271.665 16.2979 273.765 17.4979 272.265Z" fill="#EC615B"/>
<path d="M28.1979 300.565C34.4979 293.765 43.5979 296.965 47.2979 304.365C49.5979 308.965 51.1979 313.965 56.1979 316.265C63.7979 319.765 73.6979 315.865 76.2979 307.965C76.8979 306.165 73.9979 305.365 73.3979 307.165C71.4979 312.965 64.4979 315.765 58.8979 314.065C51.9979 312.065 51.4979 304.165 47.6979 299.165C42.4979 292.265 31.8979 292.165 26.0979 298.465C24.7979 299.865 26.8979 301.965 28.1979 300.565Z" fill="#EC615B"/>
<path d="M135 2.09999C136.2 13.8 136.4 25.6 135.7 37.3C135.6 39.2 138.6 39.2 138.7 37.3C139.4 25.5 139.1 13.8 138 2.09999C137.8 0.199988 134.8 0.199988 135 2.09999Z" fill="#5222D0"/>
<path d="M487.3 162.1C496 163.9 504.4 166.4 512.6 169.7C514.4 170.4 515.2 167.5 513.4 166.8C505.2 163.5 496.8 161 488.1 159.2C486.2 158.8 485.4 161.7 487.3 162.1Z" fill="#EC615B"/>
<path d="M269.3 85C272.4 71 279.5 58.5 289.7 48.4C291.1 47 289 44.9 287.6 46.3C277 56.7 269.6 69.7 266.4 84.2C265.9 86.1 268.8 86.9 269.3 85Z" fill="#EC615B"/>
<path d="M261.2 286C264.9 295.6 265.3 305.6 262.5 315.5C262 317.4 264.9 318.2 265.4 316.3C268.4 305.9 267.9 295.3 264.1 285.2C263.4 283.4 260.5 284.2 261.2 286Z" fill="#833561"/>
<path d="M286.8 289.3C292.1 295.7 298.7 300.9 306.1 304.6C307.8 305.5 309.3 302.9 307.6 302C300.3 298.4 294 293.4 288.9 287.1C287.7 285.7 285.6 287.8 286.8 289.3Z" fill="#5222D0"/>
<path d="M573.358 259.616C577.058 263.816 580.658 267.916 584.358 272.116C585.658 273.616 587.758 271.416 586.458 270.016C582.758 265.816 579.158 261.716 575.458 257.516C574.258 256.016 572.158 258.116 573.358 259.616Z" fill="#5222D0"/>
<path d="M492.7 300.8C499.6 288.7 508.7 278.2 519.8 269.8C521.3 268.6 519.8 266 518.3 267.2C506.8 276 497.3 286.7 490.1 299.3C489.2 301 491.8 302.5 492.7 300.8Z" fill="#833561"/>
<path d="M144.6 184.2C146 191.5 147.7 199.2 149.9 207.2C157.2 233.3 167.6 255.1 177.9 272.5C180.9 273.2 185.2 274.2 190.5 274.8C197.8 275.7 209.6 277.2 222.9 273.4C226.1 272.5 224.7 272.6 238.8 266.8C252.9 261 253.7 261.2 259.1 258.8C268.3 254.8 276.6 249 292.9 237.7C297.6 234.4 304.1 229.8 311.7 224.1C312.2 220.9 312.8 216.2 312.7 210.5C312.5 201.5 310.6 195 307.9 185.6C303.6 170.9 300.6 160.9 298.7 154.6C294.9 152.2 290.8 149.8 286.1 147.6C270.6 140.1 255.9 137.1 244.6 135.9C233 136.8 223.8 138.9 217.6 140.6C190.4 148.1 171.7 162.2 160.1 171.1C153.2 176.3 147.9 181 144.6 184.2Z" fill="white"/>
<path d="M567.2 147.5C559.2 156.1 550.7 166.4 542.6 178.5C538.6 184.5 535.1 190.3 532 195.9C538.1 205 544.2 214.1 550.4 223.1C564.1 228.4 577.8 233.7 591.5 239.1C604.5 225.5 617.6 211.9 630.6 198.2C627.2 187.2 623.8 176.3 620.5 165.3C613.8 161.9 606.1 158.5 597.3 155.4C586.1 151.6 576 149.1 567.2 147.5Z" fill="white"/>
<path d="M143.6 185.1C147 217.3 161.2 246.6 176.6 274.7C177.5 276.4 180.1 274.9 179.2 273.2C164.1 245.7 149.9 216.8 146.6 185.1C146.4 183.2 143.4 183.1 143.6 185.1Z" fill="#161616"/>
<path d="M146.4 185.9C170.9 159.2 204.5 141.9 240.4 137.2C242.3 137 242.3 134 240.4 134.2C203.7 139 169.3 156.4 144.2 183.7C143 185.2 145.1 187.3 146.4 185.9Z" fill="#161616"/>
<path d="M240.6 136.8C256.9 161.3 264.5 189.8 271.8 217.9C272.3 219.8 275.2 219 274.7 217.1C267.3 188.7 259.6 160 243.2 135.3C242.1 133.7 239.5 135.2 240.6 136.8Z" fill="#161616"/>
<path d="M180.1 274.6C198.4 269.1 216 261.8 232.8 252.7C241.1 248.2 249.1 243.2 256.9 237.8C263.9 233 271.2 228 275 220.2C275.9 218.5 273.3 217 272.4 218.7C268.3 227 259.9 232.2 252.5 237.2C245.2 242.1 237.6 246.7 229.8 250.9C213.7 259.5 196.8 266.4 179.4 271.7C177.5 272.3 178.3 275.2 180.1 274.6Z" fill="#161616"/>
<path d="M242.2 137C262 137.8 281 144.4 297 156.2C298.6 157.3 300.1 154.7 298.5 153.6C282.1 141.5 262.6 134.8 242.2 134C240.3 133.9 240.3 136.9 242.2 137Z" fill="#161616"/>
<path d="M296.8 154.9C305.9 175.8 310.7 198.2 310.8 221.1C310.8 223 313.8 223 313.8 221.1C313.6 197.7 308.7 174.8 299.3 153.4C298.6 151.6 296.1 153.1 296.8 154.9Z" fill="#161616"/>
<path d="M273.1 220.5C285.5 228.5 300.2 226.3 313.7 222.7C315.6 222.2 314.8 219.3 312.9 219.8C300.2 223.2 286.4 225.4 274.7 217.9C273 216.9 271.5 219.5 273.1 220.5Z" fill="#161616"/>
<path d="M178.5 275.1C196.3 279.1 214.8 277.8 231.8 271.1C233.6 270.4 232.8 267.5 231 268.2C214.5 274.7 196.6 276.2 179.3 272.2C177.4 271.8 176.6 274.7 178.5 275.1Z" fill="#161616"/>
<path d="M232.6 270.9C262.3 259.7 289.9 243.6 314.1 223C315.6 221.7 313.4 219.6 312 220.9C288.2 241.1 261.1 257 231.9 268C230 268.7 230.8 271.6 232.6 270.9Z" fill="#161616"/>
<path d="M564.9 147.2C552.2 162.2 540.6 178.1 530.2 194.7C529.2 196.3 531.8 197.8 532.8 196.2C543.1 179.8 554.6 164.1 567 149.3C568.3 147.9 566.2 145.7 564.9 147.2Z" fill="#161616"/>
<path d="M566.3 149.8C584.3 152.7 601.6 158.4 617.7 166.7C619.4 167.6 620.9 165 619.2 164.1C602.8 155.6 585.3 149.9 567 146.9C565.2 146.6 564.4 149.5 566.3 149.8Z" fill="#161616"/>
<path d="M530.3 197.9C545.9 205 561.3 212.4 576.6 220.2C578.3 221.1 579.8 218.5 578.1 217.6C562.8 209.9 547.4 202.5 531.8 195.3C530 194.5 528.5 197.1 530.3 197.9Z" fill="#161616"/>
<path d="M618.5 165.3C605.1 183.2 592.1 201.4 579.5 219.9C580.2 219.7 580.9 219.5 581.6 219.4C580.5 218.8 579.4 218.1 578.2 217.5C576.5 216.5 575 219.1 576.7 220.1C577.8 220.7 578.9 221.4 580.1 222C580.8 222.4 581.7 222.1 582.2 221.5C594.7 203 607.7 184.7 621.2 166.9C622.2 165.3 619.6 163.8 618.5 165.3Z" fill="#161616"/>
<path d="M618.2 167C622.7 177.5 626 188.3 628.2 199.5C628.6 201.4 631.5 200.6 631.1 198.7C628.9 187.3 625.4 176.2 620.8 165.5C620.1 163.8 617.5 165.3 618.2 167Z" fill="#161616"/>
<path d="M580.5 222.2C584.4 227.4 587.8 232.8 590.8 238.6C591.7 240.3 594.3 238.8 593.4 237.1C590.4 231.3 587 225.9 583.1 220.7C582 219.2 579.4 220.7 580.5 222.2Z" fill="#161616"/>
<path d="M593.4 238.4C606.4 226.4 618.6 213.8 630.2 200.5C631.5 199 629.3 196.9 628.1 198.4C616.5 211.7 604.3 224.4 591.3 236.3C589.9 237.6 592 239.7 593.4 238.4Z" fill="#161616"/>
<path d="M530.6 198.7C537 207 543.4 215.4 549.8 223.7C551 225.2 553.6 223.7 552.4 222.2C546 213.9 539.6 205.5 533.2 197.2C532 195.7 529.4 197.1 530.6 198.7Z" fill="#161616"/>
<path d="M550.4 224.8C563.8 229.9 577.2 235 590.6 240.1C592.4 240.8 593.2 237.9 591.4 237.2C578 232.1 564.6 227 551.2 221.9C549.4 221.2 548.6 224.1 550.4 224.8Z" fill="#161616"/>
<path d="M175.2 158.1C187.9 191.7 200.7 225.3 213.4 259C222.9 261.7 232.5 264.3 242 267C249.1 263.8 256.2 260.5 263.3 257.3C255.2 253.8 247.1 250.3 239 246.8C226 212.8 213 178.7 200 144.7C196.4 146.3 192.6 148.1 188.7 150.2C183.6 152.7 179.2 155.5 175.2 158.1Z" fill="#EC615B"/>
<path d="M266.7 138.3C274.9 153.1 283.8 173.8 287.5 199.5C288.7 207.9 289.2 215.9 289.2 223.1C273.3 235.3 253.9 248.2 230.6 260.2C217.6 266.9 205 272.5 193.3 277.1C199.8 277.1 206.3 277.1 212.8 277.1C226.7 271.3 242.1 264 258.4 254.7C276.1 244.6 291.3 234.1 304 224.3C301.6 212.3 299 200 296.2 187.6C293.1 173.9 289.9 160.6 286.7 147.5C284.9 145.7 281.9 143.2 277.6 141.2C273.2 139.2 269.3 138.5 266.7 138.3Z" fill="#EC615B"/>
<path d="M187.3 150.5C185.1 148.7 188 137.9 196 134.5C202.1 131.9 210 134 215.5 140C212.4 140.9 207.7 142.3 202.1 144.6C192.1 148.7 188.8 151.7 187.3 150.5Z" fill="#EC615B"/>
<path d="M201.2 140C205.9 137 212.7 131.8 218.6 123.5C228.7 109.2 229.5 94.6 229.4 88.5C231.1 88 241.2 84.9 246.8 89.8C254.4 96.4 247.4 112.2 245.9 115.5C241.5 125.4 234.3 130.8 232 132.4C219.2 141.4 205.2 140.4 201.2 140Z" fill="#EC615B"/>
<path d="M150 113.4C155 112.6 157.8 121.5 168.2 130.3C177.5 138.1 187.9 141.6 196 143.4C192.6 146 186.2 150.3 177.3 151.4C164.4 153 146.8 148.1 142.6 135.8C139.5 126.5 144.4 114.2 150 113.4Z" fill="#EC615B"/>
<path d="M585.6 151.3C572.7 168.5 559.7 185.7 546.8 202.9C551.4 211.3 556 219.7 560.7 228.1C564.7 229.7 568.7 231.4 572.7 233C569.8 226 566.9 218.9 563.9 211.9C575.4 193 587 174.2 598.5 155.3C594.2 154 589.9 152.7 585.6 151.3Z" fill="#833561"/>
<path d="M624.8 179.1C611.6 193.8 598.3 208.4 585.1 223.1C569.7 218.6 554.3 214.1 538.9 209.6C541.5 212.9 544.1 216.2 546.7 219.5C561.2 224.3 575.6 229.1 590.1 233.9C602.6 219.8 615 205.8 627.5 191.7C626.7 187.5 625.8 183.3 624.8 179.1Z" fill="#833561"/>
<path d="M598.5 154.9C599 152.8 606.4 150.7 611.4 154.5C614.6 156.9 616.5 161.6 615.1 163C612.5 165.6 597.8 158.1 598.5 154.9Z" fill="#833561"/>
<path d="M590.7 122.6C592.9 121.4 597.3 125.2 598.5 126.2C599.7 127.2 603.9 131 606.8 141.9C608.3 147.4 610.5 155.6 608.2 156.7C605.6 158 597.7 149.8 593.4 141C590.1 134 587.8 124.2 590.7 122.6Z" fill="#833561"/>
<path d="M648.7 158.1C648.9 155.7 643.5 153.8 642 153.3C640.6 152.8 635.3 151.1 624 153.6C618.3 154.9 609.9 156.8 609.8 159.2C609.7 162 620.7 164.7 630.6 164.2C638.5 163.8 648.4 161.2 648.7 158.1Z" fill="#833561"/>
<path opacity="0.09" d="M179.3 274.2C185.2 272.1 193.9 269 204.3 264.6C222 257.2 234.5 252 248.4 242.6C255.3 237.9 264.6 230.7 274.5 220.2C279.4 210.4 285.4 195.8 287.7 177.2C289.1 165.9 288.9 155.9 288.1 147.8C291.7 149.9 295.2 152 298.8 154C302.4 163.4 306.1 174.9 308.7 188.2C311.3 201.1 312.4 212.8 312.7 222.7C301.9 232.1 292.3 239.1 285.1 244C250.4 267.7 226.5 273.3 221.2 274.5C213 276.3 206.7 276.6 203.9 276.7C193.4 277.1 184.9 275.5 179.3 274.2Z" fill="#353535"/>
</svg>
