<svg width="1600" height="1200" viewBox="0 0 1600 1200" fill="none" xmlns="http://www.w3.org/2000/svg">
<path d="M406.9 1031.1C465.2 1031.1 519.4 1055.6 576.5 1063.6C632 1071.3 686.9 1058.6 741.5 1050C769 1045.7 796.8 1042.3 824.7 1043.7C853.5 1045.2 880.2 1053 906.4 1064.6C930.1 1075.2 953.3 1087.5 978.4 1094.6C1002.3 1101.4 1026.9 1101.7 1051.3 1097.4C1108.7 1087.3 1161.5 1056 1220.8 1056.3C1222.7 1056.3 1222.7 1053.3 1220.8 1053.3C1168.9 1053 1121.6 1076.7 1072.4 1089.6C1046.8 1096.3 1020.1 1099.9 993.9 1095.1C967.4 1090.3 943 1078.1 918.8 1066.9C894.8 1055.8 870.5 1046.1 844.1 1042.5C816.9 1038.8 789.4 1040.4 762.3 1044C707.3 1051.1 652.6 1066.1 596.8 1062.7C532.3 1058.7 472.2 1028.2 407.1 1028.2C405 1028.1 405 1031.1 406.9 1031.1Z" fill="#161616"/>
<path d="M326.5 1043.1C338.4 1038.6 350.6 1035.4 363.2 1033.5C365.1 1033.2 364.3 1030.3 362.4 1030.6C349.8 1032.4 337.6 1035.6 325.7 1040.2C323.9 1040.9 324.7 1043.8 326.5 1043.1Z" fill="#161616"/>
<path d="M305.1 1069.1C372.1 1039.6 444.4 1072.9 509.9 1089.8C529.1 1094.8 548.7 1098.5 568.6 1099.6C570.5 1099.7 570.5 1096.7 568.6 1096.6C496.4 1092.7 430.8 1052.4 357.7 1054.8C339.1 1055.4 320.7 1059.1 303.7 1066.6C301.9 1067.3 303.4 1069.9 305.1 1069.1Z" fill="#161616"/>
<path d="M615.3 1124.1C630.7 1121.8 645.3 1116.7 660 1111.7C674.6 1106.8 689.3 1102.6 704.3 1099.5C735.3 1093.2 767.1 1091.1 798.6 1093.3C816.9 1094.6 835.1 1097.4 852.9 1101.5C854.8 1101.9 855.6 1099 853.7 1098.6C791.9 1084.3 726.5 1086.9 666.1 1106.5C649 1112 632.3 1118.5 614.4 1121.2C612.6 1121.5 613.4 1124.4 615.3 1124.1Z" fill="#161616"/>
<path d="M973.6 1128.2C994.4 1138.9 1018.2 1139.1 1040.9 1136C1067.2 1132.5 1093 1125.5 1118.5 1117.9C1169.2 1102.8 1219.7 1084.4 1273 1081.2C1302.3 1079.4 1331.8 1082.5 1359.3 1093C1361.1 1093.7 1361.9 1090.8 1360.1 1090.1C1259.4 1051.5 1157.4 1110.6 1059.6 1129.8C1031.9 1135.2 1001.2 1138.9 975.2 1125.5C973.4 1124.7 971.9 1127.3 973.6 1128.2Z" fill="#161616"/>
<path d="M1280.5 1057.6C1303.2 1057 1325.7 1061.4 1346.5 1070.8C1348.2 1071.6 1349.8 1069 1348 1068.2C1326.8 1058.6 1303.8 1054 1280.5 1054.6C1278.5 1054.7 1278.5 1057.7 1280.5 1057.6Z" fill="#161616"/>
<path d="M573.6 1059.6C565.8 1051.4 559.7 1041.7 555.8 1031C554.1 1026.2 552.8 1021.3 552 1016.3C551.5 1013.3 549.5 1004.9 556.4 1006.8C559.1 1007.6 562.2 1011.8 563.7 1014C564.8 1015.6 567.4 1014.1 566.3 1012.5C561.1 1005 557.2 996.7 554.8 987.9C553.6 983.5 552.8 978.9 552.3 974.3C552.1 972.1 552 969.9 552 967.6C552 966.5 552 965.4 552.1 964.3C551.9 962.1 552.9 960.4 555.3 959.2C556.3 958.9 557.2 958.7 558.2 958.4C556.6 954.3 555.4 950.1 554.6 945.8C554.2 943.4 553.9 940.9 553.7 938.4C553.7 938.1 553.9 928.9 555.5 930.6C556.5 931.7 558.5 930.6 558 929.1C552.9 913 551.9 895.9 555.5 879.3C556.2 876.1 556.8 871.4 559.1 868.8C562.1 865.4 566.4 867.2 568.6 870.4C570 872.4 570.9 874.7 571.7 877C574.2 884.6 575.1 892.8 576.6 900.6C583.1 934.7 589.3 968.9 592.9 1003.5C594.9 1022.9 596.1 1042.4 596.1 1061.9C596.1 1063.8 599.1 1063.8 599.1 1061.9C599.1 1021.4 593.9 981.1 587.1 941.2C583.7 921.5 580.3 901.6 576.1 882C574.7 875.6 572.4 866.4 565.5 863.8C560.4 861.9 556.7 866 555 870.4C547.9 888.8 549.4 911.3 555.2 929.8C556 929.3 556.9 928.8 557.7 928.3C554 924.5 551 929.4 550.7 932.9C550 941.6 552.2 950.9 555.3 958.9C556 960.7 558.8 960 558.2 958.1C557.3 955.2 553.8 954.3 551.4 956.3C547.4 959.6 548.9 968.9 549.3 973.2C550.4 987.8 555.5 1001.7 563.7 1013.7C564.6 1013.2 565.4 1012.7 566.3 1012.2C563.7 1008.5 557.6 1000.8 552.2 1002.9C546.7 1005 548.6 1013.5 549.3 1017.7C552.1 1034.2 560 1049.4 571.5 1061.5C572.8 1063.1 575 1061 573.6 1059.6Z" fill="#E8E8E8"/>
<path d="M595 986.3C595 976.5 595.9 966.8 597.8 957.3C598.6 953.6 603.4 929.7 607.7 930.4C608.4 930.5 609.4 930.2 609.5 929.4C611.5 918.8 614.3 908.4 618 898.3C621.6 888.7 625.6 876.3 633.9 869.7C633.2 869.7 632.5 869.7 631.8 869.7C637.1 875.5 635.6 886 635.7 893.3C635.7 901.3 635.5 909.3 635 917.4C634 934.3 632 951.1 629.3 967.7C624.1 1000.2 616.3 1032.3 608.4 1064.3C607.9 1066.2 610.8 1067 611.3 1065.1C619.9 1030.6 628.2 996.1 633.4 960.9C635.9 944.2 637.6 927.5 638.3 910.7C638.7 901.7 638.8 892.7 638.5 883.7C638.3 877.9 638 872.1 633.9 867.7C633.3 867.1 632.4 867.2 631.8 867.7C623.8 874 620 885 616.4 894.2C612 905.4 608.8 916.9 606.6 928.7C607.2 928.4 607.8 928 608.4 927.7C605.3 927.2 603.7 929 602.4 931.7C599.8 937.3 598 943.5 596.5 949.5C593.3 961.6 591.9 974.1 591.9 986.6C592 988.2 595 988.2 595 986.3Z" fill="#E8E8E8"/>
<path d="M1045 1096C1040 1087.8 1035.8 1079.2 1032.5 1070.1C1031 1066 1029.7 1061.8 1028.6 1057.5C1028 1055.2 1027.5 1052.9 1027 1050.6C1026.8 1049.5 1026.5 1048.3 1026.3 1047.1C1025.3 1044.7 1026.3 1043.1 1029.2 1042.3C1030.2 1042.2 1031.2 1042 1032.1 1041.9C1029.4 1034.5 1027.5 1026.9 1026.5 1019C1026 1015.1 1025.7 1011.3 1025.7 1007.4C1025.7 1005.5 1027.1 996.3 1026 995.1C1026.9 996.1 1028.6 995.3 1028.6 994C1028.4 984.5 1028.9 975.1 1030.5 965.7C1031.2 961.4 1032.2 957.2 1033.3 953C1033.9 950.9 1034.5 948.8 1035.1 946.7C1035.5 945.5 1035.9 944.3 1036.3 943.2C1036.7 940.6 1038.3 939.5 1041.3 940C1041.9 941.5 1044.3 941.4 1044.2 939.6C1044.1 929.7 1045.6 920 1049.1 910.7C1050 908.4 1052.9 899.1 1056.3 898.9C1060.7 898.7 1060.8 910.6 1061 913C1062.7 932.7 1064 952.5 1064.7 972.3C1066.2 1012.6 1065.8 1052.9 1063.4 1093.1C1063.3 1095 1066.3 1095 1066.4 1093.1C1068.5 1057.8 1069.1 1022.5 1068.2 987.2C1067.7 969.7 1066.9 952.2 1065.7 934.8C1065.1 926.2 1064.5 917.7 1063.6 909.1C1063.1 903.8 1062.1 898.9 1057.5 895.7C1057 895.4 1056.5 895.5 1056 895.7C1049.5 898.8 1047 906.8 1045 913.3C1042.3 921.8 1041.1 930.7 1041.2 939.7C1042.2 939.6 1043.2 939.4 1044.1 939.3C1043.1 936.6 1040.2 935.4 1037.5 936.7C1033.1 938.7 1032 946.6 1030.8 950.5C1026.8 964.7 1025.1 979.4 1025.5 994.1C1026.4 993.7 1027.2 993.4 1028.1 993C1027.9 992.8 1027.8 992.7 1027.6 992.5C1027.3 992.1 1026.6 991.9 1026.1 992.1C1023.9 992.9 1023.4 994.3 1023 996.5C1022.1 1001.8 1022.4 1007.6 1022.8 1012.9C1023.5 1023.1 1025.7 1033.1 1029.2 1042.7C1029.7 1044.2 1032.3 1044.1 1032.1 1042.3C1031.8 1039.2 1028.5 1037.5 1025.6 1039.1C1020.9 1041.6 1023.5 1049.3 1024.3 1053.1C1027.8 1068.8 1034 1083.7 1042.3 1097.4C1043.4 1099.1 1046 1097.6 1045 1096Z" fill="#E8E8E8"/>
<path d="M1069.1 1021C1069 1015.6 1069.5 1010.3 1070.6 1005C1071.1 1002.6 1071.8 1000.2 1072.6 997.9C1072.9 997.1 1076.1 987.9 1078 990.7C1078.8 991.9 1080.7 991.5 1080.8 989.9C1081.1 985.5 1081.7 981.2 1082.9 977C1083.4 975.2 1087.8 962.7 1089.8 963.9C1090.8 964.6 1092 963.7 1092.1 962.6C1092.7 953.8 1094.7 945.2 1098.3 937.2C1100 933.3 1102.1 929.5 1104.5 926C1106.4 923.1 1109.3 918.2 1112.3 916.3C1120.1 911.3 1118.7 923.5 1118.6 927.1C1118.4 931.6 1118.1 936.1 1117.8 940.7C1117.1 950.4 1116.1 960 1114.8 969.6C1109.6 1008.7 1100.4 1047.1 1091.3 1085.4C1090.9 1087.3 1093.7 1088.1 1094.2 1086.2C1102.8 1050.3 1111.4 1014.3 1116.7 977.7C1119.2 960.3 1121 942.8 1121.7 925.2C1121.9 921 1122.5 914.2 1117.9 911.9C1113.1 909.5 1109.1 915.4 1106.5 918.5C1096.2 931.1 1090.2 946.5 1089.1 962.8C1089.9 962.4 1090.6 961.9 1091.4 961.5C1082.8 956 1078.1 985.6 1077.9 990.1C1078.8 989.8 1079.8 989.6 1080.7 989.3C1077.3 984.3 1073 989.2 1071.4 992.9C1067.7 1001.8 1066.1 1011.5 1066.2 1021.1C1066.1 1022.9 1069.1 1022.9 1069.1 1021Z" fill="#E8E8E8"/>
<path d="M351.1 1030C347.1 1028.4 343.3 1026.1 340.8 1022.5C339.6 1020.8 338.8 1018.9 338.1 1017C337.9 1016.6 336 1010.5 338.4 1011.7C340 1012.5 341.3 1010.7 340.2 1009.3C334.8 1002.4 330.9 994.5 329 985.9C328.5 983.6 327.3 980.3 327.8 978C328.8 973.4 333.4 972.8 336.4 975.7C339.6 978.8 342.4 982.6 344.9 986.3C354.2 999.8 359.9 1015.4 361.6 1031.7C361.8 1033.6 364.8 1033.6 364.6 1031.7C363.5 1020.6 360.6 1009.9 356 999.7C351.7 990.3 345.4 978.9 337.2 972.4C334.5 970.3 330.7 968.9 327.6 970.9C324 973.1 324.8 978 325.2 981.5C326.6 992.6 331.2 1002.8 338.1 1011.6C338.7 1010.8 339.3 1010 339.9 1009.2C338.2 1008.4 336.4 1008.3 335 1009.9C332.9 1012.2 334.2 1015.4 335.2 1017.9C338 1025.4 342.8 1030.1 350.2 1033.1C352.1 1033.6 352.9 1030.7 351.1 1030Z" fill="#E8E8E8"/>
<path d="M354.4 997.6C350.3 982 346.3 966.8 344.3 950.8C343.8 947 343.3 943.1 343 939.3C342.7 935.4 341.7 929.7 342.7 925.9C342.7 925.3 342.8 924.6 342.8 924C345.9 920.6 348.2 920.4 349.7 923.6C350.6 924.9 351.4 926.4 352.1 927.9C354 931.2 355.7 934.6 357.3 938.1C370.7 966.2 376.9 997.3 375.6 1028.4C375.5 1030.3 378.5 1030.3 378.6 1028.4C380.2 992.3 371.8 954.4 353 923.4C350.7 919.6 345.1 914.4 341.2 919.6C339.5 921.8 339.7 925.4 339.7 928C339.5 933.1 339.9 938.3 340.5 943.4C341.5 952.4 342.4 961.6 344.4 970.5C346.5 980 349.2 989.3 351.7 998.7C352 1000.2 354.9 999.4 354.4 997.6Z" fill="#E8E8E8"/>
<path d="M292.4 763.2C358.5 761.6 422.9 778.3 485.6 797.6C548.3 816.9 610.5 839.3 675.5 850C708.1 855.4 741.2 857.5 774.2 855C810.5 852.3 846.2 844.9 881.4 835.9C917.3 826.7 952.8 816 988.7 806.5C1024.7 796.9 1060.9 788.2 1097.4 780.7C1171.1 765.5 1246 755.3 1321.4 753.5C1330.5 753.3 1339.7 753.2 1348.8 753.2C1350.7 753.2 1350.7 750.2 1348.8 750.2C1274.9 750 1201.2 758.2 1128.5 771.6C1055.2 785.2 983.6 804.9 911.8 824.7C876.2 834.6 840.3 843.7 803.7 848.9C768.8 853.8 733.6 854.4 698.6 850.3C632.8 842.7 569.7 821.1 506.9 801.2C444.9 781.6 381.6 762.9 316.3 760.4C308.3 760.1 300.3 760.1 292.3 760.3C290.4 760.3 290.4 763.3 292.4 763.2Z" fill="#E8E8E8"/>
<path d="M943.4 778.6C1011.7 759.8 1078.3 735.7 1145.9 714.5C1213.3 693.3 1282.1 674.8 1352.6 667.6C1391.9 663.6 1431.6 663.1 1470.9 667.6C1472.8 667.8 1472.8 664.8 1470.9 664.6C1401.1 656.7 1330.6 664.4 1262.3 679.5C1193 694.8 1125.8 717.7 1058.5 739.9C1020.1 752.6 981.7 765 942.7 775.7C940.7 776.2 941.5 779.1 943.4 778.6Z" fill="#E8E8E8"/>
<path d="M723.5 937.4C749.1 943.3 775.5 940.6 801.1 935.9C827.9 931 854.2 924 880.5 916.6C933.5 901.8 986.2 886.7 1041.3 882.5C1072.4 880.2 1103.7 880.8 1134.7 884.1C1136.6 884.3 1136.6 881.3 1134.7 881.1C1080.9 875.3 1026.5 878 973.5 889.2C920.8 900.3 869.8 918.3 817.2 929.6C786.9 936.1 755.1 941.6 724.4 934.5C722.4 934.1 721.6 937 723.5 937.4Z" fill="#E8E8E8"/>
<path d="M1220.6 956.8C1287.6 953.2 1349.6 983.1 1413.9 996.7C1431.9 1000.5 1450.1 1003 1468.5 1003.3C1470.4 1003.3 1470.4 1000.3 1468.5 1000.3C1401.6 999.2 1340.3 968.5 1275.1 957.4C1257.1 954.3 1238.9 952.8 1220.6 953.8C1218.7 954 1218.6 957 1220.6 956.8Z" fill="#E8E8E8"/>
<path d="M244.7 648.2C314 647.4 383.2 660 447.7 685.3C466.2 692.6 484.3 701 501.9 710.3C503.6 711.2 505.1 708.6 503.4 707.7C441.9 675.1 374.2 654.7 305 647.8C285 645.8 264.8 644.9 244.7 645.2C242.8 645.2 242.8 648.2 244.7 648.2Z" fill="#E8E8E8"/>
<path d="M314.5 530.9C369.2 544.6 419.1 571.5 470.8 593.4C523 615.5 577.8 630.8 633.9 638.4C665.5 642.7 697.5 644.6 729.4 644.1C731.3 644.1 731.3 641.1 729.4 641.1C671.9 642 614.3 635 558.7 620.4C531.4 613.2 504.7 604.2 478.6 593.4C452.7 582.7 427.3 570.5 401.7 559.2C373.6 546.8 345.1 535.4 315.3 528C313.5 527.5 312.7 530.4 314.5 530.9Z" fill="#E8E8E8"/>
<path d="M687.2 703.6C739.1 723.6 796.1 712.7 847 695.1C874.4 685.6 901 674.2 928.2 664.3C954.9 654.6 982 646.2 1009.5 639.1C1041.3 630.9 1073.6 624.5 1106.1 619.9C1108 619.6 1107.2 616.7 1105.3 617C1049 625 993.6 638.4 939.9 657C887.1 675.3 836 701.2 780.1 709.1C749.2 713.5 717.3 712 688 700.7C686.2 700 685.4 702.9 687.2 703.6Z" fill="#E8E8E8"/>
<path d="M497.8 525.9C503.433 525.9 508 521.423 508 515.9C508 510.377 503.433 505.9 497.8 505.9C492.167 505.9 487.6 510.377 487.6 515.9C487.6 521.423 492.167 525.9 497.8 525.9Z" fill="#5222D0"/>
<path d="M887.7 657.8C892.008 657.8 895.5 654.397 895.5 650.2C895.5 646.003 892.008 642.6 887.7 642.6C883.392 642.6 879.9 646.003 879.9 650.2C879.9 654.397 883.392 657.8 887.7 657.8Z" fill="#5222D0"/>
<path d="M1064.8 110.3C1067.67 110.3 1070 108.017 1070 105.2C1070 102.383 1067.67 100.1 1064.8 100.1C1061.93 100.1 1059.6 102.383 1059.6 105.2C1059.6 108.017 1061.93 110.3 1064.8 110.3Z" fill="#5222D0"/>
<path d="M505.3 803.1C509.442 803.1 512.8 799.832 512.8 795.8C512.8 791.768 509.442 788.5 505.3 788.5C501.158 788.5 497.8 791.768 497.8 795.8C497.8 799.832 501.158 803.1 505.3 803.1Z" fill="#5222D0"/>
<path d="M1152.2 458.1C1153.19 458.1 1154 457.294 1154 456.3C1154 455.306 1153.19 454.5 1152.2 454.5C1151.21 454.5 1150.4 455.306 1150.4 456.3C1150.4 457.294 1151.21 458.1 1152.2 458.1Z" fill="#5222D0"/>
<path d="M477.6 510.5C483.068 510.5 487.5 506.157 487.5 500.8C487.5 495.443 483.068 491.1 477.6 491.1C472.132 491.1 467.7 495.443 467.7 500.8C467.7 506.157 472.132 510.5 477.6 510.5Z" fill="#EC615B"/>
<path d="M516.2 770.9C518.078 770.9 519.6 769.423 519.6 767.6C519.6 765.777 518.078 764.3 516.2 764.3C514.322 764.3 512.8 765.777 512.8 767.6C512.8 769.423 514.322 770.9 516.2 770.9Z" fill="#EC615B"/>
<path d="M333.8 230C337.887 230 341.2 226.776 341.2 222.8C341.2 218.824 337.887 215.6 333.8 215.6C329.713 215.6 326.4 218.824 326.4 222.8C326.4 226.776 329.713 230 333.8 230Z" fill="#EC615B"/>
<path d="M1089.6 393.5C1093.69 393.5 1097 390.276 1097 386.3C1097 382.324 1093.69 379.1 1089.6 379.1C1085.51 379.1 1082.2 382.324 1082.2 386.3C1082.2 390.276 1085.51 393.5 1089.6 393.5Z" fill="#EC615B"/>
<path d="M1119.5 366.6C1122.92 366.6 1125.7 363.914 1125.7 360.6C1125.7 357.286 1122.92 354.6 1119.5 354.6C1116.08 354.6 1113.3 357.286 1113.3 360.6C1113.3 363.914 1116.08 366.6 1119.5 366.6Z" fill="#EC615B"/>
<path d="M444.5 656.5C435.3 656.7 431.4 669.5 434.4 677.1C435.8 680.6 438.9 681.5 442.4 680.9C443.5 680.7 444.9 680 446.1 680C450.8 680.3 450.7 683.2 449.3 686C448.3 688 447.2 689.6 446.7 691.8C446.1 694.6 446.6 697.7 449.5 698.9C451.1 699.6 453 698.4 454.4 698.9C459.4 700.5 455.4 706.8 455 709.9C454.6 713.3 455.5 717.2 458.8 718.8C461.7 720.2 465.2 719.3 466.7 716.4C467.6 714.7 465 713.2 464.1 714.9C460.7 717.6 458.7 716.6 457.9 711.7C457.9 710.3 458.1 709 458.5 707.7C459 705.5 460 703.5 460.2 701.2C460.3 699.6 460.2 697.9 459 696.7C456.6 694.5 450.8 697.7 449.5 693.8C448.7 691.4 452.3 687.4 453 685.2C454.4 680.9 452.7 676.6 447.6 676.7C443.4 676.8 438.4 681.1 436.9 673.6C435.8 668.4 438.3 659.5 444.7 659.4C446.4 659.4 446.5 656.4 444.5 656.5Z" fill="#EC615B"/>
<path d="M1001.8 557.5C991.7 557.7 982.3 564.7 979.9 574.7C977.8 583.4 983.2 593.8 993.1 588.4C996.6 586.5 1000.1 583.1 1000.7 578.9C1001.1 575.6 999 572.8 995.5 573.1C990.6 573.5 986.1 579.3 983.5 582.9C980.5 587 977.4 592.7 977.9 598C978.9 607.1 992 608.9 996.6 601.7C997.4 600.5 995.8 598.7 994.5 599.6C987.6 604.9 980.4 613.6 983.1 623C985.2 630.4 993.2 635.7 1000.7 633.1C1002.5 632.5 1001.7 629.6 999.9 630.2C993.2 632.5 986.2 626.9 985.6 620.1C985 612.8 990.5 606.4 996 602.2C995.3 601.5 994.6 600.8 993.9 600.1C991.9 603.3 987.4 604 984.1 602.3C979.4 599.8 980.7 594.4 982.5 590.4C984 587 986.2 583.9 988.7 581.2C989.7 580.1 992.3 577.1 993.7 576.9C995 577.2 996.4 577.6 997.7 577.9C997.6 579.2 997.2 580.3 996.5 581.4C993.8 585.8 987 589.3 983.3 584.2C980.8 580.9 982.4 574.7 984.1 571.4C987.5 564.8 994.3 560.6 1001.6 560.5C1003.7 560.4 1003.7 557.4 1001.8 557.5Z" fill="#EC615B"/>
<path d="M216.4 406C219.6 402.1 225.1 403.4 226.7 407.9C227.7 410.6 227.6 412.9 230.1 414.8C234.6 418.2 240.6 415.6 245.4 414.6C257.9 412.1 253.8 424.6 260.9 429.5C264 431.7 268.7 431.1 270.3 427.5C271.1 425.8 268.5 424.2 267.7 426C265.1 431.8 260.3 424.3 259.5 422C259 420.6 258.7 419.2 258.1 417.9C257.2 415.8 256 413.8 254 412.5C248.4 409 242.2 413.3 236.5 413.4C230.4 413.6 231 409.4 228.9 405.3C228 403.5 226.5 402.2 224.6 401.4C220.9 400 216.7 400.8 214.3 403.9C213 405.4 215.2 407.5 216.4 406Z" fill="#EC615B"/>
<path d="M227.1 434.3C233.4 427.5 242.5 430.7 246.2 438.1C248.5 442.7 250.1 447.7 255.1 450C262.7 453.5 272.6 449.6 275.2 441.7C275.8 439.9 272.9 439.1 272.3 440.9C270.4 446.7 263.4 449.5 257.8 447.8C250.9 445.8 250.4 437.9 246.6 432.9C241.4 426 230.8 425.9 225 432.2C223.7 433.6 225.8 435.7 227.1 434.3Z" fill="#EC615B"/>
<path d="M936.8 873.4C940.5 869.1 945.5 869.2 950 872.2C951.5 873.2 953 874.2 954.9 873.5C957.3 872.6 957.7 869.4 959.4 867.8C962.9 864.5 968.7 864.5 972.3 867.5C973.8 868.7 975.9 866.6 974.4 865.4C969 860.9 960.1 861.3 955.8 867.3C955.4 867.9 954.9 869.5 954.4 869.8C952.1 871.3 951.2 869 949.7 868.4C948.1 867.8 946.6 867.1 944.9 867C940.9 866.7 937.2 868.3 934.6 871.3C933.5 872.7 935.6 874.8 936.8 873.4Z" fill="#5222D0"/>
<path d="M966.1 878.5C972.9 868.4 997.5 882.1 1000 865.9C1000.3 864 997.4 863.2 997.1 865.1C995.8 873.6 984 871.6 978 871.4C972.4 871.3 966.8 872.1 963.5 877C962.4 878.6 965 880.1 966.1 878.5Z" fill="#5222D0"/>
<path d="M436.1 920.5C440 913.8 445.2 908.2 451.6 903.9C453.2 902.8 451.7 900.2 450.1 901.3C443.3 906 437.7 911.9 433.5 919C432.5 920.6 435.1 922.1 436.1 920.5Z" fill="#5222D0"/>
<path d="M450.3 915.7C455.6 912.1 460.9 908.4 466.2 904.8C467.8 903.7 466.3 901.1 464.7 902.2C459.4 905.8 454.1 909.5 448.8 913.1C447.2 914.2 448.7 916.8 450.3 915.7Z" fill="#5222D0"/>
<path d="M446.8 63.2C445.9 140.8 425.9 217.8 389.2 286.2C378.9 305.5 367.2 324 354.4 341.7C353.3 343.3 355.9 344.8 357 343.2C402.8 279.9 433.1 205.7 444.6 128.3C447.8 106.7 449.5 84.9 449.8 63.1C449.9 61.3 446.9 61.3 446.8 63.2Z" fill="#E8E8E8"/>
<path d="M459.3 66.5C508.1 96.4 568.5 105.6 624.2 93.1C640 89.6 655.3 84.2 669.8 77.3C671.5 76.5 670 73.9 668.3 74.7C617.6 98.9 557.7 101.9 504.5 84.3C489.2 79.2 474.5 72.4 460.8 64C459.2 62.9 457.7 65.5 459.3 66.5Z" fill="#E8E8E8"/>
<path d="M694.6 76.6C715.9 110.4 749.8 135.4 788 146.8C834.1 160.6 883.8 151.5 929.2 139.3C954.5 132.5 979.2 123.2 1001.2 109C1002.8 108 1001.3 105.4 999.7 106.4C980.3 118.8 959 127.5 937 134C914 140.7 890.2 145.9 866.4 148.8C843.5 151.6 820.2 151.6 797.7 146.3C778.7 141.8 760.5 133.8 744.2 123C725.4 110.5 709.3 94.2 697.2 75.1C696.2 73.5 693.6 75 694.6 76.6Z" fill="#E8E8E8"/>
<path d="M1013 111C1006 149.2 1000.6 189.2 1002.5 228.1C1004 260 1012.7 293.3 1038.7 313.9C1054.2 326.2 1073.1 333 1091.6 339.6C1093.4 340.3 1094.2 337.4 1092.4 336.7C1076.1 330.8 1059.4 324.9 1045.1 314.9C1031.4 305.4 1021.3 292.1 1015 276.7C1002.7 246.5 1004.3 212.2 1006.8 180.3C1008.6 157.3 1011.7 134.4 1015.8 111.7C1016.2 109.9 1013.3 109.1 1013 111Z" fill="#E8E8E8"/>
<path d="M362.1 360.3C436.7 372 505.5 414.7 549.4 476.2C561.7 493.5 572 512.2 579.8 531.9C580.5 533.7 583.4 532.9 582.7 531.1C554.7 460.5 496.2 404.1 426.3 375.2C405.9 366.8 384.6 360.8 362.9 357.4C361 357.1 360.2 360 362.1 360.3Z" fill="#E8E8E8"/>
<path d="M599.1 534.4C634.4 507 681.2 500.2 724.5 506.6C770.7 513.4 812.6 535.6 850.4 562.2C873.2 578.2 894.7 595.9 916.2 613.6C917.7 614.8 919.8 612.7 918.3 611.5C879.5 579.5 840.1 547.1 794.4 525.4C753.6 506 707.6 496.3 662.6 504C638.8 508.1 616.2 517.4 597 532.2C595.5 533.5 597.6 535.6 599.1 534.4Z" fill="#E8E8E8"/>
<path d="M914.9 595.1C932.1 520.8 979 454.8 1041.8 411.9C1059.8 399.6 1079.1 389.2 1099.3 381C1101.1 380.3 1100.3 377.4 1098.5 378.1C1026.9 407.3 967 463.4 933.5 533.1C924.1 552.7 916.9 573.2 912 594.3C911.6 596.2 914.5 597 914.9 595.1Z" fill="#E8E8E8"/>
<path d="M463.8 417.3C478.8 423.7 490.1 436.4 500.8 448.3C511.9 460.6 522.1 473.7 531.5 487.4C549.7 514.1 564.2 543.1 574.6 573.7C575.2 575.5 578.1 574.7 577.5 572.9C566.8 541.6 551.8 511.8 533.1 484.5C523.9 471.1 513.8 458.3 502.9 446.2C492 434.2 480.5 421.2 465.3 414.8C463.6 413.9 462 416.5 463.8 417.3Z" fill="#161616"/>
<path d="M691.4 92.6C707.9 119.2 733.8 138.7 763.6 147.9C765.5 148.5 766.2 145.6 764.4 145C735.3 136.1 710 117 694 91.1C693 89.4 690.4 91 691.4 92.6Z" fill="#161616"/>
<path d="M448.6 41.9C480.6 63.6 521.1 70.6 558.6 61.6C560.5 61.1 559.7 58.3 557.8 58.7C521 67.6 481.4 60.5 450.1 39.3C448.5 38.3 447 40.9 448.6 41.9Z" fill="#161616"/>
<path d="M342.6 322.1C358.6 304.4 372.5 285 384 264.1C384.9 262.4 382.3 260.9 381.4 262.6C370 283.3 356.3 302.5 340.5 320C339.2 321.4 341.3 323.5 342.6 322.1Z" fill="#161616"/>
<path d="M439.7 204.9C438.3 219.1 430.8 232.5 425 245.3C419 258.4 412.8 271.3 406.5 284.2C405.6 285.9 408.2 287.4 409.1 285.7C416.1 271.7 422.8 257.5 429.3 243.2C434.9 230.9 441.5 218.4 442.8 204.8C442.9 203 439.9 203 439.7 204.9Z" fill="#161616"/>
<path d="M905.3 542.5C921 502 946.3 465.7 978.7 436.8C980.1 435.5 978 433.4 976.6 434.7C943.8 464 918.3 500.7 902.4 541.7C901.7 543.5 904.6 544.2 905.3 542.5Z" fill="#161616"/>
<path d="M434.8 84.4C433.1 95.1 431.3 105.8 429.6 116.5C429.3 118.4 432.2 119.2 432.5 117.3C434.2 106.6 436 95.9 437.7 85.2C438 83.3 435.1 82.5 434.8 84.4Z" fill="#EC615B"/>
<path d="M690.6 50.3C712.2 76.1 739 97.1 769.2 111.9C770.9 112.7 772.4 110.2 770.7 109.3C740.7 94.6 714.1 73.8 692.7 48.2C691.5 46.7 689.4 48.8 690.6 50.3Z" fill="#EC615B"/>
<path d="M867.7 166.8C892.9 168 918 163.1 940.8 152.3C942.5 151.5 941 148.9 939.3 149.7C916.9 160.2 892.4 165 867.7 163.8C865.7 163.7 865.8 166.7 867.7 166.8Z" fill="#EC615B"/>
<path d="M957 121C978.3 110.6 997.5 96.6 1013.9 79.4C1015.2 78 1013.1 75.9 1011.8 77.3C995.6 94.3 976.6 108.1 955.5 118.4C953.8 119.2 955.3 121.8 957 121Z" fill="#EC615B"/>
<path d="M605.2 515.2C630.4 488.7 668.8 476.5 704.8 482.9C706.7 483.2 707.5 480.3 705.6 480C668.5 473.4 629.1 485.7 603.1 513.1C601.7 514.4 603.8 516.6 605.2 515.2Z" fill="#EC615B"/>
<path d="M382.3 347.8C403.5 352.2 423.9 359.3 443.2 369.1C444.9 370 446.4 367.4 444.7 366.5C425.2 356.6 404.5 349.3 383.1 344.9C381.2 344.5 380.4 347.4 382.3 347.8Z" fill="#5222D0"/>
<path d="M461 104.1C462.2 115.8 462.4 127.6 461.7 139.3C461.6 141.2 464.6 141.2 464.7 139.3C465.4 127.5 465.1 115.8 464 104.1C463.8 102.2 460.8 102.2 461 104.1Z" fill="#5222D0"/>
<path d="M851.6 506.7C863.4 483.7 882.5 465.4 905.7 454.1C907.4 453.3 905.9 450.7 904.2 451.5C880.5 463 861 481.8 849 505.2C848.1 506.9 850.7 508.5 851.6 506.7Z" fill="#5222D0"/>
<path d="M789 291.1C797.8 285 808 282.2 818.7 282.8C820.6 282.9 820.6 279.9 818.7 279.8C807.5 279.2 796.7 282.2 787.5 288.6C785.9 289.6 787.4 292.2 789 291.1Z" fill="#EC615B"/>
<path d="M813.3 264.1C822 265.9 830.4 268.4 838.6 271.7C840.4 272.4 841.2 269.5 839.4 268.8C831.2 265.5 822.8 263 814.1 261.2C812.2 260.8 811.4 263.7 813.3 264.1Z" fill="#EC615B"/>
<path d="M595.3 187C598.4 173 605.5 160.5 615.7 150.4C617.1 149 615 146.9 613.6 148.3C603 158.7 595.6 171.7 592.4 186.2C591.9 188.1 594.8 188.9 595.3 187Z" fill="#EC615B"/>
<path d="M617.3 190.2C632.2 178.6 649 169.9 667.1 164.3C668.9 163.7 668.2 160.8 666.3 161.4C647.7 167.1 630.5 176.1 615.2 188C613.7 189.3 615.8 191.4 617.3 190.2Z" fill="#EC615B"/>
<path d="M587.2 388C590.9 397.6 591.3 407.6 588.5 417.5C588 419.4 590.9 420.2 591.4 418.3C594.4 407.9 593.9 397.3 590.1 387.2C589.4 385.4 586.5 386.2 587.2 388Z" fill="#5222D0"/>
<path d="M612.8 391.3C618.1 397.7 624.7 402.9 632.1 406.6C633.8 407.5 635.3 404.9 633.6 404C626.3 400.4 620 395.4 614.9 389.1C613.7 387.7 611.6 389.8 612.8 391.3Z" fill="#5222D0"/>
<path d="M938.9 371.6C943.4 376.6 945.4 383.1 944.3 389.8C944 391.7 946.9 392.5 947.2 390.6C948.5 382.8 946.3 375.3 941 369.5C939.7 368 937.6 370.1 938.9 371.6Z" fill="#5222D0"/>
<path d="M963.8 367C967.5 371.2 971.1 375.3 974.8 379.5C976.1 381 978.2 378.8 976.9 377.4C973.2 373.2 969.6 369.1 965.9 364.9C964.7 363.4 962.6 365.5 963.8 367Z" fill="#5222D0"/>
<path d="M818.7 402.8C825.6 390.7 834.7 380.2 845.8 371.8C847.3 370.6 845.8 368 844.3 369.2C832.8 378 823.3 388.7 816.1 401.3C815.2 403 817.8 404.5 818.7 402.8Z" fill="#5222D0"/>
<path d="M1181.5 186.6C1189.56 186.6 1196.1 180.242 1196.1 172.4C1196.1 164.558 1189.56 158.2 1181.5 158.2C1173.44 158.2 1166.9 164.558 1166.9 172.4C1166.9 180.242 1173.44 186.6 1181.5 186.6Z" fill="#EC615B"/>
<path d="M1208.4 218.7C1215.19 218.7 1220.7 213.372 1220.7 206.8C1220.7 200.228 1215.19 194.9 1208.4 194.9C1201.61 194.9 1196.1 200.228 1196.1 206.8C1196.1 213.372 1201.61 218.7 1208.4 218.7Z" fill="#5222D0"/>
<path d="M470.6 286.2C472 293.5 473.7 301.2 475.9 309.2C483.2 335.3 493.6 357.1 503.9 374.5C506.9 375.2 511.2 376.2 516.5 376.8C523.8 377.7 535.6 379.2 548.9 375.4C552.1 374.5 550.7 374.6 564.8 368.8C578.9 363 579.7 363.2 585.1 360.8C594.3 356.8 602.6 351 618.9 339.7C623.6 336.4 630.1 331.8 637.7 326.1C638.2 322.9 638.8 318.2 638.7 312.5C638.5 303.5 636.6 297 633.9 287.6C629.6 272.9 626.6 262.9 624.7 256.6C620.9 254.2 616.8 251.8 612.1 249.6C596.6 242.1 581.9 239.1 570.6 237.9C559 238.8 549.8 240.9 543.6 242.6C516.4 250.1 497.7 264.2 486.1 273.1C479.2 278.3 473.9 283 470.6 286.2Z" fill="white"/>
<path d="M893.2 249.5C885.2 258.1 876.7 268.4 868.6 280.5C864.6 286.5 861.1 292.3 858 297.9C864.1 307 870.2 316.1 876.4 325.1C890.1 330.4 903.8 335.7 917.5 341.1C930.5 327.5 943.6 313.9 956.6 300.2C953.2 289.2 949.8 278.3 946.5 267.3C939.8 263.9 932.1 260.5 923.3 257.4C912.1 253.6 902 251.1 893.2 249.5Z" fill="white"/>
<path d="M469.6 287.1C473 319.3 487.2 348.6 502.6 376.7C503.5 378.4 506.1 376.9 505.2 375.2C490.1 347.7 475.9 318.8 472.6 287.1C472.4 285.2 469.4 285.1 469.6 287.1Z" fill="#161616"/>
<path d="M472.4 287.9C496.9 261.2 530.5 243.9 566.4 239.2C568.3 239 568.3 236 566.4 236.2C529.7 241 495.3 258.4 470.2 285.7C469 287.2 471.1 289.3 472.4 287.9Z" fill="#161616"/>
<path d="M566.6 238.8C582.9 263.3 590.5 291.8 597.8 319.9C598.3 321.8 601.2 321 600.7 319.1C593.3 290.7 585.6 262 569.2 237.3C568.1 235.7 565.5 237.2 566.6 238.8Z" fill="#161616"/>
<path d="M506.1 376.6C524.4 371.1 542 363.8 558.8 354.7C567.1 350.2 575.1 345.2 582.9 339.8C589.9 335 597.2 330 601 322.2C601.9 320.5 599.3 319 598.4 320.7C594.3 329 585.9 334.2 578.5 339.2C571.2 344.1 563.6 348.7 555.8 352.9C539.7 361.5 522.8 368.4 505.4 373.7C503.5 374.3 504.3 377.2 506.1 376.6Z" fill="#161616"/>
<path d="M568.2 239C588 239.8 607 246.4 623 258.2C624.6 259.3 626.1 256.7 624.5 255.6C608.1 243.5 588.6 236.8 568.2 236C566.3 235.9 566.3 238.9 568.2 239Z" fill="#161616"/>
<path d="M622.8 256.9C631.9 277.8 636.7 300.2 636.8 323.1C636.8 325 639.8 325 639.8 323.1C639.6 299.7 634.7 276.8 625.3 255.4C624.6 253.6 622.1 255.1 622.8 256.9Z" fill="#161616"/>
<path d="M599.1 322.5C611.5 330.5 626.2 328.3 639.7 324.7C641.6 324.2 640.8 321.3 638.9 321.8C626.2 325.2 612.4 327.4 600.7 319.9C599 318.9 597.5 321.5 599.1 322.5Z" fill="#161616"/>
<path d="M504.5 377.1C522.3 381.1 540.8 379.8 557.8 373.1C559.6 372.4 558.8 369.5 557 370.2C540.5 376.7 522.6 378.2 505.3 374.2C503.4 373.8 502.6 376.7 504.5 377.1Z" fill="#161616"/>
<path d="M558.6 372.9C588.3 361.7 615.9 345.6 640.1 325C641.6 323.7 639.4 321.6 638 322.9C614.2 343.1 587.1 359 557.9 370C556 370.7 556.8 373.6 558.6 372.9Z" fill="#161616"/>
<path d="M890.9 249.2C878.2 264.2 866.6 280.1 856.2 296.7C855.2 298.3 857.8 299.8 858.8 298.2C869.1 281.8 880.6 266.1 893 251.3C894.3 249.9 892.2 247.7 890.9 249.2Z" fill="#161616"/>
<path d="M892.3 251.8C910.3 254.7 927.6 260.4 943.7 268.7C945.4 269.6 946.9 267 945.2 266.1C928.8 257.6 911.3 251.9 893 248.9C891.2 248.6 890.4 251.5 892.3 251.8Z" fill="#161616"/>
<path d="M856.3 299.9C871.9 307 887.3 314.4 902.6 322.2C904.3 323.1 905.8 320.5 904.1 319.6C888.8 311.9 873.4 304.5 857.8 297.3C856 296.5 854.5 299.1 856.3 299.9Z" fill="#161616"/>
<path d="M944.5 267.3C931.1 285.2 918.1 303.4 905.5 321.9C906.2 321.7 906.9 321.5 907.6 321.4C906.5 320.8 905.4 320.1 904.2 319.5C902.5 318.5 901 321.1 902.7 322.1C903.8 322.7 904.9 323.4 906.1 324C906.8 324.4 907.7 324.1 908.2 323.5C920.7 305 933.7 286.7 947.2 268.9C948.2 267.3 945.6 265.8 944.5 267.3Z" fill="#161616"/>
<path d="M944.2 269C948.7 279.5 952 290.3 954.2 301.5C954.6 303.4 957.5 302.6 957.1 300.7C954.9 289.3 951.4 278.2 946.8 267.5C946.1 265.8 943.5 267.3 944.2 269Z" fill="#161616"/>
<path d="M906.5 324.2C910.4 329.4 913.8 334.8 916.8 340.6C917.7 342.3 920.3 340.8 919.4 339.1C916.4 333.3 913 327.9 909.1 322.7C908 321.2 905.4 322.7 906.5 324.2Z" fill="#161616"/>
<path d="M919.4 340.4C932.4 328.4 944.6 315.8 956.2 302.5C957.5 301 955.3 298.9 954.1 300.4C942.5 313.7 930.3 326.4 917.3 338.3C915.9 339.6 918 341.7 919.4 340.4Z" fill="#161616"/>
<path d="M856.6 300.7C863 309 869.4 317.4 875.8 325.7C877 327.2 879.6 325.7 878.4 324.2C872 315.9 865.6 307.5 859.2 299.2C858 297.7 855.4 299.1 856.6 300.7Z" fill="#161616"/>
<path d="M876.4 326.8C889.8 331.9 903.2 337 916.6 342.1C918.4 342.8 919.2 339.9 917.4 339.2C904 334.1 890.6 329 877.2 323.9C875.4 323.2 874.6 326.1 876.4 326.8Z" fill="#161616"/>
<path d="M501.2 260.1C513.9 293.7 526.7 327.3 539.4 361C548.9 363.7 558.5 366.3 568 369C575.1 365.8 582.2 362.5 589.3 359.3C581.2 355.8 573.1 352.3 565 348.8C552 314.8 539 280.7 526 246.7C522.4 248.3 518.6 250.1 514.7 252.2C509.6 254.7 505.2 257.5 501.2 260.1Z" fill="#EC615B"/>
<path d="M592.7 240.3C600.9 255.1 609.8 275.8 613.5 301.5C614.7 309.9 615.2 317.9 615.2 325.1C599.3 337.3 579.9 350.2 556.6 362.2C543.6 368.9 531 374.5 519.3 379.1C525.8 379.1 532.3 379.1 538.8 379.1C552.7 373.3 568.1 366 584.4 356.7C602.1 346.6 617.3 336.1 630 326.3C627.6 314.3 625 302 622.2 289.6C619.1 275.9 615.9 262.6 612.7 249.5C610.9 247.7 607.9 245.2 603.6 243.2C599.2 241.2 595.3 240.5 592.7 240.3Z" fill="#EC615B"/>
<path d="M513.3 252.5C511.1 250.7 514 239.9 522 236.5C528.1 233.9 536 236 541.5 242C538.4 242.9 533.7 244.3 528.1 246.6C518.1 250.7 514.8 253.7 513.3 252.5Z" fill="#EC615B"/>
<path d="M527.2 242C531.9 239 538.7 233.8 544.6 225.5C554.7 211.2 555.5 196.6 555.4 190.5C557.1 190 567.2 186.9 572.8 191.8C580.4 198.4 573.4 214.2 571.9 217.5C567.5 227.4 560.3 232.8 558 234.4C545.2 243.4 531.2 242.4 527.2 242Z" fill="#EC615B"/>
<path d="M476 215.4C481 214.6 483.8 223.5 494.2 232.3C503.5 240.1 513.9 243.6 522 245.4C518.6 248 512.2 252.3 503.3 253.4C490.4 255 472.8 250.1 468.6 237.8C465.5 228.5 470.4 216.2 476 215.4Z" fill="#EC615B"/>
<path d="M911.6 253.3C898.7 270.5 885.7 287.7 872.8 304.9C877.4 313.3 882 321.7 886.7 330.1C890.7 331.7 894.7 333.4 898.7 335C895.8 328 892.9 320.9 889.9 313.9C901.4 295 913 276.2 924.5 257.3C920.2 256 915.9 254.7 911.6 253.3Z" fill="#5222D0"/>
<path d="M950.8 281.1C937.6 295.8 924.3 310.4 911.1 325.1C895.7 320.6 880.3 316.1 864.9 311.6C867.5 314.9 870.1 318.2 872.7 321.5C887.2 326.3 901.6 331.1 916.1 335.9C928.6 321.8 941 307.8 953.5 293.7C952.7 289.5 951.8 285.3 950.8 281.1Z" fill="#5222D0"/>
<path d="M924.5 256.9C925 254.8 932.4 252.7 937.4 256.5C940.6 258.9 942.5 263.6 941.1 265C938.5 267.6 923.8 260.1 924.5 256.9Z" fill="#5222D0"/>
<path d="M916.7 224.6C918.9 223.4 923.3 227.2 924.5 228.2C925.7 229.2 929.9 233 932.8 243.9C934.3 249.4 936.5 257.6 934.2 258.7C931.6 260 923.7 251.8 919.4 243C916.1 236 913.8 226.2 916.7 224.6Z" fill="#5222D0"/>
<path d="M974.7 260.1C974.9 257.7 969.5 255.8 968 255.3C966.6 254.8 961.3 253.1 950 255.6C944.3 256.9 935.9 258.8 935.8 261.2C935.7 264 946.7 266.7 956.6 266.2C964.5 265.8 974.4 263.2 974.7 260.1Z" fill="#5222D0"/>
<path opacity="0.09" d="M505.3 376.2C511.2 374.1 519.9 371 530.3 366.6C548 359.2 560.5 354 574.4 344.6C581.3 339.9 590.6 332.7 600.5 322.2C605.4 312.4 611.4 297.8 613.7 279.2C615.1 267.9 614.9 257.9 614.1 249.8C617.7 251.9 621.2 254 624.8 256C628.4 265.4 632.1 276.9 634.7 290.2C637.3 303.1 638.4 314.8 638.7 324.7C627.9 334.1 618.3 341.1 611.1 346C576.4 369.7 552.5 375.3 547.2 376.5C539 378.3 532.7 378.6 529.9 378.7C519.4 379.1 510.9 377.5 505.3 376.2Z" fill="#353535"/>
<path opacity="0.09" d="M858.3 298.3C864.7 307.4 871 316.5 877.4 325.5C890.7 330.7 904.1 335.8 917.4 341C930.1 327.2 942.8 313.5 955.5 299.7C952.4 289.1 949.2 278.5 946.1 267.9C933.1 285.5 920.1 303.1 907.1 320.7C890.8 313.3 874.5 305.8 858.3 298.3Z" fill="#353535"/>
<path d="M694.1 1067.7C698.1 1062.7 700.5 1060.4 701.4 1061C703.7 1062.4 695.5 1082.6 676.7 1121.7C630.6 1123.9 607.2 1122.8 606.6 1118.3C606.1 1114.4 623.2 1107.9 657.9 1098.9C665.5 1082.8 673.1 1066.7 680.7 1050.6C685.2 1056.3 689.6 1062 694.1 1067.7Z" fill="black"/>
<path d="M717.5 748.9C713.7 775.8 709.3 803.2 704.5 831C690.3 912.6 673 989.9 653.7 1062.6C656.5 1065.7 663.8 1072.8 675.8 1076.1C690.9 1080.2 703.4 1075.7 707 1074.3C729.6 995.3 752.1 916.2 774.7 837.2C804.4 804.8 798.7 762.9 776 747.7C761 737.7 737.8 739.1 717.5 748.9Z" fill="#8C3566"/>
<path opacity="0.15" d="M718.7 750.6C721.6 750.9 719.8 795.8 717.5 836.2C712.3 927.9 695.2 1008.4 674.9 1075.5C672.7 1074.9 670.1 1074 667.5 1072.7C661.1 1069.5 656.8 1065.3 654.3 1062.3C660.4 1040.5 669.2 1007.7 678.3 967.5C706.8 841.6 714.6 750.3 718.7 750.6Z" fill="#353535"/>
<path opacity="0.13" d="M701.8 855.5C699.6 881.9 696.4 909.7 691.9 938.7C684.6 986.4 674.9 1030.2 664.2 1069.9C663 1069.7 661.2 1069.2 659.2 1067.9C656.5 1066.1 655.2 1063.8 654.7 1062.7C662.7 1029.4 670.5 995.8 678.3 961.9C686.4 926.1 694.2 890.6 701.8 855.5Z" fill="#353535"/>
<path d="M885.6 1064.7C881.2 1059.7 878.5 1057.4 877.5 1058C875 1059.4 884 1079.6 904.6 1118.7C955.3 1120.9 980.9 1119.8 981.6 1115.3C982.2 1111.4 963.4 1104.9 925.2 1095.9C916.8 1079.8 908.5 1063.7 900.1 1047.6C895.3 1053.3 890.5 1059 885.6 1064.7Z" fill="black"/>
<path d="M755.9 772.8C752.2 790.6 760.6 805.3 763.7 810.2C796.7 898.4 829.6 986.7 862.6 1074.9C868.2 1075.7 879.8 1076.5 893.2 1071.8C908.3 1066.5 917.1 1057 920.5 1052.8C900.8 1010.8 888.4 975.6 880.8 951.7C860.9 889.2 834.1 828.8 815.1 766C811.9 755.5 806.5 737.1 794.3 734.8C780.1 732.2 760.2 751.8 755.9 772.8Z" fill="#8C3566"/>
<path opacity="0.1" d="M786.9 735.4C780 740.4 792.8 767.1 798.9 780.4C813.6 812.5 821.2 847.4 835.3 879.8C850.5 914.7 872.8 971.2 904.3 1066C906.5 1064.9 909.3 1063.4 912.1 1061.1C915.8 1058.1 918.3 1055 919.9 1052.6C912 1035.5 900.6 1009.6 888.6 977.3C884.3 965.8 883.8 963.7 879.1 949.3C874.1 934 866.3 910.8 864.7 906.1C857.2 884.5 857.2 887.4 843.1 849.1C840.1 841 836 829.8 831.1 815.2C828.7 808.1 826.9 802.4 825.6 798.3C825.4 797.7 818.8 777.2 809.5 752.9C807.1 746.5 804.5 740.2 798 736.9C797.6 736.6 790.3 732.9 786.9 735.4Z" fill="#353535"/>
<path opacity="0.12" d="M835.7 828.5C835.1 828.7 848.5 870.4 912.6 1060.6C915.2 1058.1 917.8 1055.6 920.4 1053C916.5 1044.3 910.4 1030.5 903.4 1013.3C887.3 974 880.4 951.1 862.4 900.6C852.4 872.5 836.3 828.3 835.7 828.5Z" fill="#353535"/>
<path d="M864 456.1C861.7 456.3 860.1 449.5 857.6 449.6C855.6 449.7 854.2 454.2 854.1 454.8C852.9 458.9 853.5 463.1 857.6 474.1C858.8 477.3 860.4 481.4 862.5 486.1C861.4 493.9 859.4 504.7 855.8 517.4C851.3 533.1 843.7 558.9 823.6 585.5C817.4 593.7 808.1 604.6 794.6 615.8C790.1 626.6 789.5 635.6 789.7 641.2C789.8 644.5 790.2 659.4 795.7 660.8C799.4 661.7 803.8 656.3 806 653.6C828.4 625.3 839.7 611.2 844.2 603C854.7 584.2 863.2 568.9 870.4 545.9C875.7 529.1 878.2 514.4 879.6 503.6C881.9 499.8 885.1 494.4 888.8 487.8C898.9 469.8 902.5 461.7 904.7 452.7C907 443.4 907.4 435.4 905.1 434.5C903.4 433.9 901.3 437 899.4 436.2C896.6 435 899.6 426.7 896.6 424.9C895.5 424.2 893.3 424.3 888.8 427.3C885.7 420.8 883.7 419.6 882.4 419.7C879.7 420.1 878.4 427.5 877.8 435.9C877 431.8 875 423.2 872.5 423.2C870.4 423.2 868.2 429.5 867.6 434.5C866.7 441.4 868.7 446.4 866.2 453.4C865.7 454.4 865 455.9 864 456.1Z" fill="white"/>
<path d="M860.5 484.8C860.2 498 856 510.7 852 523.2C848.1 535 843.7 546.7 838.3 557.9C828.3 578.7 814.8 597.7 797.1 612.6C795.6 613.8 797.8 616 799.2 614.7C817.6 599.3 831.4 579.4 841.6 557.8C846.9 546.6 851.3 535 855.1 523.2C859.1 510.8 863.2 498.1 863.4 484.9C863.6 482.9 860.6 482.9 860.5 484.8Z" fill="#161616"/>
<path d="M878.3 502.2C875.6 533.8 861.8 563.5 847.8 591.5C835 617.1 819.5 642 796.4 659.5C794.9 660.7 796.4 663.3 797.9 662.1C821.5 644.2 837.4 619.1 850.4 593C864.7 564.5 878.5 534.3 881.3 502.2C881.4 500.3 878.4 500.3 878.3 502.2Z" fill="#161616"/>
<path d="M863 483.2C859.6 475.9 856.4 467.4 855.9 459.3C855.8 458.2 855.6 453.5 856.4 452.9C858.9 451.2 859.6 454.1 860.2 455.3C861.3 457.4 862.1 458.9 864.2 460.1C865.9 461 867.4 458.5 865.7 457.5C862.2 455.5 862.5 450 858.5 448.5C855.1 447.2 853.9 450 853.2 452.9C850.8 463.2 856 475.5 860.2 484.7C861.3 486.5 863.8 484.9 863 483.2Z" fill="#161616"/>
<path d="M866.4 459.2C869.8 451.4 869 443.4 869.3 435.1C869.4 433.2 869 428.8 870.1 427.3C872.1 424.8 873.6 430.1 874.1 431.8C875.5 437.2 875.8 442.6 875.4 448.1C875.2 450 878.2 450 878.4 448.1C878.7 444.3 878.3 417.8 869.8 422.1C866.3 423.9 866.5 431 866.4 434.1C866.1 442 867.2 450.1 863.9 457.6C863.1 459.4 865.7 461 866.4 459.2Z" fill="#161616"/>
<path d="M878.7 448.3C879.3 444.7 879.8 441.1 880.1 437.4C880.4 433.3 879.8 428.7 881.1 424.8C882.2 421.2 882.8 420.5 884.3 423.7C885.4 426 885.8 428.4 886.1 430.8C886.6 435.3 887 440.6 885.6 445C885 446.9 887.9 447.6 888.5 445.8C890.1 440.5 889.7 434 888.8 428.6C888.3 425.7 886.7 418.1 882.8 418.1C879.4 418.1 878 423.8 877.7 426.2C876.7 433.2 876.9 440.4 875.8 447.4C875.5 449.4 878.4 450.2 878.7 448.3Z" fill="#161616"/>
<path d="M889.6 445.7C890 442.6 890 439.4 890 436.3C890.1 433.6 889.9 426.4 893.3 426.7C895.8 426.9 895.6 429 895.8 431.2C895.9 432.7 895.9 434.3 895.9 435.8C895.9 439.5 895.7 443.1 895 446.8C894.6 448.7 897.5 449.5 897.9 447.6C898.9 442.7 902.3 422.6 893.3 422.4C885 422.2 887.2 441.2 886.6 445.8C886.4 447.6 889.4 447.6 889.6 445.7Z" fill="#161616"/>
<path d="M900.3 436.9C901.5 436.8 902.6 436.7 903.8 436.6C904 437.5 904.2 438.4 904.3 439.4C904.5 441.2 904.6 442.9 904.6 444.7C904.5 447.9 904 451.2 903.1 454.3C901.5 460.4 898.8 466.2 895.8 471.8C890.3 482.2 884.4 492.5 878.7 502.8C877.8 504.5 880.4 506 881.3 504.3C886.1 495.6 891 486.9 895.8 478.2C900.3 470.1 904.8 461.6 906.7 452.4C907.7 447.4 909.8 435.9 904.6 432.4C901.3 430.1 897 433.2 897.4 437C897.5 438.8 900.5 438.8 900.3 436.9Z" fill="#161616"/>
<path opacity="0.08" d="M895.2 425.6C893.7 425.7 893.3 431.9 892.3 439.3C890.7 452.3 888.9 466.9 882.7 479.1C880.7 483.1 877.1 489 870.6 495.4C869.6 502.5 867.7 512.7 864.5 524.7C858.9 545.7 850.7 575.5 827.5 603.4C821.2 610.9 811.5 621.3 797.2 631.4C796.8 641.2 796.4 650.9 795.9 660.7C802.1 656 811.1 648.5 820.4 637.8C832.6 623.7 840.5 607.7 855.8 576.3C868 551.2 871.3 541.5 873.3 534.5C877.1 521.7 879 510.6 880 502.6C886.8 491.9 891.8 482.4 895.3 474.9C901.4 461.9 911.2 440.9 905.2 435.7C903.5 434.3 901 434.4 899.1 434.7C898.2 430.5 896.6 425.5 895.2 425.6Z" fill="#353535"/>
<path opacity="0.1" d="M891.4 484.2C886.1 489.8 880.8 495.5 875.5 501.1C875 505.9 874.1 513 872 521.5C868 537.5 862.2 548.7 859.9 553.4C854 565.2 846.3 583.2 838.9 610.1C842.2 604.4 859.7 574 869.5 548C873.2 538 875.2 532.8 876.8 524.7C878.8 515 878.3 510.5 880.9 502.7C883.8 494.2 888.2 488 891.4 484.2Z" fill="#353535"/>
<path d="M613.6 434.2C610.4 435.1 610.3 443.8 610.8 448.7C611.6 457.4 615 463.9 616.5 466.7C622.9 478.5 629.1 489.6 635.4 500.3C636.2 507.5 637.6 517.3 640.4 528.7C645.3 548.7 651.6 562.3 660.3 581C674.1 610.5 682.3 627.4 699.8 645.4C706.4 652.1 712.4 657.1 716.5 660.3C718 658.6 727.2 648 725.4 632.9C724 620.6 716.2 613.1 714 611.1C709.2 607.1 701.9 600.6 694.4 591.4C678.6 571.8 672 552.2 662.4 522.8C659.8 514.8 656.3 503.5 652.8 489.6C654.7 483.4 656.3 478.5 657.4 475.4C660.7 465.9 662.8 461.1 661.3 455C660.9 453.4 660.1 450.4 658.1 449.8C655.8 449.2 652.3 452 649.6 457.1C648.1 448.9 647.4 442.1 647.1 437C646.7 429.6 646.9 424.2 645.3 423.8C643.6 423.4 641 429.4 640.7 430C638.2 435.6 638.2 440.9 638.6 444.2C639.4 425.6 637.3 420.9 635 420.3C633.1 419.8 630.7 422.3 630 423.1C625.3 428.1 627.7 435.4 627.9 435.9C625.8 424.8 623.6 424.1 622.9 424.1C621.1 424 619.3 428 618.6 430.3C617.8 433.1 618.3 435.6 618.6 436.9C617 435.4 615.1 433.8 613.6 434.2Z" fill="white"/>
<path d="M651.9 485C652.2 497.8 655.9 510.2 659.7 522.4C663.5 534.5 667.8 546.4 673.1 557.9C683 579.4 696.4 599.3 714.3 614.8C715.8 616.1 717.9 613.9 716.4 612.7C699.1 597.7 686.1 578.7 676.4 558C671.1 546.8 666.8 535.1 663.1 523.3C659.1 510.8 655.1 498.1 654.8 484.9C654.8 483.1 651.8 483.1 651.9 485Z" fill="#161616"/>
<path d="M634.7 502.5C637.3 534.1 650.5 563.8 664.1 592.1C676.7 618.4 692.2 644 715.4 662.2C716.9 663.4 719 661.3 717.5 660.1C694.8 642.4 679.8 617.6 667.3 592.1C653.6 563.9 640.2 534.1 637.6 502.6C637.5 500.6 634.5 500.6 634.7 502.5Z" fill="#161616"/>
<path d="M655 485C659.2 475.6 664.5 462.9 661.6 452.4C660.9 449.8 659.6 447.7 656.6 448.9C652.7 450.4 653.1 455.9 649.6 457.9C647.9 458.9 649.4 461.5 651.1 460.5C652.7 459.6 653.6 458.4 654.5 456.8C654.9 456 655.3 454.2 656 453.6C659.9 450.7 659.2 457 659.2 458.8C659 467.2 655.7 476 652.3 483.6C651.6 485.2 654.2 486.7 655 485Z" fill="#161616"/>
<path d="M651.6 457.9C648.5 450.7 649.4 442.9 649.2 435.3C649.1 432.1 649.5 424.3 645.8 422.4C637.5 418.1 637 444.7 637.3 448.4C637.5 450.3 640.5 450.3 640.3 448.4C639.9 443.2 640.1 438 641.3 432.9C641.6 431.6 642.7 425.6 645.2 426.7C646.3 427.2 646.2 434.1 646.2 435.3C646.4 443.6 645.7 451.6 649 459.4C649.8 461.2 652.4 459.7 651.6 457.9Z" fill="#161616"/>
<path d="M640 447.7C638.9 440.7 639.1 433.6 638.1 426.7C637.8 424.2 636.5 418.5 633 418.4C629.4 418.3 627.8 425.5 627.3 428.1C626.2 433.8 625.8 440.5 627.4 446.1C627.9 447.9 630.8 447.2 630.3 445.3C629.1 441.3 629.4 436.7 629.7 432.5C629.9 430 630.3 427.4 631.2 425C632.7 421.2 633.3 420.4 634.7 425C635.8 428.7 635.3 433 635.6 436.8C635.9 440.7 636.4 444.6 637.1 448.5C637.4 450.4 640.3 449.6 640 447.7Z" fill="#161616"/>
<path d="M629.5 445.9C628.9 441.4 631.1 422.2 622.9 422.5C614.1 422.8 617.5 442.9 618.4 447.7C618.8 449.6 621.7 448.8 621.3 446.9C620.6 443.3 620.4 439.6 620.4 435.9C620.4 433.2 619.6 427.1 622.8 426.8C626.1 426.5 625.9 433.8 626 436.4C626.1 439.6 626 442.7 626.4 445.8C626.7 447.8 629.8 447.9 629.5 445.9Z" fill="#161616"/>
<path d="M619.2 437.1C619.6 433.4 615.5 430.2 612.2 432.5C607.3 435.9 609.1 446.8 610 451.6C611.6 460.5 615.6 468.7 619.9 476.7C624.8 486 629.9 495.2 634.8 504.4C635.7 506.1 638.3 504.6 637.4 502.9C631.7 492.3 625.8 481.8 620.3 471.1C617.6 465.8 615.1 460.3 613.7 454.4C612.9 451.3 612.4 448.1 612.3 444.8C612.3 443.6 612.3 442.4 612.4 441.1C612.4 439.8 612.6 438.5 612.9 437.3C613 435.8 614.2 435.7 616.3 437C616 439 619 439 619.2 437.1Z" fill="#161616"/>
<path opacity="0.09" d="M623.7 425C626.5 426 624.5 438 624 442.5C622.9 452.8 625.2 468.4 641.5 490.6C645.8 512 654 541.2 670.8 572.8C685 599.6 701.1 620 714.5 634.6C715.5 643.4 716.4 652.2 717.4 661.1C711.2 656.8 702.6 650 694.1 640.1C686.7 631.4 682.3 623.8 675.9 611.7C659.4 580.4 651.1 564.7 645.3 545.7C642.1 535.3 638.3 520.3 636.1 501.7C628.2 491.5 622.8 482.1 619.2 474.9C612.2 461 610.4 452.2 610.6 444.3C610.8 435.3 612.4 434.1 613.1 433.8C614.6 433.2 616.6 434.4 617.9 435.4C617.8 434.9 616.8 430.4 619.8 427.1C620.3 426.7 622.3 424.5 623.7 425Z" fill="#353535"/>
<path opacity="0.09" d="M615.7 460.7C616.7 460.2 622.8 468.8 627.2 476C637.5 492.9 641.7 508 642.8 511.7C649.4 534.6 657.9 554 675 592.7C680.2 604.4 688.1 621.4 699.2 641.5C696 638.5 691.4 634 686.5 628.1C682.2 623 668.1 605.7 653.4 566C647.7 550.5 641 529.6 636.2 503.9C632.8 498.1 628.1 489.8 623.1 479.4C620.9 474.7 614.6 461.3 615.7 460.7Z" fill="#353535"/>
<path d="M757.7 602.4C754.2 602.1 748 601.6 739.9 602.4C730.5 603.4 722.1 604.2 715.8 609.7C711.1 613.8 709.7 618.9 707.1 629C705.6 634.9 703.6 642.9 703.8 653.7C704.2 673.7 711.8 676.3 715.8 700.5C717.8 712.2 717.6 721.3 717.5 732.2C717.3 746.7 715.8 759 714.2 768.5C718.5 771.9 725.1 776.5 734.1 780.1C739.6 782.3 755.2 788.2 775.2 784.7C796.2 781.1 809.1 769.3 813.4 765C806.4 746.1 805.7 730.9 806.3 720.6C807.1 708.1 809.7 705.4 813.4 678.5C816.2 658.5 816.1 650.2 815.9 645.7C815.2 627.7 814.8 618.6 808.8 612.5C802.9 606.5 787.8 605.1 757.7 602.4Z" fill="white"/>
<path d="M752.7 601.7C745.3 601.2 737.9 601.6 730.6 602.9C724.4 604 718 605.1 713.9 610.2C706.4 619.4 703.2 632.1 702.6 643.7C701.1 673.3 715.8 700.3 720.8 728.9C721.1 730.8 724 730 723.7 728.1C719.2 702.3 706.8 678.2 705.6 651.8C705.1 639.7 706.9 627.3 713.1 616.7C715.2 613.1 717.5 609.6 721.6 608.1C724.4 607.1 727.5 606.5 730.4 605.9C737.7 604.5 745.2 604.2 752.6 604.6C754.6 604.8 754.6 601.8 752.7 601.7Z" fill="#161616"/>
<path d="M713.9 700.1C716.8 722.1 716.5 744.3 712.9 766.2C712.6 768.1 715.5 768.9 715.8 767C719.5 744.8 719.9 722.4 716.9 700.1C716.6 698.2 713.6 698.2 713.9 700.1Z" fill="#161616"/>
<path d="M765 604.4C778.4 603.6 794.9 605.2 806.3 613.2C813.2 618.1 813.5 626.3 814.2 634C814.9 640.9 815.2 647.8 814.7 654.8C812.7 682.1 801.7 708 801.8 735.6C801.8 737.5 804.8 737.5 804.8 735.6C804.7 704.5 818.9 675.2 817.9 644C817.5 632.1 817.9 616.8 806.5 609.8C794.6 602.5 778.7 600.6 765 601.4C763 601.5 763 604.5 765 604.4Z" fill="#161616"/>
<path d="M804.9 705.6C804.7 725.2 807.1 744.6 811.9 763.6C812.4 765.5 815.3 764.7 814.8 762.8C810.1 744.1 807.7 724.9 807.9 705.6C807.9 703.7 804.9 703.7 804.9 705.6Z" fill="#161616"/>
<path d="M713.1 769C726.7 780.3 744 787.1 761.8 787.2C781.9 787.3 798.7 777.5 814.2 765.6C815.7 764.4 814.2 761.8 812.7 763C798 774.2 782.3 783.8 763.4 784.1C745.9 784.4 728.7 777.9 715.3 766.8C713.7 765.6 711.6 767.7 713.1 769Z" fill="#161616"/>
<path opacity="0.11" d="M788.8 603.7C791.9 611.2 795.9 622.5 797.9 636.6C801.8 664.9 795.2 686.6 787.3 711.7C781.4 730.4 771.5 756.2 754.1 785.1C759.6 785.6 766.4 785.6 774 784.2C793.8 780.6 807 769.8 812.9 764.3C812.2 759.3 811 751.5 809.3 742.1C806.6 727.4 805.7 726.3 805.4 721C805 714.5 806.1 715.3 812 687.8C814.3 677 816 667.2 817 654.4C817.1 653.3 817.1 652.2 817.2 651.1C817.7 634.6 817.9 624.5 810.9 615.9C804.2 607.7 794.5 604.8 788.8 603.7Z" fill="#353535"/>
<path opacity="0.08" d="M817.7 651.6C817 651.4 813.5 656.9 805.3 678.8C796.3 702.9 785.2 737.6 776.6 782.5C781 781.9 787.1 780.6 793.8 777.6C802.8 773.5 808.8 768 812.2 764.3C809.2 753.8 805.8 738.2 805.9 719.2C806 681.8 819.3 652.1 817.7 651.6Z" fill="#353535"/>
<path d="M721.6 529.6C717.7 537.6 718.8 545.7 719.7 549.5C719.3 549.5 714.6 549.3 712.1 552.7C709.1 556.7 711.9 561.7 712.4 562.5C713.1 563.7 714 565.4 715.9 565.9C718.9 566.8 721.7 564.2 721.9 564C723.4 567.8 725.9 572.6 729.8 577.5C735.8 585.1 742.5 589.6 747 592.1C747.2 596.9 747.4 601.6 747.5 606.4C748.6 607.4 750.9 609.2 754.3 609.8C761 611.1 766.2 606.7 766.8 606.1C766.7 600.1 766.6 594.1 766.5 588.1C769.1 586.1 772.1 583.3 775 579.6C780.8 572 782.9 564.3 783.7 559.7C784.8 560.1 786.6 560.5 788.9 560.5C791.1 560.5 793.9 560.4 795.2 558.6C796.6 556.6 795.1 553.7 793.6 550.6C792.1 547.7 791 547.3 790.6 547.2C788.9 546.7 787.3 547.7 786.8 548C787.2 544.8 787.4 538.8 784.9 532.1C784.2 530.2 780.2 520 770.5 514.6C754.6 506 729.6 513.3 721.6 529.6Z" fill="white"/>
<path d="M719.8 529.8C713.9 555.7 723.5 589.1 752.9 594.7C754.8 595.1 755.6 592.2 753.7 591.8C725.9 586.5 717.2 555 722.7 530.6C723.1 528.7 720.2 527.9 719.8 529.8Z" fill="#161616"/>
<path d="M753.3 594.6C757.4 595.8 763 591.9 766.3 589.7C770.7 586.8 774.6 583.1 777.7 578.8C785.4 568.5 788.3 555.5 787.1 542.9C786.9 541 783.9 541 784.1 542.9C785.2 553.8 783.2 564.9 777.3 574.2C774.8 578.1 771.7 581.6 768.1 584.6C765.2 587 758.1 592.8 754.1 591.7C752.2 591.2 751.4 594.1 753.3 594.6Z" fill="#161616"/>
<path d="M744.5 592.2C746 596.3 746.4 600.6 745.7 604.9C745.4 606.8 748.3 607.6 748.6 605.7C749.4 600.8 749.1 596.1 747.4 591.4C746.8 589.6 743.9 590.3 744.5 592.2Z" fill="#161616"/>
<path d="M765.2 588.8C764.7 593.9 765.1 598.9 766.4 603.9C766.9 605.8 769.8 605 769.3 603.1C768.1 598.4 767.8 593.6 768.2 588.8C768.4 586.9 765.4 586.9 765.2 588.8Z" fill="#161616"/>
<path d="M745.8 606.8C752.7 614.5 767.1 614.3 769.6 602.6C770 600.7 767.1 599.9 766.7 601.8C764.6 611.3 753.4 610.7 747.9 604.7C746.6 603.3 744.5 605.4 745.8 606.8Z" fill="#161616"/>
<path d="M746.4 594.2C752.2 599.5 761.3 598.3 765 591.2C765.9 589.5 763.3 588 762.4 589.7C759.6 595 752.9 596.2 748.5 592.1C747.1 590.8 745 592.9 746.4 594.2Z" fill="#161616"/>
<path d="M752.4 596.4C753.8 596.3 755.1 596.4 756.4 596.8C758.3 597.3 759.1 594.4 757.2 593.9C755.6 593.5 754 593.3 752.4 593.4C750.5 593.5 750.5 596.5 752.4 596.4Z" fill="#161616"/>
<path d="M720.1 564.3C716 567.6 712.4 563 712 559.1C711.5 555.3 714.8 550.6 719 553.2C720.6 554.2 722.1 551.6 720.5 550.6C714.3 546.7 708.3 553.3 709 559.5C709.8 566.1 716.3 571.2 722.2 566.4C723.7 565.2 721.6 563.1 720.1 564.3Z" fill="#161616"/>
<path d="M787.6 549.7C790.8 546.7 793.9 552.4 793.8 555C793.8 556.6 793 558.2 791.6 559.1C790.5 559.8 787.9 560.7 787 559.3C786 557.7 783.4 559.2 784.4 560.8C785.9 563.3 789.3 563.4 791.8 562.4C794.7 561.2 796.6 558.5 796.7 555.4C797 549.9 790.7 542.6 785.4 547.6C784.1 548.9 786.2 551.1 787.6 549.7Z" fill="#161616"/>
<path d="M747.4 529.5C748.2 536.5 747.8 543.1 747.1 550.1C746.7 554.8 749.2 556.8 752.9 559.8C754.4 561 756.5 558.9 755 557.7C752.4 555.5 750.1 554 750.2 550C750.2 548.1 750.7 546 750.9 544.1C751.3 539.2 751.1 534.3 750.5 529.5C750.2 527.6 747.2 527.6 747.4 529.5Z" fill="#161616"/>
<path d="M730.7 543.7C730.6 541.5 733.8 540.1 735.6 540.2C737.7 540.2 738.8 541.9 739.9 543.5C741 545.1 743.6 543.6 742.5 542C740.5 539.1 738.2 536.7 734.4 537.3C731.2 537.9 727.5 540.2 727.6 543.8C727.7 545.7 730.7 545.7 730.7 543.7Z" fill="#161616"/>
<path d="M765 541C767.7 535.9 775 536.7 776.3 542.4C776.7 544.3 779.6 543.5 779.2 541.6C777.4 533.4 766.3 532.1 762.4 539.4C761.6 541.1 764.1 542.7 765 541Z" fill="#161616"/>
<path d="M727.8 533.1C729.5 530.5 732.4 528.8 735.5 528.4C737.4 528.2 737.4 525.2 735.5 525.4C731.2 525.9 727.6 528 725.2 531.6C724.1 533.2 726.7 534.7 727.8 533.1Z" fill="#161616"/>
<path d="M765 527.5C768.6 527.3 771.9 528.4 774.5 530.8C775.9 532.1 778.1 530 776.6 528.7C773.4 525.8 769.3 524.3 764.9 524.5C763 524.6 763 527.6 765 527.5Z" fill="#161616"/>
<path d="M731.5 551.4C731.5 551.3 731.5 551.3 731.5 551.2C731.5 550.4 730.8 549.7 730 549.7C729.2 549.7 728.5 550.4 728.5 551.2C728.5 551.3 728.5 551.3 728.5 551.4C728.5 552.2 729.2 552.9 730 552.9C730.8 552.9 731.5 552.3 731.5 551.4Z" fill="#161616"/>
<path d="M736.1 550.7C736.2 550.7 736.3 550.7 736.3 550.7C737.1 550.7 737.8 550 737.8 549.2C737.8 548.4 737.1 547.7 736.3 547.7C736.2 547.7 736.1 547.7 736.1 547.7C735.3 547.7 734.6 548.4 734.6 549.2C734.7 550 735.3 550.7 736.1 550.7Z" fill="#161616"/>
<path d="M735.9 557.3C736 557.3 736.1 557.3 736.1 557.3C736.9 557.3 737.6 556.6 737.6 555.8C737.6 555 736.9 554.3 736.1 554.3C736 554.3 735.9 554.3 735.9 554.3C735.1 554.3 734.4 555 734.4 555.8C734.4 556.6 735.1 557.3 735.9 557.3Z" fill="#161616"/>
<path d="M768.3 548.5C768.4 548.5 768.5 548.5 768.5 548.5C769.3 548.5 770 547.8 770 547C770 546.2 769.3 545.5 768.5 545.5C768.4 545.5 768.3 545.5 768.3 545.5C767.5 545.5 766.8 546.2 766.8 547C766.9 547.8 767.5 548.5 768.3 548.5Z" fill="#161616"/>
<path d="M777.1 548.3C779 548.3 779 545.3 777.1 545.3C775.2 545.3 775.2 548.3 777.1 548.3Z" fill="#161616"/>
<path d="M773.8 553.1C775.7 553.1 775.7 550.1 773.8 550.1C771.8 550.1 771.8 553.1 773.8 553.1Z" fill="#161616"/>
<path d="M740.7 566.2C746.8 577.2 762.8 575.6 766.7 563.7C767.3 561.9 764.4 561.1 763.8 562.9C760.7 572.5 748.1 573.3 743.3 564.7C742.4 563 739.8 564.5 740.7 566.2Z" fill="#161616"/>
<path d="M705 541.7C701.3 547.2 696 556.7 693.9 569.4C692.4 578.5 689.8 594.4 699.8 607C702.5 610.4 712.4 621.5 726 619.7C735.1 618.5 744.8 611.7 746.6 602.2C747.5 597.8 746.5 594 745.6 591.8C741.3 589.7 733.6 585.3 727.6 576.7C724.6 572.5 722.8 568.4 721.8 565.2C721.3 565.6 719.7 566.8 717.5 566.7C714.9 566.6 713.3 564.8 712.9 564.3C709.8 560.8 710.1 553.6 714.2 551.2C716.3 550 718.7 550.4 720 550.7C719.4 547 718.8 539.1 723 530.8C725.8 525.2 730.1 521.1 740 514.9C748.2 509.8 751.8 510.2 753.1 510.4C757.5 511.2 760.2 514.7 761.6 516.5C767.9 524.5 776.1 534.8 785.9 547.5C786.3 547.3 789 546 791.7 547.2C793.6 548.1 794.5 549.8 795.1 551.1C795.6 552.2 796.4 553.8 796 555.7C795.6 558.1 793.7 560.3 791.1 561.1C787.9 562.1 785.3 560.4 784.9 560.1C784.1 563.9 782.5 569.6 778.7 575.7C774.8 581.9 770.3 586 767.2 588.4C766.8 590.8 766.3 595.2 768.2 600.2C771.2 608.4 779 613.6 786.2 615.2C799.7 618.1 810.6 608 813.4 605.3C823 596.3 828.8 581.2 823.9 566.7C820.2 555.9 812 550 808.8 547.9C804.9 538.9 800.9 531.9 797.7 526.9C788.7 512.8 782.5 503.3 771.2 499.8C764.3 497.7 758 498.5 753.8 499.5C747 498 741.7 498.6 738.1 499.5C721.5 503.6 708.9 520.2 705 541.7Z" fill="#58265B"/>
<path opacity="0.08" d="M773.6 530.6C772.8 530.9 774.4 536.1 775.2 541.3C775.3 542 777 554.9 772.2 567.2C766.8 581 755.6 588.4 750.7 591.2C753.8 591.9 757 592.6 760.1 593.4C761 598.8 761.8 604.3 762.7 609.7C764.7 607.3 766.8 604.9 768.8 602.5C769.7 604.2 771.3 606.7 773.8 609C774.6 609.8 780.4 615 789 615.7C798.6 616.6 805.7 611.4 809.7 608.5C812.4 606.6 820.4 600.6 824.1 589.1C828.1 576.6 824.2 566.1 823 563.2C821.7 568.2 819 575.7 813.2 583C811.8 584.8 799.2 600.5 791.4 597.8C784.7 595.5 782.4 579.7 785.7 559C785.9 559.2 787.5 561.1 789.8 561C792.7 560.9 794 558 794.2 557.7C795.6 554.7 793.9 551.4 792.2 549.6C790 547.2 787 546.8 786.1 546.8C784.8 545.5 782.9 543.5 780.9 540.9C776.1 535 774.3 530.4 773.6 530.6Z" fill="#353535"/>
<path opacity="0.09" d="M749.4 552.8C750.2 551.5 754.6 551.2 755.9 553.9C756.9 556 755.6 558.8 754.2 559.1C752 559.7 748.3 554.5 749.4 552.8Z" fill="#353535"/>
<path opacity="0.09" d="M726.3 595.1C724.2 598.7 720 602 715.8 601.6C713.3 601.4 710.5 599.9 700.8 584.4C697.6 579.3 695.1 574.9 693.4 572C692.5 575.3 691.3 581.2 692.3 588.3C692.7 591.1 693.7 595.9 696.4 601.1C698.1 604.4 702.1 611.7 710.6 616.3C713.1 617.7 717.5 620 723.4 620C733.3 619.9 739.7 613.3 741 611.9C743.3 609.6 746.6 606.1 747.1 600.6C747.6 595.3 745.1 591.2 744.5 590.4C741.5 585.8 738.3 586.3 733.2 581.9C726.7 576.3 724.9 569.4 724.1 569.7C722.9 570.4 732 585.3 726.3 595.1Z" fill="#353535"/>
<path opacity="0.13" d="M785.3 553C784.7 552.8 782.9 559.1 777.7 567.6C770.3 579.7 761.2 587.6 754.6 592.4C759.2 591.1 767.4 588.1 774.2 580.7C785 569.1 786.2 553.3 785.3 553Z" fill="#353535"/>
</svg>
