<svg width="571" height="738" viewBox="0 0 571 738" fill="none" xmlns="http://www.w3.org/2000/svg">
<path d="M1.19718 586.468C68.1175 586.468 135.109 586.468 202.03 586.468C269.236 586.468 336.37 586.468 403.576 586.468C441.357 586.468 479.067 586.468 516.848 586.468C518.205 586.468 518.205 584.317 516.848 584.317C449.928 584.317 382.936 584.317 316.016 584.317C248.81 584.317 181.675 584.317 114.469 584.317C76.6879 584.317 38.9783 584.317 1.19718 584.317C-0.159801 584.317 -0.159801 586.468 1.19718 586.468Z" fill="#E8E8E8"/>
<path d="M103.685 539.574C164.177 539.574 224.599 539.574 285.091 539.574C345.798 539.574 406.505 539.574 467.212 539.574C501.279 539.574 535.275 539.574 569.342 539.574C570.699 539.574 570.699 537.423 569.342 537.423C508.849 537.423 448.428 537.423 387.936 537.423C327.229 537.423 266.522 537.423 205.815 537.423C171.748 537.423 137.752 537.423 103.685 537.423C102.256 537.423 102.256 539.574 103.685 539.574Z" fill="#E8E8E8"/>
<path d="M506.564 639.816C504.707 633.004 509.564 627.555 515.349 624.758C518.491 623.252 522.776 622.033 526.062 623.969C529.561 626.049 530.347 630.494 529.561 634.151C528.347 639.888 523.847 646.413 517.777 647.488C509.778 648.851 507.135 641.393 506.85 634.94C506.778 633.578 504.636 633.578 504.707 634.94C504.993 642.541 508.278 650.643 517.277 649.711C525.419 648.851 531.775 639.673 531.989 631.929C532.275 622.966 524.276 619.165 516.563 621.962C508.992 624.686 502.136 631.785 504.564 640.39C504.921 641.752 506.921 641.178 506.564 639.816Z" fill="#E8E8E8"/>
<path d="M522.134 626.121C520.848 627.483 519.562 628.845 518.277 630.208C517.348 631.212 518.848 632.717 519.777 631.713C521.062 630.351 522.348 628.989 523.633 627.626C524.633 626.622 523.133 625.117 522.134 626.121Z" fill="#E8E8E8"/>
<path d="M522.491 631.498C519.348 629.347 515.92 631.212 513.92 633.936C513.635 634.295 513.777 634.94 514.063 635.227C514.563 635.729 517.634 636.876 516.848 637.88C516.706 638.095 515.349 638.239 515.063 638.31C513.92 638.454 512.992 638.382 512.063 637.665C510.921 636.876 509.849 638.74 510.992 639.529C512.92 640.963 516.848 640.892 518.777 639.314C519.562 638.669 519.777 637.593 519.42 636.661C518.705 634.868 516.848 634.868 515.634 633.721C515.706 634.151 515.777 634.582 515.777 635.012C517.134 633.219 519.277 631.929 521.419 633.363C522.562 634.08 523.633 632.215 522.491 631.498Z" fill="#E8E8E8"/>
<path d="M513.349 639.314C512.492 640.103 511.706 641.035 511.135 642.039C510.421 643.258 512.277 644.333 512.992 643.114C513.492 642.254 514.134 641.465 514.848 640.82C515.848 639.959 514.349 638.382 513.349 639.314Z" fill="#E8E8E8"/>
<path d="M552.987 614.648C548.487 613.286 544.916 609.199 542.631 605.255C539.203 599.375 543.702 593.065 550.273 593.495C555.844 593.854 559.843 598.658 561.557 603.606C562.414 606.187 563.343 609.629 561.843 612.067C559.772 615.437 555.486 615.078 552.344 613.931C551.058 613.429 550.487 615.508 551.773 616.01C558.486 618.448 565.485 615.222 564.7 607.334C563.986 600.164 559.057 592.778 551.701 591.488C545.63 590.412 538.846 594.714 539.131 601.383C539.417 607.764 546.63 614.935 552.487 616.727C553.772 617.086 554.344 615.007 552.987 614.648Z" fill="#E8E8E8"/>
<path d="M135.895 726.004C215.957 726.004 296.09 726.004 376.151 726.004C398.72 726.004 421.289 726.004 443.857 726.004C445.214 726.004 445.214 723.853 443.857 723.853C363.796 723.853 283.663 723.853 203.601 723.853C181.032 723.853 158.464 723.853 135.895 723.853C134.467 723.853 134.467 726.004 135.895 726.004Z" fill="#E8E8E8"/>
<path d="M403.291 38.9383C407.354 38.9383 410.647 35.6317 410.647 31.5528C410.647 27.474 407.354 24.1674 403.291 24.1674C399.228 24.1674 395.935 27.474 395.935 31.5528C395.935 35.6317 399.228 38.9383 403.291 38.9383Z" fill="#EC615B"/>
<path d="M536.774 213.107C540.009 213.107 542.631 210.474 542.631 207.227C542.631 203.98 540.009 201.347 536.774 201.347C533.54 201.347 530.918 203.98 530.918 207.227C530.918 210.474 533.54 213.107 536.774 213.107Z" fill="#EC615B"/>
<path d="M533.775 384.335C539.77 384.335 544.631 379.456 544.631 373.436C544.631 367.417 539.77 362.537 533.775 362.537C527.779 362.537 522.919 367.417 522.919 373.436C522.919 379.456 527.779 384.335 533.775 384.335Z" fill="#5222D0"/>
<path d="M273.807 124.911C279.526 124.911 284.163 120.256 284.163 114.514C284.163 108.772 279.526 104.117 273.807 104.117C268.087 104.117 263.451 108.772 263.451 114.514C263.451 120.256 268.087 124.911 273.807 124.911Z" fill="#5222D0"/>
<path d="M191.531 7.0301C193.459 5.1658 196.173 4.23365 198.816 4.80728C201.887 5.45262 203.03 7.67543 205.101 9.68314C207.029 11.6191 209.529 12.4079 212.171 11.6908C215.171 10.9021 217.671 8.67929 220.242 7.0301C224.241 4.37706 227.312 3.3015 231.098 6.9584C236.454 12.0494 241.668 10.1134 247.667 7.0301C251.167 5.2375 255.238 2.65617 259.38 3.44491C263.308 4.23365 266.522 8.03395 270.736 7.60373C272.45 7.38862 273.664 6.45647 274.949 5.30921C277.235 3.08639 278.877 1.93913 281.949 3.73172C284.948 5.45262 287.376 7.96225 291.09 7.38862C292.447 7.17351 291.876 5.0941 290.519 5.30921C286.662 5.88284 283.948 1.58061 280.377 0.720164C276.949 -0.0685773 275.521 2.22595 273.164 4.16195C268.664 7.74714 264.165 2.08254 259.594 1.3655C256.166 0.791869 252.881 2.15424 249.881 3.58832C246.453 5.2375 242.953 7.81884 239.025 8.17736C234.169 8.60758 232.74 3.87513 228.669 2.58446C222.313 0.505054 217.528 7.89054 212.029 9.61143C206.886 11.1889 205.101 4.73558 200.816 3.2298C197.03 1.86742 192.96 2.87128 190.103 5.59602C189.031 6.45647 190.531 7.96225 191.531 7.0301Z" fill="#5222D0"/>
<path d="M266.95 23.522C268.379 21.5143 270.664 18.6462 273.235 18.2159C276.735 17.6423 277.378 21.0124 279.378 22.7333C281.234 24.3108 283.377 24.5259 285.591 23.6654C288.805 22.3748 291.09 19.3632 294.447 18.3593C298.447 17.1404 301.946 20.367 305.446 21.7294C308.16 22.805 310.802 22.8767 313.302 21.2992C315.159 20.1519 316.659 18.431 318.944 18.1442C320.73 17.9291 322.586 18.7179 324.158 19.5066C329.157 22.0162 334.156 27.0355 340.227 25.0278C341.513 24.5976 340.941 22.5182 339.656 22.9484C332.728 25.2429 327.229 16.9253 320.658 16.0648C316.944 15.5629 315.159 17.7857 312.231 19.4349C307.803 21.9445 304.089 18.2876 300.018 16.7102C297.09 15.5629 294.447 15.778 291.662 17.2121C288.519 18.8613 284.448 23.8805 280.806 21.0841C278.163 19.0764 277.449 15.7063 273.521 15.9931C269.879 16.3516 267.022 19.65 265.022 22.3748C264.308 23.522 266.165 24.5976 266.95 23.522Z" fill="#5222D0"/>
<path d="M332.514 463.927C312.73 461.847 296.232 460.27 284.52 459.122C198.316 451.02 219.742 455.609 199.816 452.597C189.103 450.948 175.247 448.439 157.392 451.737C140.537 454.82 133.252 460.628 130.253 463.353C122.539 470.38 119.397 478.554 117.112 484.434C112.898 495.333 112.612 504.583 112.469 511.036C112.326 517.991 112.184 523.011 114.398 529.105C117.112 536.491 121.682 541.295 125.61 545.024C141.394 560.01 158.035 568.829 158.464 569.116C204.101 593.424 191.245 588.189 208.315 596.148C229.026 605.9 258.023 618.305 294.733 630.351C296.018 625.475 297.947 618.878 300.446 611.063C303.16 602.745 306.303 592.922 311.659 580.875C314.944 573.562 319.587 564.097 326.086 553.413C315.016 548.752 305.088 544.235 305.446 543.303C305.946 542.012 325.872 549.039 352.654 555.206C388.435 563.451 406.362 567.539 424.574 562.663C430.93 560.942 465.283 550.903 472.354 522.867C478.281 499.492 461.498 478.482 459.498 475.973C436.501 448.08 385.793 443.419 332.514 463.927Z" fill="#8C3566"/>
<path opacity="0.23" d="M187.889 488.091C200.53 492.823 220.456 499.707 245.382 506.16C280.377 515.195 303.803 517.776 369.581 526.524C388.507 529.034 418.575 533.121 456.213 538.427C455.856 546.243 455.499 554.058 455.142 561.874C440.144 562.878 423.574 563.093 405.862 562.089C366.224 559.795 332.228 551.979 305.446 543.374C312.302 546.744 319.23 550.115 326.086 553.485C323.444 557.787 320.801 562.448 318.158 567.539C314.302 575.067 311.302 582.166 308.802 588.763C268.522 555.134 228.241 521.648 187.889 488.091Z" fill="#AAAAAA"/>
<path d="M299.803 611.063C302.375 611.206 306.231 611.493 310.802 612.425C317.301 613.716 323.658 614.935 328.657 618.878C332.942 622.249 333.799 625.69 337.227 632.789C340.656 639.959 344.369 645.409 351.654 656.38C358.796 667.063 355.939 660.969 375.723 685.42C378.722 689.076 383.079 694.526 387.864 693.881C389.935 693.594 392.078 692.231 393.078 690.224C394.72 686.854 392.364 682.623 391.649 681.404C384.864 668.713 384.15 653.511 378.508 640.246C373.866 629.276 367.795 613.286 362.01 591.631C356.511 589.265 351.94 587.687 348.797 586.683C338.442 583.313 332.871 582.811 322.229 578.939C318.73 577.649 315.944 576.43 314.159 575.713C309.374 587.401 304.589 599.232 299.803 611.063Z" fill="black"/>
<path d="M113.041 522.437C113.469 504.726 114.54 485.868 125.039 470.882C134.966 456.756 151.179 452.382 167.534 452.024C185.46 451.665 203.601 453.888 221.456 455.179C240.311 456.613 259.237 458.047 278.092 459.624C299.803 461.417 321.444 463.353 343.155 465.361C344.512 465.504 344.512 463.353 343.155 463.21C302.66 459.409 262.094 456.039 221.456 453.028C202.887 451.665 183.889 449.156 165.248 449.944C149.965 450.59 134.895 454.892 125.039 467.297C112.683 482.785 111.398 503.364 110.898 522.365C110.898 523.799 113.041 523.799 113.041 522.437Z" fill="#161616"/>
<path d="M111.327 524.301C120.04 548.967 145.037 562.591 166.32 574.924C192.102 589.838 218.742 603.247 246.381 614.218C254.238 617.301 262.094 620.241 270.093 622.966C274.164 624.328 278.306 625.69 282.448 626.909C284.305 627.483 286.162 628.056 288.019 628.558C289.09 628.845 290.09 629.132 291.162 629.419C291.59 629.562 292.019 629.634 292.376 629.777C293.304 630.208 294.304 630.279 295.233 629.777C295.233 630.279 295.233 630.781 295.233 631.283C295.304 631.211 295.375 631.14 295.447 630.996C296.304 629.921 294.804 628.415 293.947 629.491C293.876 629.562 293.804 629.634 293.733 629.777C293.376 630.208 293.304 630.853 293.733 631.283C296.09 633.434 297.875 629.849 295.018 628.343C292.162 626.766 288.019 626.264 284.805 625.332C280.877 624.184 276.949 622.894 273.092 621.603C257.594 616.44 242.382 610.489 227.455 603.821C212.814 597.296 198.459 590.125 184.389 582.525C171.034 575.283 157.607 567.754 144.894 559.293C131.538 550.33 118.897 539.216 113.398 523.656C112.898 522.437 110.827 523.011 111.327 524.301Z" fill="#161616"/>
<path d="M187.389 489.023C232.454 512.9 281.52 528.532 325.586 554.417C325.443 553.915 325.3 553.413 325.229 552.911C310.945 576.573 300.589 602.458 294.59 629.491C294.304 630.853 296.375 631.427 296.661 630.064C302.589 603.247 312.873 577.577 327.086 554.058C327.371 553.556 327.229 552.911 326.729 552.552C282.663 526.667 233.669 511.036 188.531 487.159C187.246 486.513 186.103 488.378 187.389 489.023Z" fill="#161616"/>
<path d="M308.231 544.808C355.582 560.01 405.576 566.176 455.213 562.95C456.57 562.878 456.57 560.727 455.213 560.798C405.791 564.097 356.011 557.93 308.802 542.729C307.445 542.299 306.945 544.378 308.231 544.808Z" fill="#161616"/>
<path d="M314.444 577.72C326.514 581.234 338.584 584.747 350.726 588.261C353.154 588.978 355.725 589.552 358.153 590.484C362.01 591.918 362.939 594.929 364.081 598.515C366.01 604.394 367.867 610.346 369.723 616.225C377.437 640.318 385.15 664.41 392.792 688.503C393.22 689.794 395.292 689.22 394.863 687.929C386.578 661.972 378.294 636.087 370.009 610.131C368.295 604.681 367.009 598.586 364.51 593.424C362.439 589.121 358.153 588.189 353.94 586.97C340.941 583.17 327.943 579.37 315.016 575.641C313.659 575.283 313.087 577.362 314.444 577.72Z" fill="#161616"/>
<path d="M299.803 612.138C306.945 612.569 314.016 613.859 320.872 616.225C324.086 617.373 327.229 618.592 329.514 621.316C331.8 623.969 333.085 627.34 334.656 630.351C340.37 641.537 347.012 652.149 354.511 662.259C361.796 672.011 369.795 681.404 378.58 689.793C381.508 692.59 385.579 696.103 389.935 694.598C393.292 693.45 395.149 690.009 393.649 686.71C393.078 685.491 391.221 686.567 391.792 687.786C393.649 691.729 388.293 693.163 386.007 692.446C384.436 691.945 383.008 690.869 381.793 689.793C379.651 688.001 377.722 685.921 375.794 683.914C372.08 680.113 368.509 676.098 365.081 672.011C357.868 663.406 351.297 654.372 345.369 644.764C342.441 640.031 339.727 635.227 337.156 630.279C334.942 626.049 333.157 621.173 329.443 618.09C325.943 615.15 320.944 613.788 316.587 612.64C311.088 611.134 305.517 610.346 299.875 609.987C298.446 609.916 298.447 612.067 299.803 612.138Z" fill="#161616"/>
<path d="M362.796 612.138C360.725 614.074 357.582 617.086 353.94 620.815C346.084 628.845 341.584 634.295 332.8 644.907C323.944 655.663 322.444 658.172 322.515 661.757C322.729 666.92 326.229 670.433 330.728 675.166C338.442 683.412 344.727 693.02 352.726 701.051C363.867 712.309 374.937 723.566 387.65 736.473C385.579 725.43 382.936 713.671 379.508 701.266C375.294 686.065 370.581 672.226 365.724 659.75C368.724 654.73 371.723 651.145 374.009 648.779C376.08 646.628 378.008 644.907 387.65 637.235C391.364 634.295 394.435 631.929 396.72 630.136C399.506 623.898 398.292 620.169 397.72 618.735C394.364 610.991 380.151 606.976 362.796 612.138Z" fill="black"/>
<path d="M336.799 606.402C339.585 601.383 343.584 594.499 348.726 586.54C357.011 573.848 366.438 561.515 382.436 543.733C394.649 530.181 408.362 514.98 429.359 496.337C471.854 458.764 488.066 457.115 493.994 456.828C498.208 456.613 511.349 456.183 524.348 464.142C528.633 466.723 539.56 473.391 542.845 485.868C544.417 491.819 543.917 497.986 540.703 507.666C533.418 529.32 520.562 543.805 516.92 547.892C486.924 581.736 567.2 495.835 469.069 605.685C450.285 626.694 434.287 644.548 422.003 658.172C418.718 653.583 413.575 647.058 406.505 639.888C397.72 630.996 386.293 619.524 368.224 612.425C361.653 609.915 350.94 606.689 336.799 606.402Z" fill="#8C3566"/>
<path opacity="0.14" d="M526.133 465.504C525.705 471.384 524.705 480.203 521.634 490.529C517.706 504.009 511.064 517.346 498.565 533.623C481.639 555.636 447.214 591.488 398.934 632.574C402.434 635.442 406.505 639.242 410.504 644.19C415.218 649.998 418.503 655.519 420.717 660.108C425.431 654.73 434.073 644.907 444.857 632.717C469.497 604.968 492.066 575.426 516.849 547.892C517.206 547.533 530.775 532.475 539.989 509.602C543.06 501.93 544.488 496.408 543.56 490.027C541.631 476.403 530.133 468.157 526.133 465.504Z" fill="#AAAAAA"/>
<path d="M337.442 605.111C354.44 578.939 373.723 554.202 395.006 531.4C405.576 520.142 416.575 509.315 428.074 498.99C439.572 488.664 451.428 478.124 464.426 469.735C477.782 461.058 493.994 454.964 509.992 458.764C517.92 460.628 524.49 465.217 530.561 470.595C536.703 475.973 541.917 482.211 542.56 490.672C543.774 506.375 533.061 521.648 524.99 534.196C516.134 547.82 506.278 560.798 495.922 573.275C471.997 602.1 446.286 629.562 421.289 657.383C420.36 658.387 421.86 659.965 422.789 658.889C446.643 632.287 471.068 606.043 494.137 578.724C504.85 565.961 515.134 552.839 524.419 539C532.847 526.381 542.988 511.968 544.631 496.408C546.274 481.064 535.418 470.021 523.491 462.134C510.564 453.673 494.423 453.816 480.282 459.051C465.426 464.572 452.856 474.969 440.786 485.007C428.288 495.476 416.361 506.447 404.862 517.991C378.937 544.091 355.725 572.988 335.656 603.821C334.871 605.183 336.728 606.259 337.442 605.111Z" fill="#161616"/>
<path d="M336.799 607.478C371.652 607.979 404.648 629.132 419.86 660.61C420.432 661.829 422.289 660.753 421.717 659.534C406.219 627.411 372.366 605.828 336.871 605.326C335.442 605.326 335.442 607.478 336.799 607.478Z" fill="#161616"/>
<path d="M362.082 611.421C354.011 619.022 346.441 627.053 339.227 635.442C335.942 639.314 332.728 643.258 329.657 647.345C326.729 651.145 322.444 655.519 321.587 660.395C320.944 664.124 323.086 667.35 325.229 670.147C328.729 674.736 332.442 679.181 336.156 683.627C343.441 692.375 351.012 700.979 358.725 709.369C367.51 718.905 376.58 728.227 385.936 737.261C386.936 738.194 388.436 736.688 387.436 735.756C368.295 717.256 350.226 697.609 333.371 676.959C329.229 671.868 321.015 664.984 324.729 657.885C327.8 652.077 332.8 646.628 336.942 641.609C345.155 631.498 354.083 622.033 363.51 613.07C364.581 611.995 363.082 610.417 362.082 611.421Z" fill="#161616"/>
<path d="M396.149 629.276C387.579 635.801 379.222 642.684 371.223 649.855C368.509 652.292 364.439 654.874 364.367 658.961C364.367 660.969 365.367 663.12 366.01 664.984C366.867 667.565 367.795 670.147 368.652 672.728C375.866 693.737 382.793 714.89 386.579 736.831C386.793 738.193 388.864 737.62 388.65 736.258C385.222 716.539 379.294 697.466 372.866 678.608C371.295 673.875 369.652 669.143 368.01 664.41C367.01 661.542 365.724 658.889 367.652 656.021C368.938 654.085 371.438 652.436 373.152 650.93C380.865 644.046 388.936 637.45 397.149 631.14C398.292 630.351 397.22 628.415 396.149 629.276Z" fill="#161616"/>
<path d="M338.727 270.757C335.871 272.262 331.728 274.772 327.514 278.644C318.087 287.32 314.516 297.287 311.516 305.533C296.233 347.193 298.089 338.588 295.09 349.057C288.305 372.863 287.734 385.913 278.52 389.283C275.235 390.502 271.807 390.143 267.379 389.713C257.594 388.709 250.667 384.55 247.453 382.543C234.597 374.512 228.241 362.968 226.098 358.665C220.17 346.691 223.456 343.177 216.028 329.195C210.386 318.655 205.815 315.571 203.744 314.353C195.816 309.763 188.031 310.767 184.675 311.269C181.604 311.699 177.676 312.273 176.533 314.998C175.462 317.507 177.247 320.447 177.604 321.093C181.318 327.187 190.531 326.829 191.531 326.757C190.817 326.614 178.747 324.678 173.248 331.705C170.534 335.075 169.748 340.238 169.462 341.887C169.391 342.46 168.962 345.185 169.177 348.914C169.248 349.702 169.391 352.212 170.819 357.446C172.462 363.613 173.319 366.696 175.319 368.919C176.461 370.21 179.175 373.221 182.746 372.719C185.532 372.361 187.317 370.066 187.817 369.349C191.174 370.425 194.245 371.5 196.816 372.433C202.101 374.297 203.458 374.942 204.744 376.161C207.529 378.743 207.958 382.184 208.458 384.551C209.529 389.498 212.457 393.944 218.242 402.907C221.599 408.069 226.955 416.315 237.025 423.127C239.668 424.92 248.238 430.441 260.808 432.592C275.378 435.102 286.805 431.66 292.233 429.939C294.019 429.365 302.803 426.497 312.659 419.685C312.659 419.685 322.301 413.017 329.657 403.982C339.727 391.577 340.156 381.109 348.012 346.906C356.511 309.907 360.939 301.159 355.154 288.683C350.94 279.72 343.798 274.055 338.727 270.757Z" fill="white"/>
<path opacity="0.29" d="M174.604 364.689C177.461 365.549 183.246 366.84 190.174 365.334C200.244 363.111 206.172 356.443 207.958 354.22C208.672 358.594 209.957 364.975 212.743 372.361C216.457 382.471 223.313 400.971 241.239 411.941C245.382 414.523 258.666 422.625 275.021 420.044C292.162 417.319 302.446 404.341 314.445 388.996C326.015 374.297 331.657 361.175 338.227 346.046C343.87 332.924 351.226 315.93 354.011 297.646C354.297 295.71 354.511 293.989 354.868 293.989C356.368 293.989 362.01 329.339 352.511 366.553C349.94 376.591 347.726 384.837 341.584 394.231C331.943 408.858 319.301 416.315 310.731 421.191C300.803 426.856 291.519 432.162 277.878 433.166C257.952 434.6 243.168 425.78 238.454 422.84C225.241 414.666 218.242 404.054 213.743 397.099C207.958 388.136 204.672 379.746 202.815 373.723C196.388 370.568 191.46 370.425 188.174 370.927C184.175 371.5 181.318 373.15 178.604 371.644C175.89 370.353 174.962 367.126 174.604 364.689Z" fill="#AAAAAA"/>
<path d="M345.298 269.466C334.799 267.817 327.157 276.493 321.872 284.452C315.087 294.777 309.802 306.035 305.231 317.507C300.518 329.41 296.518 341.528 292.447 353.646C290.447 359.526 288.448 365.334 286.234 371.142C284.02 377.093 282.02 385.841 276.449 389.498C275.307 390.215 276.378 392.079 277.521 391.362C281.663 388.709 283.377 384.192 285.162 379.746C287.519 374.01 289.662 368.202 291.662 362.394C295.661 351.065 299.304 339.664 303.374 328.406C307.517 316.934 312.159 305.676 318.087 294.992C323.301 285.528 331.8 269.466 344.798 271.545C346.084 271.689 346.655 269.681 345.298 269.466Z" fill="#161616"/>
<path d="M193.245 326.184C189.46 325.682 185.746 324.606 182.318 322.885C180.818 322.168 179.104 321.308 178.033 320.017C175.89 317.651 177.461 314.998 180.032 313.851C185.389 311.341 191.817 311.269 197.459 312.918C202.887 314.496 207.886 317.723 211.314 322.312C215.6 328.12 216.671 335.577 218.528 342.389C222.742 358.379 232.383 374.082 246.453 383.116C255.595 388.924 266.236 391.362 276.949 391.434C278.306 391.434 278.306 389.283 276.949 389.283C264.665 389.14 252.666 385.769 242.953 377.954C234.097 370.783 227.598 360.817 223.384 350.276C219.528 340.668 219.242 329.267 212.886 320.806C206.315 312.058 194.388 307.827 183.746 310.265C179.533 311.269 172.391 314.066 175.176 319.659C178.033 325.395 187.674 327.474 193.245 328.191C194.602 328.478 194.602 326.327 193.245 326.184Z" fill="#161616"/>
<path d="M187.674 372.002C191.817 372.719 196.602 373.006 200.673 374.297C204.744 375.659 205.886 381.252 207.529 384.837C210.529 391.434 213.743 397.816 217.671 403.911C225.384 415.742 235.597 425.565 248.953 430.656C277.449 441.483 311.445 428.863 330.014 405.488C335.442 398.676 338.87 390.789 341.584 382.614C344.727 373.15 347.512 363.541 350.226 353.933C350.583 352.571 348.512 351.997 348.155 353.359C345.798 361.534 343.441 369.708 340.87 377.81C338.442 385.626 335.656 393.37 331.157 400.254C322.658 413.16 308.588 422.984 294.233 428.218C279.877 433.452 263.879 434.026 249.524 428.577C235.454 423.199 225.098 412.228 217.456 399.465C213.457 392.796 210.172 385.698 207.101 378.599C206.029 376.089 205.029 373.651 202.315 372.504C198.102 370.855 192.745 370.712 188.246 369.923C186.889 369.708 186.317 371.787 187.674 372.002Z" fill="#161616"/>
<path d="M385.793 242.147C364.653 248.17 350.369 262.152 346.012 266.526C336.37 276.134 330.157 286.316 326.086 294.634C314.73 318.081 315.087 339.664 315.445 350.85C315.873 366.409 318.658 373.938 322.587 392.223C326.229 409.073 330.443 433.381 332.514 463.927C340.799 471.169 356.154 482.283 378.008 486.872C386.936 488.736 414.575 494.472 441.286 477.981C453.999 470.093 461.855 460.055 466.14 453.601C470.854 402.692 474.782 359.884 478.925 316.073C480.567 298.936 481.996 283.448 473.211 268.749C457.142 241.86 416.004 233.542 385.793 242.147Z" fill="#D6D6D6"/>
<path d="M385.793 242.147C364.653 248.17 350.369 262.152 346.012 266.526C336.37 276.134 330.157 286.316 326.086 294.634C314.73 318.081 315.087 339.664 315.445 350.85C315.873 366.409 318.658 373.938 322.587 392.223C326.229 409.073 330.443 433.381 332.514 463.927C340.799 471.169 356.154 482.283 378.008 486.872C386.936 488.736 414.575 494.472 441.286 477.981C453.999 470.093 461.855 460.055 466.14 453.601C470.854 402.692 474.782 359.884 478.925 316.073C480.567 298.936 481.996 283.448 473.211 268.749C457.142 241.86 416.004 233.542 385.793 242.147Z" fill="white" fill-opacity="0.2"/>
<path d="M459.998 268.606C457.141 269.466 454.285 272.262 450.642 285.528C446 302.521 445.643 316.36 445.571 319.659C445.286 340.883 445.928 357.375 446.357 365.908C447.928 399.322 449.428 407.998 452.213 417.032C453.713 422.052 457.641 431.015 460.498 437.683C464.212 446.359 467.426 453.458 469.783 458.334C466.997 461.632 464.426 463.927 462.569 465.361C456.57 470.093 452.642 470.738 448.071 476.116C446.786 477.622 443.715 481.207 444.786 483.143C445.786 484.864 449.714 484.362 450.856 484.219C455.499 483.645 457.07 481.279 461.855 479.63C463.712 478.984 466.497 478.267 470.283 478.267C468.854 482.283 467.069 486.657 464.783 491.246C461.427 497.986 457.713 501.571 450.928 512.398C447.071 518.637 445.786 521.29 446.786 522.58C448.285 524.445 453.928 522.15 454.285 521.935C459.284 519.856 461.927 516.055 463.712 513.617C466.712 509.602 471.211 504.224 477.996 498.201C475.425 504.869 472.997 510.104 471.282 513.474C468.926 518.206 465.926 523.799 462.284 532.045C458.57 540.435 458.07 542.801 458.998 543.518C460.141 544.45 463.212 542.657 465.712 540.865C466.355 542.155 467.569 544.163 469.497 544.593C472.068 545.095 474.568 542.514 476.568 540.363C484.495 531.83 488.423 527.528 493.208 521.792C495.351 519.21 498.493 515.553 502.636 511.395C502.921 514.693 502.993 518.278 502.921 522.078C502.779 529.32 500.636 533.264 502.064 534.125C503.421 534.985 506.85 532.475 508.921 529.607C511.349 526.237 511.563 522.58 511.635 518.852C511.849 508.526 510.849 502.432 510.421 493.469C510.135 486.872 510.278 481.853 510.278 480.705C510.635 467.87 512.349 466.006 511.492 457.76C510.563 448.869 507.921 444.28 506.921 442.774C504.921 439.619 502.707 437.396 501.065 435.962C501.35 434.456 501.636 432.305 501.136 429.724C500.35 425.565 497.993 423.342 495.208 419.183C493.708 416.961 491.709 413.662 489.78 409.217C490.352 405.99 490.994 401.114 491.423 395.163C492.351 382.615 491.423 373.221 490.78 366.266C488.995 347.623 486.709 328.98 485.067 310.265C483.71 294.777 483.424 286.962 477.282 278.787C476.639 278.142 467.64 266.383 459.998 268.606Z" fill="white"/>
<path opacity="0.22" d="M474.639 275.919C476.282 288.969 477.71 302.378 478.924 316.073C481.71 348.053 482.924 378.599 482.995 407.281C485.852 410.22 489.423 414.523 492.566 420.259C494.423 423.701 496.994 428.29 498.279 434.815C498.565 436.321 498.636 436.966 498.922 439.476C499.993 447.865 501.279 453.745 501.779 456.541C503.35 464.644 504.921 480.275 505.064 495.906C505.136 505.802 504.636 518.995 502.35 534.483C504.85 533.192 508.421 530.898 510.492 526.811C512.635 522.58 512.135 518.637 511.563 512.613C511.563 512.613 510.492 501.141 510.278 490.314C509.992 478.698 511.635 477.407 511.421 466.938C511.135 455.896 510.706 451.235 508.778 446.503C506.921 442.057 504.421 438.759 502.565 436.679C502.35 433.596 501.636 429.509 499.851 424.92C497.208 418.251 493.423 413.662 490.852 411.009C491.137 406.635 491.494 400.182 491.709 392.295C492.066 376.448 492.494 350.276 486.352 318.44C484.21 307.756 480.71 293.056 474.639 275.919Z" fill="#AAAAAA"/>
<path d="M462.141 267.602C474.496 270.685 479.067 283.52 481.353 294.777C483.852 307.254 485.638 319.945 487.066 332.637C489.923 358.02 490.994 383.547 490.209 409.002C490.137 410.364 492.28 410.364 492.351 409.002C493.137 381.18 491.851 353.288 488.352 325.682C486.709 312.775 485.352 299.295 481.638 286.818C478.782 277.282 472.925 268.032 462.712 265.451C461.355 265.164 460.784 267.243 462.141 267.602Z" fill="#161616"/>
<path d="M482.71 408.356C494.423 411.941 498.993 424.059 501.136 435.102C501.422 436.464 503.493 435.89 503.207 434.528C500.922 422.697 495.78 410.077 483.281 406.277C481.996 405.847 481.424 407.926 482.71 408.356Z" fill="#161616"/>
<path d="M491.28 434.241C499.922 434.528 506.064 441.698 508.778 449.371C511.992 458.477 510.278 468.516 509.492 477.909C508.706 487.159 509.706 496.122 510.492 505.3C510.849 509.889 511.135 514.478 510.635 519.067C510.278 522.795 508.349 535.057 502.421 533.264C502.707 533.623 502.921 533.981 503.207 534.268C504.136 526.667 504.278 519.067 503.778 511.466C503.707 510.104 501.564 510.104 501.636 511.466C502.207 519.067 501.993 526.667 501.065 534.268C500.993 534.77 501.422 535.2 501.85 535.272C510.992 538.068 512.849 520.859 512.992 515.338C513.349 503.22 510.635 491.389 511.492 479.199C512.349 468.229 514.491 456.541 509.778 446.072C506.35 438.472 499.922 432.233 491.28 431.947C489.923 432.09 489.923 434.241 491.28 434.241Z" fill="#161616"/>
<path d="M490.137 432.234C483.281 437.611 478.425 444.782 473.282 451.737C470.568 455.394 467.783 459.051 464.569 462.206C460.784 465.934 456.356 468.874 452.071 471.886C449.071 474.037 438.644 481.064 445.214 485.366C448.357 487.445 453.213 484.577 456.213 483.502C461.284 481.637 466.426 479.845 471.497 477.981C472.782 477.55 472.211 475.471 470.925 475.901C466.926 477.335 462.855 478.841 458.855 480.275C456.927 480.992 455.07 481.637 453.142 482.354C452.142 482.713 451.142 483.143 450.071 483.43C449.285 483.717 448.5 483.86 447.714 483.932C447 483.143 446.286 482.354 445.571 481.566C444.714 478.339 453.213 473.75 455.284 472.316C458.284 470.237 461.284 468.085 463.998 465.719C474.711 456.326 480.424 442.559 491.709 433.811C492.78 432.951 491.209 431.373 490.137 432.234Z" fill="#161616"/>
<path d="M469.211 478.052C466.997 486.442 462.284 493.684 457.356 500.782C454.927 504.296 452.428 507.881 450.214 511.538C448.571 514.263 445.571 518.206 445.5 521.505C445.357 528.245 455.57 522.652 457.713 520.859C465.498 514.406 472.354 506.519 479.067 498.99C479.996 497.986 478.496 496.408 477.568 497.484C472.14 503.579 466.497 509.53 460.641 515.195C457.856 517.92 454.856 521.361 450.928 522.293C449 522.795 447.643 522.15 448 520.286C448.143 519.425 448.928 518.206 449.285 517.418C450.071 515.912 450.856 514.478 451.714 513.044C458.498 501.643 467.712 491.604 471.211 478.554C471.64 477.263 469.568 476.69 469.211 478.052Z" fill="#161616"/>
<path d="M477.068 497.842C472.64 507.594 468.212 517.418 463.784 527.169C461.927 531.256 459.57 535.415 458.213 539.646C457.57 541.582 457.213 544.235 459.213 545.526C461.641 547.103 463.998 544.808 465.498 543.016C468.783 539.216 471.925 535.272 474.996 531.328C480.924 523.656 486.566 515.697 491.851 507.522C492.637 506.375 490.78 505.3 489.995 506.447C485.924 512.685 481.71 518.78 477.282 524.803C474.854 528.03 472.354 531.256 469.854 534.411C468.64 535.917 467.355 537.495 466.14 539C465.569 539.646 464.998 540.363 464.426 541.008C463.284 542.299 463.284 542.801 461.355 542.586C459.498 542.299 459.713 542.227 460.213 540.65C460.498 539.646 460.998 538.785 461.427 537.853C462.284 535.917 463.141 534.053 463.998 532.117C465.64 528.532 467.283 524.875 468.926 521.29C472.283 513.832 475.639 506.375 478.996 498.99C479.496 497.627 477.639 496.552 477.068 497.842Z" fill="#161616"/>
<path d="M465.283 544.737C472.282 549.111 479.067 539.789 483.138 535.344C489.78 528.245 495.922 520.573 501.493 512.613C502.279 511.466 500.422 510.391 499.636 511.538C495.137 517.991 490.28 524.158 485.067 530.037C482.638 532.762 480.139 535.415 477.567 537.997C474.711 540.865 470.711 545.597 466.283 542.872C465.14 542.155 464.069 544.02 465.283 544.737Z" fill="#161616"/>
<path d="M461.498 265.952C452.999 272.693 449.642 283.305 447.643 293.63C445 307.469 444.072 321.595 444 335.649C444 350.061 445 364.402 446.357 378.743C447.642 392.223 448.357 406.348 451.571 419.542C454.999 433.596 465.069 444.71 468.64 458.692C468.997 460.055 471.068 459.481 470.711 458.119C467.783 446.574 460.355 437.181 455.999 426.282C451.071 413.877 450.714 399.465 449.285 386.271C446.357 358.737 444.429 330.844 448.214 303.31C449.928 290.547 452.285 275.919 462.926 267.458C464.069 266.598 462.569 265.092 461.498 265.952Z" fill="#161616"/>
<path d="M353.368 109.853C337.728 123.047 333.014 139.897 330.3 149.577C322.944 175.821 328.943 197.404 334.228 216.405C340.513 238.92 344.012 251.612 356.011 257.42C374.009 266.168 395.935 252.042 399.006 249.963C401.22 251.397 404.362 252.902 408.076 252.759C410.29 252.687 419.718 251.755 433.787 223.002C442.786 204.574 448.286 193.388 449.571 176.036C450.285 166.858 452.214 141.26 435.716 118.458C431.145 112.148 423.003 100.819 408.005 95.9428C381.151 87.1233 356.582 107.2 353.368 109.853Z" fill="white"/>
<path opacity="0.17" d="M400.363 112.435C404.291 120.824 409.147 133.731 411.076 150.079C411.576 154.381 413.361 171.734 408.433 193.603C404.719 209.952 398.577 222.858 393.221 231.965C396.506 232.61 399.791 233.256 403.077 233.901C403.291 236.124 404.577 249.102 411.861 251.827C420.146 254.91 430.716 242.577 436.287 236.052C441.215 230.316 452.428 216.907 455.57 195.754C459.927 166.428 445.5 144.63 438.43 133.946C432.502 125.055 422.574 110.068 409.005 110.284C405.362 110.355 402.363 111.431 400.363 112.435Z" fill="#AAAAAA"/>
<path d="M391.792 102.468C392.935 109.065 395.363 118.243 400.577 128.21C407.362 141.116 415.932 149.649 421.717 154.525C425.36 151.8 429.931 151.083 433.573 152.876C439.144 155.6 439.358 162.699 439.429 164.348C439.429 165.209 439.501 169.654 436.644 173.741C431.216 181.557 420.646 180.84 420.003 180.84C415.718 187.652 408.505 200.989 407.362 219.13C406.719 229.742 405.719 245.875 415.789 257.563C430.93 275.131 465.569 276.278 480.639 260.001C497.208 242.003 484.424 208.805 479.067 194.894C470.925 173.813 463.641 174.53 459.855 156.317C455.142 133.587 464.641 123.549 455.856 108.132C447.643 93.72 432.216 89.9197 431.073 89.6329C409.647 84.757 392.935 101.321 391.792 102.468Z" fill="#58265B"/>
<path d="M411.79 99.3129C401.077 100.532 386.365 103.472 370.152 110.57C357.939 115.948 348.226 122.258 340.942 127.779C335.585 143.984 334.299 157.967 334.085 167.575C333.871 177.685 333.657 188.512 338.299 201.849C340.584 208.518 345.798 222.858 359.725 233.542C363.582 236.482 367.081 238.418 369.581 239.637C374.08 238.777 378.723 237.701 383.508 236.482C386.079 235.837 388.65 235.12 391.078 234.403C393.078 236.124 401.648 243.581 400.72 252.687C399.649 263.156 386.864 268.534 378.294 272.047C371.723 274.772 345.727 285.671 328.372 272.693C318.444 265.307 316.445 253.906 313.373 236.482C307.446 203.212 312.731 201.849 314.945 164.994C317.016 131.221 316.016 125.198 322.158 115.159C332.443 98.2373 350.226 92.0708 359.796 88.629C383.436 80.168 413.147 80.5982 416.075 89.2027C416.789 91.7123 415.789 94.8673 411.79 99.3129Z" fill="#58265B"/>
<path d="M339.942 127.421C334.014 150.007 329.729 174.387 335.871 197.475C340.727 215.545 351.94 232.323 369.01 240.569C370.224 241.143 371.366 239.35 370.081 238.705C353.154 230.459 342.156 213.824 337.656 195.826C332.014 173.383 336.228 149.864 341.941 127.923C342.37 126.632 340.299 126.13 339.942 127.421Z" fill="#161616"/>
<path d="M370.224 240.283C385.293 239.279 399.149 231.75 408.29 219.704C409.147 218.628 407.291 217.552 406.433 218.628C397.792 230.101 384.508 237.199 370.224 238.131C368.795 238.203 368.795 240.354 370.224 240.283Z" fill="#161616"/>
<path d="M390.15 235.048C393.078 241.286 396.292 247.381 399.791 253.333C400.506 254.552 402.362 253.476 401.648 252.257C398.149 246.306 394.935 240.211 392.007 233.973C391.364 232.682 389.578 233.829 390.15 235.048Z" fill="#161616"/>
<path d="M360.011 146.566C360.582 164.563 360.796 182.489 360.653 200.487C360.653 201.634 362.082 201.849 362.653 201.061C365.938 196.687 369.152 192.169 372.223 187.652C373.009 186.505 371.152 185.429 370.366 186.576C367.295 191.094 364.082 195.611 360.796 199.985C361.439 200.2 362.153 200.344 362.796 200.559C362.939 182.561 362.725 164.635 362.153 146.637C362.082 145.203 359.939 145.132 360.011 146.566Z" fill="#161616"/>
<path d="M364.438 214.756C374.937 215.33 384.936 209.306 389.436 199.698C390.007 198.479 388.15 197.332 387.579 198.623C383.436 207.586 374.294 213.107 364.438 212.605C363.01 212.533 363.01 214.684 364.438 214.756Z" fill="#161616"/>
<path d="M387.007 183.421C388.364 183.421 388.364 181.27 387.007 181.27C385.579 181.27 385.579 183.421 387.007 183.421Z" fill="#161616"/>
<path d="M395.363 181.27C396.72 181.27 396.72 179.119 395.363 179.119C394.006 179.119 394.006 181.27 395.363 181.27Z" fill="#161616"/>
<path d="M393.292 188.154C394.649 188.154 394.649 186.003 393.292 186.003C391.864 186.003 391.864 188.154 393.292 188.154Z" fill="#161616"/>
<path d="M345.012 191.309C346.369 191.309 346.369 189.158 345.012 189.158C343.655 189.158 343.655 191.309 345.012 191.309Z" fill="#161616"/>
<path d="M350.797 188.154C352.154 188.154 352.154 186.003 350.797 186.003C349.44 186.003 349.44 188.154 350.797 188.154Z" fill="#161616"/>
<path d="M349.726 195.539C351.083 195.539 351.083 193.388 349.726 193.388C348.369 193.388 348.369 195.539 349.726 195.539Z" fill="#161616"/>
<path d="M344.37 139.18C346.941 134.95 352.369 134.304 355.868 137.818C356.868 138.822 358.368 137.244 357.368 136.312C352.869 131.795 345.798 132.727 342.513 138.105C341.798 139.252 343.655 140.327 344.37 139.18Z" fill="#161616"/>
<path d="M378.294 133.085C383.079 128.21 390.578 128.783 394.292 134.519C395.078 135.667 396.935 134.591 396.149 133.444C391.578 126.56 382.508 125.628 376.723 131.58C375.794 132.512 377.294 134.089 378.294 133.085Z" fill="#161616"/>
<path d="M419.075 159.401C421.646 154.955 426.431 151.872 431.645 153.378C436.858 154.883 438.572 160.046 438.215 164.994C437.644 174.315 429.573 181.414 420.146 179.836C418.789 179.621 418.218 181.7 419.575 181.916C431.716 183.923 441.5 173.741 440.286 161.695C439.715 156.246 436.287 151.872 430.788 151.011C425.074 150.079 420.003 153.521 417.218 158.325C416.575 159.472 418.432 160.548 419.075 159.401Z" fill="#161616"/>
<path d="M347.512 177.398C348.893 177.398 350.012 174.027 350.012 169.869C350.012 165.711 348.893 162.341 347.512 162.341C346.131 162.341 345.012 165.711 345.012 169.869C345.012 174.027 346.131 177.398 347.512 177.398Z" fill="#161616"/>
<path d="M387.007 174.028C388.388 174.028 389.507 170.657 389.507 166.499C389.507 162.341 388.388 158.97 387.007 158.97C385.627 158.97 384.508 162.341 384.508 166.499C384.508 170.657 385.627 174.028 387.007 174.028Z" fill="#161616"/>
<path d="M193.29 325.05C186.077 325.839 165.436 328.778 169.864 340.753C174.435 353.158 190.647 349.214 199.503 345.414C200.789 344.84 199.646 343.047 198.432 343.549C190.647 346.919 177.363 350.72 172.293 340.896C167.008 330.714 187.576 327.918 193.361 327.273C194.647 327.058 194.718 324.906 193.29 325.05Z" fill="#161616"/>
<path d="M180.649 339.247C186.005 337.526 197.575 335.017 197.647 344.195C197.647 345.557 199.789 345.557 199.789 344.195C199.789 340.466 197.432 337.455 194.004 336.092C189.505 334.228 184.505 335.734 180.077 337.168C178.792 337.598 179.363 339.677 180.649 339.247Z" fill="#161616"/>
<path d="M170.221 340.968C167.293 348.569 172.935 356.241 180.577 357.532C187.791 358.679 196.932 354.735 198.075 346.776C198.289 345.414 196.218 344.84 196.004 346.202C194.004 361.045 166.436 356.815 172.293 341.542C172.793 340.251 170.721 339.749 170.221 340.968Z" fill="#161616"/>
<path d="M172.435 352.584C169.793 358.966 173.864 366.136 180.72 367.068C188.434 368.072 194.147 361.475 193.861 354.09C193.79 352.728 191.647 352.728 191.719 354.09C191.933 359.898 187.934 365.276 181.72 365.061C175.649 364.774 172.221 358.607 174.507 353.229C175.007 351.939 172.935 351.365 172.435 352.584Z" fill="#161616"/>
<path d="M175.292 363.985C174.649 369.148 179.506 373.808 184.648 373.235C189.933 372.661 193.219 367.283 193.147 362.264C193.147 360.902 191.005 360.902 191.005 362.264C191.076 365.921 188.933 369.936 185.148 370.94C180.934 372.016 176.935 368.215 177.435 363.985C177.578 362.623 175.435 362.623 175.292 363.985Z" fill="#161616"/>
</svg>
