<svg width="783" height="826" viewBox="0 0 783 826" fill="none" xmlns="http://www.w3.org/2000/svg">
<path d="M396.857 611.729C393.914 601.37 393.87 589.184 396.727 578.749C396.381 578.825 396.034 578.901 395.688 578.977C396.857 580.653 398.025 582.329 399.15 583.928C399.54 584.461 400.319 584.233 400.276 583.09C399.886 573.341 399.626 560.24 404.127 553.004C404.82 551.938 406.118 551.253 406.508 549.806C406.811 548.739 406.724 546.53 406.811 545.388C406.984 543.179 407.157 541.046 407.33 538.838C407.893 532.211 408.585 525.661 409.364 519.11C412.696 491.843 418.106 465.489 425.377 440.735C424.987 440.659 424.598 440.582 424.208 440.43C426.286 462.138 424.381 483.997 422.434 505.553C422.347 506.695 423.3 507.685 423.602 506.467C424.295 503.725 425.42 501.973 427.108 501.211C426.848 500.83 426.545 500.45 426.286 500.145C427.368 532.668 424.814 565.267 418.799 596.115C418.625 596.953 419.145 597.714 419.578 597.486C421.092 596.724 422.65 596.039 424.165 595.277C423.905 595.048 423.646 594.744 423.386 594.515C424.814 601.066 424.425 607.921 422.218 613.786C421.742 615.004 422.867 616.147 423.343 614.928C425.68 608.606 426.156 600.913 424.641 593.906C424.511 593.297 424.208 592.916 423.862 593.144C422.347 593.906 420.789 594.592 419.275 595.353C419.534 595.81 419.794 596.267 420.054 596.724C426.069 565.724 428.623 532.897 427.584 500.145C427.541 499.383 427.195 498.85 426.762 499.078C424.814 499.992 423.343 502.125 422.477 505.4C422.867 505.705 423.256 506.01 423.646 506.314C425.637 484.378 427.541 462.138 425.42 439.973C425.334 438.983 424.468 438.831 424.252 439.668C416.765 465.184 411.225 492.452 407.893 520.558C407.027 527.793 406.335 535.105 405.772 542.417C405.556 545.007 405.729 547.825 404.647 549.577C403.738 550.948 402.829 552.014 402.093 553.766C398.545 561.84 398.631 573.569 399.021 583.243C399.41 582.938 399.756 582.71 400.146 582.405C398.977 580.729 397.809 579.054 396.684 577.454C396.381 576.997 395.861 576.997 395.645 577.683C392.572 588.955 392.615 601.827 395.775 612.948C396.121 614.166 397.246 613.024 396.857 611.729Z" fill="#E8E8E8"/>
<path d="M249.711 106.972C251.552 106.972 253.044 104.347 253.044 101.108C253.044 97.8686 251.552 95.2428 249.711 95.2428C247.871 95.2428 246.379 97.8686 246.379 101.108C246.379 104.347 247.871 106.972 249.711 106.972Z" fill="#5222D0"/>
<path d="M37.1213 623.211C103.612 623.211 170.103 623.211 236.594 623.211C302.849 623.211 369.025 623.211 435.28 623.211C472.735 623.211 510.112 623.211 547.567 623.211C549.062 623.211 549.062 620.926 547.567 620.926C481.076 620.926 414.585 620.926 348.094 620.926C281.839 620.926 215.663 620.926 149.408 620.926C111.953 620.926 74.5765 620.926 37.1213 620.926C35.6262 620.926 35.6262 623.211 37.1213 623.211Z" fill="#E8E8E8"/>
<path d="M146.654 684.753C150.431 688.409 154.208 692.065 157.907 695.645C159.008 696.711 160.661 695.036 159.559 694.046C155.782 690.39 152.005 686.734 148.307 683.154C147.205 682.087 145.553 683.763 146.654 684.753Z" fill="#E8E8E8"/>
<path d="M123.363 303.082C128.013 303.082 131.782 299.433 131.782 294.932C131.782 290.431 128.013 286.782 123.363 286.782C118.713 286.782 114.943 290.431 114.943 294.932C114.943 299.433 118.713 303.082 123.363 303.082Z" fill="#5222D0"/>
<path d="M75.2848 403.622C79.3765 399.814 85.3568 398.519 90.7862 400.195C94.0124 401.261 96.8451 405.526 100.386 405.069C102.117 404.841 103.298 403.546 104.478 402.48C106.917 400.347 109.12 398.595 112.583 398.443C117.855 398.214 121.632 402.175 126.432 403.698C129.894 404.841 132.963 404.003 135.481 401.566C137.054 399.966 138.313 397.757 140.831 397.3C142.956 396.919 144.923 397.986 146.654 398.976C151.612 401.946 156.726 407.659 163.021 404.993C164.438 404.384 163.179 402.403 161.841 403.013C155.231 405.831 149.094 395.701 142.641 395.015C139.022 394.634 136.818 396.767 134.536 399.204C129.264 404.841 124.15 399.509 118.642 397.3C115.179 395.853 111.324 395.777 107.783 397.3C105.973 398.062 104.635 399.204 103.219 400.575C101.645 402.023 100.229 403.241 97.7894 401.718C97.0025 401.261 96.2943 400.423 95.5075 399.89C88.7403 395.548 79.4552 396.615 73.711 402.023C72.5307 403.013 74.1831 404.612 75.2848 403.622Z" fill="#5222D0"/>
<path d="M292.069 345.964C293.485 335.377 310.639 345.507 316.541 345.126C319.845 344.974 321.734 343.374 324.252 341.47C327.714 338.88 330.862 340.099 334.324 341.927C337.944 343.831 342.271 347.03 346.678 345.735C347.701 345.431 348.488 344.821 349.353 344.136C351.793 342.308 353.602 342.993 356.357 343.755C360.842 345.126 365.327 346.497 369.812 347.868C371.228 348.325 371.858 346.116 370.442 345.659C365.248 344.06 360.134 342.308 354.861 340.937C353.445 340.556 351.95 340.175 350.455 340.632C348.724 341.241 347.701 342.917 345.97 343.45C340.462 345.278 334.481 338.042 328.895 337.585C325.826 337.357 323.859 338.728 321.577 340.48C315.99 344.821 310.403 341.622 304.501 339.718C298.6 337.89 290.416 338.652 289.472 345.811C289.551 347.411 291.911 347.411 292.069 345.964Z" fill="#5222D0"/>
<path d="M329.603 333.016C332.829 328.674 336.527 325.475 342.429 327.379C346.127 328.598 349.353 330.807 353.445 330.426C356.986 330.121 358.166 327.608 360.842 325.856C363.517 324.18 366.192 325.627 369.025 326.541C371.779 327.379 374.455 328.141 377.209 328.979C378.704 329.436 379.255 327.227 377.838 326.77C374.612 325.856 371.386 324.866 368.16 323.952C366.035 323.342 363.596 322.352 361.314 322.733C359.819 322.961 358.953 323.799 357.93 324.713C357.065 325.551 356.435 326.922 355.334 327.532C353.445 328.598 351.163 328.217 349.275 327.684C345.026 326.465 341.17 323.571 336.527 324.637C332.593 325.551 329.839 328.902 327.636 331.873C326.691 333.016 328.737 334.158 329.603 333.016Z" fill="#5222D0"/>
<path d="M264.093 301.38C268.263 304.426 274.165 309.072 280.381 315.394C284.945 320.04 292.499 328.419 304.932 349.822C315.791 368.482 319.646 378.689 332.315 395.598C336.013 400.549 341.679 407.708 351.2 410.222C352.144 410.45 363.79 413.344 368.826 407.784C370.478 405.956 371.029 402.986 372.052 397.045C373.075 391.028 373.233 386.61 373.233 386.61C373.783 368.787 373.626 351.04 374.728 337.483C375.436 328.495 378.032 318.593 383.068 298.79C383.619 296.505 386.924 284.394 396.052 277.006C400.458 273.426 402.426 274.112 402.898 274.264C405.652 275.407 405.337 281.043 405.258 281.957C405.022 285.308 403.842 286.299 401.245 292.316C397.39 300.999 397.783 303.665 397.94 304.579C398.491 307.854 400.537 310.215 402.032 311.586C414.543 311.891 424.694 313.49 431.933 315.013C447.12 318.136 452.156 321.411 454.831 323.62C460.34 327.962 463.33 333.065 464.982 336.416C459.238 335.959 453.415 335.426 447.671 334.969C447.356 337.102 446.884 339.996 445.94 343.5C444.838 347.841 444.209 350.126 442.635 352.944C441.533 354.925 439.881 357.819 436.576 360.256C432.563 363.151 428.393 363.684 425.481 364.141C423.12 364.446 421.153 364.522 419.737 364.446C414.543 367.492 409.429 370.463 404.235 373.509C404.865 383.944 404.944 392.703 404.944 399.33C404.865 420.2 403.212 426.598 401.403 431.472C399.672 436.118 397.547 441.755 392.275 447.239C390.937 448.686 382.675 457.064 369.928 459.121C356.551 461.33 345.613 455.312 338.295 451.123C306.584 433.072 288.329 394.912 282.821 382.573" fill="white"/>
<path opacity="0.17" d="M287.857 329.637C307.135 358.809 316.971 381.05 322.4 396.588C324.289 401.996 328.066 413.345 338.61 423.246C342.938 427.359 354.19 437.946 369.377 437.337C384.249 436.804 398.019 425.683 404.786 409.688C405.022 414.411 404.944 422.332 401.481 431.32C399.75 435.89 396.76 443.735 388.97 450.285C388.105 450.971 376.223 460.568 360.643 459.578C344.118 458.511 333.102 446.325 325.941 438.099C295.725 403.367 289.509 349.441 287.857 329.637Z" fill="#AAAAAA"/>
<path d="M246.703 293.763C272.277 300.694 288.722 322.782 300.761 344.414C307.529 356.524 313.43 369.092 320.669 380.897C326.728 390.799 333.967 401.767 344.197 408.165C353.561 414.03 367.252 414.563 374.334 404.966C375.2 403.747 373.154 402.605 372.288 403.824C363.869 415.249 347.895 409.46 339.476 401.539C330.191 392.856 323.423 381.431 317.364 370.463C305.797 349.593 296.197 327.124 278.65 310.062C269.916 301.532 259.45 294.829 247.411 291.63C245.838 291.173 245.208 293.382 246.703 293.763Z" fill="#161616"/>
<path d="M327.83 440.46C337.272 456.531 357.416 464.605 375.751 458.74C395.816 452.342 404.314 434.062 405.888 414.944C406.99 401.691 406.203 388.21 406.124 374.957C406.124 373.509 403.763 373.509 403.763 374.957C403.921 387.676 404.55 400.472 403.685 413.116C402.898 425.15 400.065 437.794 391.173 446.858C373.39 464.909 342.544 460.796 329.876 439.317C329.089 438.099 327.043 439.241 327.83 440.46Z" fill="#161616"/>
<path d="M372.918 405.195C376.301 379.831 373.705 354.163 377.01 328.799C378.505 317.374 381.18 305.95 385.98 295.362C388.183 290.488 390.859 285.918 394.006 281.576C395.029 280.129 396.131 278.758 397.311 277.463C397.626 277.082 398.098 276.321 398.57 276.092C398.727 275.94 398.885 275.788 398.963 275.635C400.616 276.245 402.268 276.854 403.921 277.463C406.124 280.205 402.819 286.755 401.639 289.193C398.255 296.124 392.826 306.863 401.56 312.424C402.819 313.261 403.999 311.281 402.74 310.443C396.996 306.787 399.357 298.942 401.796 293.991C404.235 289.117 407.54 283.861 406.517 278.225C405.967 275.026 402.898 270.761 399.042 272.512C397.154 273.35 395.658 275.635 394.399 277.235C392.668 279.367 391.016 281.652 389.521 283.937C375.672 305.264 373.39 331.313 372.839 355.839C372.446 372.291 372.682 388.819 370.478 405.118C370.321 406.642 372.682 406.642 372.918 405.195Z" fill="#161616"/>
<path d="M401.717 311.738C419.658 313.49 440.274 315.013 455.618 325.22C457.428 326.438 459.159 327.809 460.576 329.409C461.677 330.704 464.117 333.674 463.802 335.502C463.487 337.254 461.835 337.178 460.654 337.026C459.395 336.873 457.35 335.502 456.169 334.893C454.359 333.979 452.55 333.065 450.661 332.227C442.478 328.876 433.743 327.505 424.852 328.114C423.356 328.19 423.356 330.475 424.852 330.399C431.225 329.942 437.678 330.475 443.815 332.227C449.402 333.826 454.123 336.797 459.395 338.93C461.756 339.844 465.533 340.758 466.241 337.406C466.949 334.131 464.274 330.018 462.149 327.733C455.776 320.573 445.074 316.994 435.947 314.632C424.773 311.662 413.127 310.519 401.639 309.453C400.222 309.377 400.222 311.662 401.717 311.738Z" fill="#161616"/>
<path d="M425.088 328.571C419.343 329.333 412.34 332.455 410.373 338.244C408.485 343.88 413.363 346.242 418.321 346.089C426.189 345.861 434.609 344.49 441.927 341.672C443.5 341.062 453.1 335.959 448.379 333.826C447.041 333.217 445.782 335.198 447.199 335.807C447.041 335.731 443.422 338.549 442.714 338.93C440.668 339.92 438.464 340.529 436.261 341.062C431.855 342.205 427.37 343.043 422.806 343.5C420.996 343.652 419.107 343.881 417.219 343.881C415.33 343.881 412.812 342.51 412.262 340.605C412.025 339.767 413.048 337.939 413.521 337.178C416.039 333.293 421.232 331.389 425.717 330.78C427.212 330.551 426.583 328.342 425.088 328.571Z" fill="#161616"/>
<path d="M411.947 343.119C410.688 346.47 412.026 349.974 414.78 352.259C418.635 355.382 424.537 355.305 429.258 354.848C438.386 354.011 448.3 348.755 447.907 338.625C447.828 337.178 445.468 337.178 445.546 338.625C445.861 346.394 438.779 350.964 431.619 352.259C426.111 353.173 410.609 353.325 414.229 343.804C414.78 342.357 412.498 341.748 411.947 343.119Z" fill="#161616"/>
<path d="M413.599 351.421C410.373 360.256 419.973 365.969 427.999 364.902C437.127 363.684 444.209 356.219 445.625 347.536C445.861 346.089 443.579 345.48 443.343 346.927C442.32 353.249 438.228 358.809 432.091 361.399C425.324 364.293 412.34 361.703 415.881 352.03C416.353 350.659 414.071 350.05 413.599 351.421Z" fill="#161616"/>
<path d="M405.416 373.89C409.114 368.254 418.163 369.853 421.625 363.684C422.334 362.389 420.288 361.246 419.58 362.541C416.275 368.33 407.147 366.959 403.37 372.748C402.583 373.966 404.629 375.109 405.416 373.89Z" fill="#161616"/>
<path d="M368.118 647.709C363.239 653.727 358.361 660.277 353.403 667.284C346.636 676.957 340.735 686.402 335.62 695.237C336.643 698.589 338.531 703.54 342.387 708.414C347.895 715.422 354.269 718.164 362.059 722.2C363.475 722.962 372.918 728.598 391.882 739.947C399.042 744.213 409.271 750.611 421.232 759.217C418.635 753.2 415.488 746.878 411.789 740.328C400.616 720.677 387.554 705.596 375.908 694.476C382.046 687.164 388.262 679.852 394.4 672.54C385.508 664.314 376.773 656.012 368.118 647.709Z" fill="black"/>
<path d="M221.68 513.58C229.234 506.344 242.297 495.909 261.26 489.816C303.752 476.182 341.128 495.604 348.525 499.565C366.938 489.663 381.495 481.285 390.937 475.877C424.537 456.379 437.599 447.086 463.094 437.185C482.53 429.644 493.782 427.74 504.877 427.968C513.296 428.121 527.145 428.502 541.073 437.261C545.165 439.774 559.722 449.143 564.915 466.89C568.063 477.553 566.41 486.388 564.286 496.595C559.958 517.617 551.145 532.545 547.053 539.4C529.034 569.41 519.985 584.415 503.854 604.98C487.015 626.383 463.33 654.26 431.855 684.955C428.393 685.336 422.963 685.564 416.589 684.269C412.655 683.508 400.537 680.613 377.875 658.068C371.895 652.127 363.947 643.596 355.449 632.247C362.531 623.564 369.692 614.881 376.773 606.198C370.006 608.636 360.328 611.606 348.367 613.358C348.367 613.358 324.525 616.71 303.279 612.368C273.221 606.199 238.677 568.42 221.68 513.58Z" fill="white"/>
<path opacity="0.15" d="M313.037 613.815C324.289 608.483 335.777 602.466 347.423 595.916C402.74 564.535 445.31 527.518 477.493 493.167C471.199 507.867 463.959 523.177 455.697 538.791C430.832 585.862 402.662 624.783 375.908 656.164C371.344 653.346 363.397 647.328 358.911 636.97C357.731 634.304 357.023 631.714 356.551 629.353C362.846 622.117 369.22 614.805 375.515 607.569C365.757 611.987 349.39 617.7 329.089 616.405C323.187 615.948 317.758 614.958 313.037 613.815Z" fill="#7A7A7A"/>
<path d="M346.164 502.536C362.846 493.091 379.606 483.646 396.288 474.126C412.262 465.062 428.078 455.693 444.366 447.239C472.379 432.691 505.742 421.571 536.273 436.042C548.863 441.983 559.25 452.037 563.263 465.29C568.378 482.199 563.027 500.175 556.574 515.941C544.142 546.255 526.201 574.209 506.057 600.181C483.08 629.81 457.035 657.002 430.989 684.041C429.966 685.107 431.619 686.707 432.642 685.64C480.169 636.132 529.034 585.1 556.496 521.958C563.263 506.344 569.401 489.207 567.119 472.069C565.309 458.816 557.991 447.467 546.975 439.546C521.401 421.342 488.352 425.303 460.89 436.804C441.297 445.03 423.042 456.303 404.629 466.737C384.8 478.01 364.892 489.207 345.062 500.479C343.646 501.317 344.826 503.297 346.164 502.536Z" fill="#161616"/>
<path d="M475.526 495.071C435.002 538.563 395.344 582.815 356.629 627.754C355.685 628.896 357.338 630.496 358.282 629.353C396.996 584.415 436.655 540.162 477.179 496.671C478.202 495.605 476.549 494.005 475.526 495.071Z" fill="#161616"/>
<path d="M356.708 628.591C354.898 636.437 361.665 642.53 366.544 647.862C372.682 654.64 378.977 661.343 385.98 667.437C398.334 678.252 415.173 689.83 432.799 686.021C434.294 685.717 433.665 683.508 432.17 683.812C415.566 687.392 399.357 675.967 387.711 665.837C382.124 660.962 376.931 655.707 371.895 650.299C366.938 644.891 357.18 637.275 358.99 629.277C359.305 627.754 357.102 627.144 356.708 628.591Z" fill="#161616"/>
<path d="M391.96 671.854C386.609 678.176 381.259 684.574 375.829 690.896C374.885 692.038 376.537 693.638 377.482 692.495C382.832 686.174 388.183 679.776 393.613 673.454C394.557 672.387 392.904 670.712 391.96 671.854Z" fill="#161616"/>
<path d="M366.387 647.557C361.665 654.564 356.944 661.496 352.223 668.503C351.357 669.722 353.403 670.864 354.269 669.645C358.99 662.638 363.711 655.707 368.433 648.7C369.219 647.481 367.174 646.338 366.387 647.557Z" fill="#161616"/>
<path d="M352.38 666.751C348.053 672.997 343.803 679.166 339.476 685.412C336.328 689.906 332.63 694.019 335.935 699.35C341.6 708.49 350.964 715.955 359.777 722.124C379.292 735.758 401.796 744.974 420.288 760.055C421.153 760.741 422.648 760.131 422.255 758.913C413.993 731.95 390.622 713.517 376.065 689.982C375.278 688.687 373.233 689.906 374.019 691.124C388.419 714.431 411.789 732.788 419.973 759.522C420.602 759.141 421.311 758.76 421.94 758.38C405.416 744.898 385.665 735.987 367.646 724.562C358.597 718.773 349.862 712.299 342.78 704.301C340.813 702.016 337.666 699.122 336.879 696.151C335.935 692.572 340.42 687.925 342.23 685.26C346.243 679.471 350.256 673.682 354.269 667.817C355.213 666.675 353.246 665.532 352.38 666.751Z" fill="#161616"/>
<path d="M322.322 618.004C339.633 615.872 357.967 614.501 374.492 608.864C375.908 608.407 375.278 606.198 373.862 606.655C357.574 612.216 339.318 613.587 322.322 615.643C320.827 615.872 320.827 618.157 322.322 618.004Z" fill="#161616"/>
<path d="M157.786 284.547C164.475 285.232 174.468 286.222 186.664 287.06C228.92 290.107 239.542 287.822 254.021 293.839C269.68 300.389 277.863 311.586 289.037 326.819C309.653 355.077 313.273 377.699 332.787 446.172C339.004 467.956 344.433 486.16 348.525 499.489C333.574 495.681 280.539 483.951 231.359 512.209C216.881 520.511 206.022 530.413 198.153 539.324C184.619 454.398 171.242 369.473 157.786 284.547Z" fill="#EC615B"/>
<path d="M160.698 284.927C156.606 285.918 150.783 288.126 146.219 293.077C138.665 301.379 139.295 312.576 139.531 317.984C140.318 337.94 137.249 358.124 140.554 377.851C142.836 391.408 142.836 418.752 142.757 473.44C142.678 518.835 140.475 527.214 140.632 579.845C140.711 599.877 141.104 616.329 141.419 626.992C139.688 626.687 136.855 626.23 133.393 625.164C127.491 623.336 125.21 621.584 118.757 620.061C113.879 618.842 111.911 619.071 110.259 619.68C107.662 620.594 106.01 622.422 105.066 623.565C102.705 622.955 98.9279 622.346 94.6001 623.336C91.2165 624.098 88.2264 626.002 82.4822 629.734C77.2889 633.085 73.9053 635.751 72.4102 636.818C64.4628 643.063 63.0464 645.653 62.2595 647.481C61.394 649.842 61.1579 651.898 61.2366 653.422C68.0037 651.746 75.479 649.842 78.7839 649.004C88.2264 646.643 92.3182 645.577 97.5902 646.948C99.5574 647.481 103.177 648.471 105.695 651.746C107.584 654.336 107.977 657.002 108.056 658.449C102.862 660.962 98.4558 662.41 95.0722 663.324C90.7444 664.466 87.7543 664.923 87.1248 666.827C86.4166 669.112 89.4854 671.778 90.0362 672.311C91.0592 673.149 93.3411 674.749 98.6919 675.129C100.108 675.206 105.066 675.434 113.249 672.692C120.41 670.331 120.803 668.731 125.446 668.351C129.695 668.046 130.088 669.265 134.809 668.96C139.295 668.655 142.599 667.208 146.219 665.685C150.862 663.628 153.93 661.496 157.55 658.982C164.789 653.955 168.33 651.442 170.534 647.1C172.737 642.682 172.422 638.493 172.265 636.589C170.691 607.722 178.166 579.007 179.819 550.064C180.763 533.993 181.235 525.919 181.471 519.673C182.179 504.211 183.281 477.172 183.517 442.516C183.753 410.222 183.202 390.114 182.651 375.794C181.55 348.679 180.291 337.863 177.143 325.905C172.815 308.158 165.97 294.22 160.698 284.927Z" fill="white"/>
<path opacity="0.14" d="M161.327 285.537C160.226 297.114 158.652 315.242 158.022 337.33C156.212 396.512 162.271 422.484 166.599 511.752C169.196 564.611 168.566 586.014 161.327 612.673C154.717 637.046 145.275 656.088 138.036 668.731C141.498 667.741 146.298 666.066 151.649 663.171C157.708 659.972 166.363 655.402 170.77 647.252C174.075 641.235 173.602 636.056 173.445 628.058C173.209 615.262 175.255 602.542 175.57 589.823C176.042 569.105 178.402 564.84 181.314 536.811C184.304 507.944 184.54 486.312 184.855 460.949C185.012 449.905 184.461 430.939 183.438 393.084C182.494 356.296 181.943 348.908 180.055 338.625C175.648 315.394 167.543 297.267 161.327 285.537Z" fill="#898989"/>
<path d="M161.012 283.861C152.199 281.652 145.432 290.868 142.521 297.723C138.508 307.092 138.272 317.755 137.957 327.733C137.17 353.477 139.924 379.069 141.026 404.738C143.308 456.455 140.632 508.172 139.767 559.889C139.295 588.985 139.452 618.081 141.34 647.176C141.419 648.623 143.78 648.623 143.701 647.176C140.475 598.049 142.285 548.769 143.465 499.641C144.016 475.573 144.488 451.428 144.016 427.359C143.544 402.833 141.419 378.384 140.475 353.934C139.924 340.91 139.767 327.733 141.026 314.709C141.577 308.92 142.6 302.979 145.118 297.647C147.636 292.239 153.301 284.318 160.383 286.146C161.878 286.451 162.507 284.242 161.012 283.861Z" fill="#161616"/>
<path d="M160.304 286.07C172.343 304.198 177.537 325.296 179.819 346.546C182.258 368.559 182.258 390.951 182.494 413.04C183.045 461.863 181.628 510.762 178.245 559.432C176.356 587.081 173.838 614.653 170.691 642.149C170.534 643.596 172.894 643.596 173.052 642.149C178.717 592.641 182.337 542.828 183.989 493.015C184.776 468.337 185.091 443.659 184.933 418.981C184.776 396.131 184.776 373.052 182.573 350.279C180.448 327.352 175.333 304.426 162.271 284.851C161.563 283.709 159.517 284.851 160.304 286.07Z" fill="#161616"/>
<path d="M123.872 649.157C119.151 652.584 114.115 655.555 108.764 657.84C103.492 660.125 98.0624 661.267 92.4756 662.867C83.9773 665.228 87.597 674.139 94.6002 675.739C99.0853 676.805 104.121 676.577 108.685 675.586C114.429 674.292 119.151 669.95 125.131 669.645C133.236 669.188 143.544 672.921 148.895 664.771C149.681 663.552 147.636 662.41 146.849 663.628C142.127 670.864 131.505 666.827 124.423 667.36C120.882 667.589 118.128 669.112 115.059 670.712C110.652 672.997 106.01 674.139 101.053 674.139C98.928 674.139 96.646 674.063 94.6002 673.454C91.2166 672.464 86.8101 667.97 92.1609 665.38C93.892 664.542 96.2526 664.39 98.1411 663.933C100.108 663.4 102.075 662.79 103.964 662.181C111.518 659.591 118.6 655.859 125.052 651.137C126.233 650.299 125.052 648.319 123.872 649.157Z" fill="#161616"/>
<path d="M109.393 658.601C109.551 650.985 102.233 646.11 94.9936 645.5C89.5641 645.12 84.2134 646.567 79.02 647.862C73.0398 649.385 67.0595 650.832 61.1579 652.355C61.6301 652.736 62.1809 653.117 62.653 653.422C61.6301 645.805 69.4988 642.454 75.7151 640.626C81.3806 638.95 87.0461 637.732 92.869 636.894C94.3641 636.665 93.7346 634.456 92.2395 634.685C82.1675 636.132 58.2465 638.95 60.2137 653.422C60.2924 654.183 60.9219 654.717 61.7088 654.488C69.971 652.432 78.3118 649.918 86.7314 648.319C94.5214 646.872 107.19 648.166 107.033 658.449C107.033 660.048 109.393 660.048 109.393 658.601Z" fill="#161616"/>
<path d="M71.1512 640.702C77.2102 632.019 87.7543 627.449 98.4558 628.591C99.9509 628.744 99.9509 626.459 98.4558 626.306C86.8887 625.088 75.6364 630.267 69.1054 639.56C68.2398 640.778 70.2857 641.921 71.1512 640.702Z" fill="#161616"/>
<path d="M86.338 629.201C93.9707 621.051 105.774 624.555 114.98 627.601C116.397 628.058 117.026 625.849 115.61 625.392C105.538 622.041 92.869 618.766 84.6068 627.601C83.6626 628.744 85.315 630.343 86.338 629.201Z" fill="#161616"/>
<path d="M107.19 623.336C109.551 618.461 118.678 621.051 122.613 622.117C127.964 623.564 132.842 625.926 137.327 628.896C138.586 629.734 139.767 627.754 138.508 626.916C132.37 622.803 125.367 619.908 117.97 618.766C113.564 618.08 107.347 617.395 105.066 622.117C104.515 623.564 106.561 624.707 107.19 623.336Z" fill="#161616"/>
<path d="M170.376 640.854C171.163 647.633 166.284 652.432 160.855 655.935C155.976 659.058 150.783 661.876 145.747 664.847C144.488 665.608 145.668 667.589 146.927 666.827C156.527 661.191 174.311 654.336 172.658 640.854C172.579 639.407 170.219 639.331 170.376 640.854Z" fill="#161616"/>
<path d="M341.049 783.514C341.521 785.038 342.308 785.114 347.816 791.207C352.931 796.92 354.19 798.976 361.115 807.507C364.026 811.087 368.197 816.19 373.547 822.283C375.908 822.817 379.37 823.426 383.541 823.502C393.062 823.502 400.222 820.379 402.583 819.389C406.281 817.866 404.55 819.008 444.602 810.325C458.766 807.278 480.09 802.556 509.991 795.625C510.857 794.178 511.723 792.731 512.588 791.36C508.496 790.674 502.359 789.76 494.883 789.075C479.618 787.627 474.11 788.542 459.081 788.008C443.028 787.399 431.461 785.571 422.412 784.2C406.753 781.763 398.806 780.392 392.59 776.202C382.124 769.043 378.032 757.922 376.301 751.601C345.456 769.119 339.554 778.335 341.049 783.514Z" fill="black"/>
<path d="M192.33 500.175C183.91 503.831 179.504 510.152 177.773 512.666C173.209 519.368 171.793 526.376 171.32 534.526C169.904 556.766 175.884 575.046 177.065 578.702C185.327 603.228 196.264 620.822 204.133 633.238C232.303 677.795 250.244 702.168 250.244 702.168C266.611 724.409 289.037 753.733 317.443 787.475C321.614 787.551 327.751 787.247 334.833 785.495C350.335 781.686 360.249 773.232 370.006 764.701C376.695 758.836 385.823 749.773 394.321 736.9C388.813 726.542 381.573 713.213 372.76 697.903C368.118 689.829 354.19 665.761 333.81 634.38C322.243 616.557 311.699 601.552 290.689 571.543C284.552 562.783 272.434 545.57 253.864 525.538C241.588 512.209 230.257 501.698 214.126 498.651C209.956 497.737 201.458 496.214 192.33 500.175Z" fill="white"/>
<path opacity="0.06" d="M192.33 500.175C191.937 505.811 191.622 515.789 193.432 527.823C197.602 555.776 210.113 575.503 216.959 586.014C234.349 612.749 282.112 684.498 349.705 779.554C346.164 781.534 341.207 783.819 335.069 785.419C328.066 787.247 321.85 787.551 317.443 787.399C311.62 780.392 303.279 770.109 293.286 757.542C260.867 716.64 239.228 686.174 229.864 672.844C205.471 637.884 195.635 620.975 187.845 605.132C187.845 605.132 176.593 582.358 171.557 549.759C170.691 544.351 170.061 538.563 171.478 531.479C174.783 515.636 185.956 505.202 192.33 500.175Z" fill="#A5A5A5" stroke="#A5A5A5" stroke-miterlimit="10"/>
<path d="M319.253 786.028C290.06 753.2 262.834 718.773 237.89 682.746C225.536 664.923 213.654 646.719 202.402 628.211C191.071 609.55 181.078 590.584 175.648 569.41C170.534 549.378 166.835 524.396 182.966 507.943C199.412 491.187 224.434 499.337 239.936 512.818C247.49 519.369 253.942 527.061 260.316 534.678C267.398 543.133 274.244 551.663 280.932 560.422C294.152 577.636 306.742 595.307 318.781 613.358C345.849 653.803 370.321 695.694 394.793 737.586C395.58 738.881 397.547 737.738 396.839 736.444C373.783 696.989 350.728 657.535 325.469 619.299C313.037 600.41 300.053 581.825 286.362 563.774C279.752 555.015 272.985 546.408 265.981 537.953C259.136 529.651 252.29 521.197 244.421 513.808C230.887 501.089 210.428 490.73 191.622 499.032C173.524 507.03 167.779 527.823 169.038 545.494C170.534 567.354 178.088 589.137 188.317 608.56C198.861 628.439 211.294 647.481 223.805 666.218C252.054 708.719 283.45 749.24 317.522 787.475C318.623 788.77 320.276 787.094 319.253 786.028Z" fill="#161616"/>
<path d="M317.443 788.618C352.38 789.912 376.223 761.731 395.422 737.434C396.367 736.291 394.321 735.149 393.377 736.291C374.649 759.903 351.436 787.627 317.443 786.333C315.948 786.256 315.948 788.541 317.443 788.618Z" fill="#161616"/>
<path d="M341.207 785.038C346.243 791.284 351.357 797.453 356.393 803.699C361.272 809.716 365.836 816.19 371.187 821.826C375.278 826.168 379.842 825.482 385.272 824.34C393.455 822.588 401.639 820.836 409.744 819.084C441.927 812.153 474.031 805.222 506.214 798.215C507.71 797.91 507.08 795.701 505.585 796.006C475.448 802.48 445.389 809.03 415.252 815.505C407.619 817.18 399.908 818.78 392.275 820.455C388.813 821.217 385.272 822.131 381.81 822.74C377.01 823.578 374.177 821.903 371.265 818.475C361.587 806.898 352.223 795.168 342.78 783.515C341.915 782.22 340.262 783.895 341.207 785.038Z" fill="#161616"/>
<path d="M378.032 756.628C381.337 779.325 407.776 785.038 427.448 785.8C455.933 786.866 484.103 788.389 512.273 792.426C512.037 791.969 511.723 791.512 511.487 791.055C510.778 794.178 508.26 796.082 504.955 795.93C503.46 795.853 503.46 798.138 504.955 798.215C509.283 798.443 512.903 795.777 513.768 791.664C513.926 791.131 513.611 790.37 512.982 790.293C487.487 786.637 461.835 784.505 436.025 783.819C415.488 783.286 384.013 781.382 380.393 756.095C380.078 754.571 377.796 755.18 378.032 756.628Z" fill="#161616"/>
<path d="M183.124 200.687C182.966 200.23 181.314 194.289 175.727 192.461C170.219 190.709 165.025 194.365 162.586 197.564C158.73 202.591 160.383 208.685 161.012 211.198C162.35 216.301 165.576 219.5 168.409 222.318C170.219 224.146 171.635 225.517 173.996 226.431C178.009 227.955 181.865 227.041 183.596 226.508C183.91 228.716 184.304 232.296 184.619 236.714C185.012 242.122 185.642 252.48 183.832 282.642C183.674 285.461 183.438 289.574 183.045 294.601C183.753 295.972 184.855 297.8 186.901 299.323C190.442 301.989 194.455 302.065 197.13 302.217C202.087 302.446 208.776 302.903 217.825 304.198C219.084 302.827 220.343 301.227 221.523 299.247C225.93 291.782 225.694 284.242 225.3 280.51C229.471 281.881 234.743 283.176 241.038 283.709C244.815 284.013 248.277 284.013 251.267 283.861C254.729 281.881 259.529 278.758 264.329 273.883C269.286 268.932 271.962 264.439 274.873 259.488C276.998 255.832 281.955 247.073 285.732 234.657C287.227 229.783 289.509 221.252 290.532 210.284C290.768 207.39 291.791 195.812 289.666 180.579C288.093 169.078 287.227 163.289 283.135 156.282C282.112 154.53 277.785 147.37 269.286 141.353C255.673 131.68 239.228 130.538 229.549 132.137C205.235 136.022 183.674 164.051 183.124 200.687Z" fill="white"/>
<path opacity="0.06" d="M207.753 158.034C206.179 161.69 204.212 167.174 202.795 173.877C201.3 180.808 199.097 195.736 206.415 223.385C210.192 237.552 217.353 258.422 231.752 281.728C228.92 280.814 226.166 279.9 223.333 278.986C225.064 282.185 226.716 286.07 225.3 287.441C222.861 289.802 212.238 283.556 206.258 278.834C200.356 274.264 190.756 264.896 185.012 246.692C184.54 239.913 184.068 233.21 183.517 226.432C181.471 227.041 178.481 227.65 175.097 226.889C163.373 224.299 160.304 208.152 160.147 207.238C159.517 203.81 158.258 196.574 162.586 191.243C167.229 185.454 173.052 188.577 178.717 183.55C187.294 175.933 180.606 162.832 187.845 157.272C190.599 155.14 195.95 153.616 207.753 158.034Z" fill="#AAAAAA"/>
<path d="M184.54 236.638C176.593 233.21 165.891 227.041 158.967 215.921C150.311 202.058 157.944 197.107 148.58 174.41C142.442 159.481 137.8 148.132 129.616 137.697C129.459 137.545 126.311 133.432 126.941 132.899C128.278 131.68 145.039 148.513 147.714 146.456C149.288 145.238 144.252 138.764 141.813 130.766C139.059 121.778 139.137 109.516 147.714 92.759C148.895 95.8818 151.334 101.061 156.291 105.86C164.239 113.476 173.524 115.38 177.065 115.914C175.019 112.181 169.668 101.137 172.107 87.1227C175.648 66.8623 192.487 56.7322 195.084 55.2088C201.536 63.3587 207.989 71.5085 214.52 79.6583C214.048 78.5158 210.9 69.9852 215.858 61.7592C219.399 55.9705 224.907 53.6855 226.716 53C230.808 66.0245 236.552 74.7075 240.723 80.0392C252.133 94.587 261.024 95.501 275.896 112.791C282.112 119.951 287.935 126.653 291.712 136.402C298.952 154.987 294.388 173.419 290.217 184.54C289.588 177.304 287.935 167.631 283.765 156.815C278.965 144.324 272.513 135.031 267.555 128.862C261.496 134.574 255.437 140.363 249.378 146.076C241.746 142.115 234.113 138.154 226.402 134.194C220.185 142.115 214.048 150.036 207.831 157.958C201.379 159.405 194.927 160.776 188.396 162.223C187.766 169.84 187.058 177.456 186.428 185.073C187.137 196.27 185.878 199.697 184.225 200.154C181.392 200.916 178.402 191.623 172.422 192.08C165.97 192.613 163.137 199.392 162.507 200.992C160.934 205.181 161.957 208.837 162.507 211.046C163.058 213.026 165.812 222.242 174.704 225.441C178.324 226.736 181.55 226.584 183.438 226.355C183.832 229.859 184.225 233.21 184.54 236.638Z" fill="#5222D0"/>
<path d="M183.674 228.336C184.933 235.952 188.317 242.883 192.173 249.51C196.028 256.213 199.884 263.068 205.235 268.704C216.015 279.977 233.09 284.775 248.513 285.384C250.008 285.461 250.008 283.176 248.513 283.099C233.247 282.49 216.33 277.692 206.022 266.19C201.222 260.859 197.681 254.537 194.219 248.367C190.442 241.817 187.137 235.115 185.956 227.726C185.72 226.279 183.438 226.889 183.674 228.336Z" fill="#161616"/>
<path d="M281.876 156.51C290.453 178.751 292.027 203.201 286.676 226.432C281.719 247.606 270.545 273.503 249.142 283.557C247.805 284.166 248.985 286.146 250.323 285.537C271.883 275.407 283.45 249.662 288.644 228.336C294.466 204.419 293.05 179.056 284.158 155.977C283.686 154.53 281.404 155.063 281.876 156.51Z" fill="#161616"/>
<path d="M182.651 227.574C183.832 241.056 184.225 254.613 183.596 268.095C183.281 274.569 182.73 281.119 182.022 287.593C181.55 291.478 180.842 296.124 184.225 298.942C188.002 302.065 194.848 302.827 199.569 303.665C204.999 304.655 211.058 305.721 216.566 305.264C220.736 304.959 221.68 302.065 222.861 298.561C224.828 292.62 225.93 286.527 226.402 280.358C226.48 278.91 224.12 278.91 224.041 280.358C223.648 285.689 222.782 290.869 221.208 295.972C220.343 298.79 219.713 302.446 216.015 303.055C213.654 303.436 210.743 302.903 208.382 302.674C203.268 302.217 198.153 301.303 193.196 300.009C190.835 299.399 187.137 298.79 185.406 297.038C183.517 295.058 183.832 292.087 184.068 289.65C186.192 268.933 186.822 248.368 184.933 227.574C184.933 226.127 182.573 226.127 182.651 227.574Z" fill="#161616"/>
<path d="M183.989 224.68C174.153 231.611 162.665 216.073 161.484 207.847C160.698 202.515 162.98 196.727 168.252 194.289C174.153 191.547 180.92 194.746 182.101 200.992C182.337 202.439 184.619 201.83 184.383 200.383C183.281 194.289 177.458 190.252 171.084 191.166C164.475 192.08 159.832 197.641 159.124 203.886C157.786 214.778 172.658 235.648 185.327 226.736C186.35 225.822 185.169 223.842 183.989 224.68Z" fill="#161616"/>
<path d="M214.756 172.81C216.723 167.402 221.838 160.776 228.526 162.071C234.743 163.213 237.654 169.154 238.598 174.638C238.834 176.085 241.116 175.476 240.88 174.029C239.7 167.326 235.451 160.243 227.661 159.633C220.185 159.1 214.677 166.031 212.395 172.201C212.002 173.572 214.284 174.181 214.756 172.81Z" fill="#161616"/>
<path d="M266.768 172.429C268.027 168.926 270.781 165.727 274.716 164.889C279.201 163.975 283.608 166.793 284.552 171.058C284.867 172.506 287.148 171.896 286.834 170.449C285.732 165.422 280.775 161.995 275.424 162.452C270.073 162.985 266.139 167.098 264.486 171.82C264.014 173.267 266.296 173.877 266.768 172.429Z" fill="#161616"/>
<path d="M256.696 180.884C256.775 191.547 256.382 202.287 255.673 212.95C255.28 218.129 254.887 223.385 254.257 228.564C253.706 233.591 253.549 238.999 250.559 243.341C251.267 243.417 251.975 243.493 252.683 243.645C250.637 238.694 249.142 233.743 248.041 228.564C247.726 227.117 245.444 227.726 245.759 229.174C246.86 234.353 248.434 239.38 250.401 244.255C250.795 245.169 251.975 245.397 252.526 244.559C254.887 241.056 255.516 237.095 255.988 233.058C256.696 227.422 257.247 221.709 257.641 215.997C258.506 204.343 258.9 192.69 258.9 180.96C259.057 179.437 256.696 179.437 256.696 180.884Z" fill="#161616"/>
<path d="M218.769 238.542C221.523 243.569 223.569 248.977 228.841 252.023C233.248 254.537 238.52 255.07 243.398 253.699C244.815 253.318 244.264 251.109 242.769 251.49C238.126 252.785 233.169 252.176 229.156 249.51C224.907 246.616 223.176 241.741 220.815 237.476C220.107 236.105 218.061 237.247 218.769 238.542Z" fill="#161616"/>
<path d="M230.651 214.778C232.824 214.778 234.585 210.481 234.585 205.181C234.585 199.881 232.824 195.584 230.651 195.584C228.478 195.584 226.716 199.881 226.716 205.181C226.716 210.481 228.478 214.778 230.651 214.778Z" fill="#161616"/>
<path d="M275.503 214.778C277.676 214.778 279.437 210.481 279.437 205.181C279.437 199.881 277.676 195.584 275.503 195.584C273.33 195.584 271.568 199.881 271.568 205.181C271.568 210.481 273.33 214.778 275.503 214.778Z" fill="#161616"/>
<path d="M36.2799 563.869C29.2767 557.09 24.3194 548.94 21.5654 539.724C21.1719 540.181 20.7785 540.714 20.4637 541.171C22.5096 541.019 24.6342 540.867 26.6801 540.714C27.8604 540.638 28.2538 539.267 27.3096 538.582C24.0834 536.449 22.0375 533.25 21.2506 529.594C20.8572 527.614 20.8572 525.557 21.2506 523.577C21.6441 521.977 22.9031 520.53 23.2178 519.083C23.6899 516.57 20.6998 512.685 19.6769 510.324C17.7097 505.906 15.9786 501.489 14.3261 496.919C8.10981 479.629 4.17544 461.653 2.60169 443.45C2.12956 443.83 1.57875 444.211 1.10662 444.516C3.46725 445.354 5.27706 446.725 6.85081 448.705C7.559 449.695 9.4475 449.162 8.97537 447.791C5.59181 436.442 4.64756 424.789 6.14262 413.059C5.43444 413.364 4.80494 413.592 4.09675 413.897C10.2344 419.381 13.854 426.541 16.7654 433.929C19.9916 442.307 22.8244 450.914 25.7358 459.445C31.7947 477.344 37.6176 495.319 43.1257 513.294C43.5192 514.437 45.6437 514.285 45.4077 512.99C46.5093 510.4 47.3749 509.791 47.9257 511.314C48.2404 511.923 48.5552 512.533 48.8699 513.142C49.4994 514.361 50.1289 515.579 50.7584 516.798C51.8601 519.083 52.9617 521.368 53.9846 523.653C56.1092 528.299 59.0206 532.26 61.3812 536.83C66.3385 546.198 68.7779 556.633 68.6992 567.144C68.6992 568.591 71.0598 568.591 71.0598 567.144C71.0598 557.09 68.9352 547.112 64.5287 537.972C62.2468 533.25 58.8632 529.137 56.8174 524.415C54.4567 518.931 51.7814 513.599 48.8699 508.42C48.7126 508.039 48.2404 507.887 47.847 507.887C44.7782 507.887 42.5749 510.095 42.9684 513.066C43.7552 512.99 44.5421 512.837 45.2503 512.761C39.4274 493.72 33.2898 474.83 26.9161 456.017C21.8801 441.241 17.9457 423.265 5.6705 412.297C4.88363 411.536 3.782 412.145 3.62463 413.135C2.05088 425.017 3.07381 436.975 6.53606 448.477C7.24425 448.172 7.95243 447.867 8.66062 447.563C6.77212 445.049 4.56887 443.45 1.50006 442.307C0.791874 442.079 -0.0736868 442.688 0.00500072 443.373C1.73613 463.405 6.22131 483.209 13.5392 502.098C15.2704 506.516 17.1589 510.933 19.2047 515.275C20.3064 517.636 20.6211 518.169 19.6769 520.454C19.1261 521.825 18.7326 523.272 18.5753 524.719C17.7884 530.965 20.6998 537.058 26.0506 540.638C26.2866 539.953 26.444 539.191 26.6801 538.506C24.6342 538.658 22.5096 538.81 20.4637 538.963C19.6769 539.039 19.1261 539.648 19.3621 540.41C22.1949 550.007 27.3882 558.537 34.7062 565.545C35.6504 566.459 37.3816 564.859 36.2799 563.869Z" fill="#E8E8E8"/>
<path d="M82.3908 702.873C80.581 708.738 69.6434 706.91 65.1582 706.148C59.6501 705.234 54.2994 703.559 49.1847 701.578C43.9913 699.598 38.7192 697.161 34.8636 693.2C30.8505 689.087 27.0735 681.547 31.9521 676.596C39.3487 669.055 55.0862 674.996 62.955 679.033C70.4303 682.765 87.8202 693.733 81.6039 703.635C80.8171 704.93 82.8629 706.072 83.6498 704.777C89.1579 695.942 79.2433 687.183 72.6336 682.232C64.0566 675.91 52.6469 670.959 41.7094 670.883C31.9521 670.807 24.7129 677.891 28.3325 687.411C32.1882 697.542 43.5192 702.188 53.2764 705.387C60.1222 707.672 67.6762 709.423 74.9942 709.043C79.0859 708.814 83.4137 707.596 84.7514 703.406C85.0662 702.035 82.7842 701.426 82.3908 702.873Z" fill="#E8E8E8"/>
<path d="M82.0761 214.645C88.334 214.645 93.4071 209.734 93.4071 203.677C93.4071 197.619 88.334 192.709 82.0761 192.709C75.8181 192.709 70.7451 197.619 70.7451 203.677C70.7451 209.734 75.8181 214.645 82.0761 214.645Z" fill="#EC615B"/>
<path d="M472.759 384.42C475.323 384.42 477.402 382.408 477.402 379.927C477.402 377.445 475.323 375.433 472.759 375.433C470.195 375.433 468.117 377.445 468.117 379.927C468.117 382.408 470.195 384.42 472.759 384.42Z" fill="#EC615B"/>
<path d="M123.93 194.09C155.54 184.61 187.93 194.47 219.06 200.97C234.06 204.1 249.25 206.62 264.6 206.25C279.95 205.88 295.37 202.84 310.21 198.54C341.62 189.44 371.35 175.42 402.7 166.03C472.173 145.262 545.3 139.679 617.12 149.66C618.07 149.79 618.48 148.35 617.52 148.22C551.316 139.038 483.951 142.983 419.27 159.83C386.73 168.34 356.1 181.68 324.34 192.49C308.41 197.92 292.03 202.43 275.23 204.09C258.81 205.72 242.55 204.02 226.4 200.92C192.68 194.46 157.77 182.37 123.56 192.65C123.384 192.716 123.239 192.845 123.154 193.012C123.069 193.179 123.049 193.373 123.099 193.554C123.15 193.735 123.266 193.89 123.425 193.989C123.585 194.089 123.776 194.125 123.96 194.09H123.93Z" fill="#E8E8E8"/>
<path d="M394.72 126.26C448.88 127.17 500.53 104.9 554.8 107.39C607.47 109.81 657.8 130.5 710.89 128.67C736.05 127.81 761.12 121.82 781.99 107.29C782.78 106.74 781.99 105.44 781.23 105.99C740.09 134.64 687.05 128.99 640.61 119.76C614.67 114.63 588.82 108.44 562.39 106.37C535.96 104.3 510.18 107.86 484.39 112.78C454.74 118.44 425.1 125.27 394.73 124.78C394.531 124.78 394.341 124.859 394.2 125C394.059 125.14 393.98 125.331 393.98 125.53C393.98 125.729 394.059 125.92 394.2 126.06C394.341 126.201 394.531 126.28 394.73 126.28L394.72 126.26Z" fill="#E8E8E8"/>
<path d="M76.1303 103.19C92.6641 94.7092 111.381 91.4421 129.81 93.82C148.35 96.28 164.81 105.52 182.34 111.47C216.51 123.09 253.11 125.47 288.93 123.21C309.5 121.767 329.974 119.193 350.26 115.5C351.26 115.33 350.81 113.89 349.86 114.05C312.56 120.59 274.56 124.73 236.69 121.22C217.731 119.564 199.044 115.609 181.04 109.44C164.04 103.5 148.04 94.71 129.91 92.32C111.183 89.9244 92.1696 93.2647 75.3803 101.9C74.5203 102.33 75.2703 103.63 76.1303 103.19Z" fill="#E8E8E8"/>
<path d="M239.37 81.3C303.83 95.62 366.31 67.46 427.95 52.87C446.57 48.46 465.47 45.29 484.63 44.66C485.63 44.66 485.63 43.12 484.63 43.16C419.56 45.32 360.18 76.91 295.71 82.84C276.99 84.57 258.15 83.94 239.77 79.84C238.83 79.63 238.43 81.07 239.37 81.28V81.3Z" fill="#E8E8E8"/>
<path d="M265.62 156.15C267.609 156.15 269.22 154.538 269.22 152.55C269.22 150.562 267.609 148.95 265.62 148.95C263.632 148.95 262.02 150.562 262.02 152.55C262.02 154.538 263.632 156.15 265.62 156.15Z" fill="#461EB8"/>
<path d="M399.5 10.56C402.14 10.56 404.28 8.41992 404.28 5.78C404.28 3.14008 402.14 1 399.5 1C396.86 1 394.72 3.14008 394.72 5.78C394.72 8.41992 396.86 10.56 399.5 10.56Z" stroke="#461EB8" stroke-miterlimit="10"/>
<path d="M238.62 145.9C240.598 145.9 242.2 144.297 242.2 142.32C242.2 140.343 240.598 138.74 238.62 138.74C236.643 138.74 235.04 140.343 235.04 142.32C235.04 144.297 236.643 145.9 238.62 145.9Z" fill="#EC615B"/>
<path d="M210.82 69.2901C213.819 69.2901 216.25 66.859 216.25 63.8601C216.25 60.8611 213.819 58.4301 210.82 58.4301C207.821 58.4301 205.39 60.8611 205.39 63.8601C205.39 66.859 207.821 69.2901 210.82 69.2901Z" stroke="#EC615B" stroke-miterlimit="10"/>
<path d="M376.03 167.75C379.068 167.75 381.53 165.288 381.53 162.25C381.53 159.212 379.068 156.75 376.03 156.75C372.993 156.75 370.53 159.212 370.53 162.25C370.53 165.288 372.993 167.75 376.03 167.75Z" fill="#EC615B"/>
<path d="M338.59 43.01C340.794 43.01 342.58 41.2236 342.58 39.02C342.58 36.8164 340.794 35.03 338.59 35.03C336.387 35.03 334.6 36.8164 334.6 39.02C334.6 41.2236 336.387 43.01 338.59 43.01Z" fill="#EC615B"/>
<path d="M296.8 53.09C297.198 53.09 297.58 52.932 297.861 52.6507C298.142 52.3694 298.3 51.9879 298.3 51.59C298.3 51.1922 298.142 50.8107 297.861 50.5294C297.58 50.2481 297.198 50.09 296.8 50.09C296.403 50.09 296.021 50.2481 295.74 50.5294C295.458 50.8107 295.3 51.1922 295.3 51.59C295.3 51.9879 295.458 52.3694 295.74 52.6507C296.021 52.932 296.403 53.09 296.8 53.09Z" fill="#EC615B"/>
<path d="M406.91 83.44C407.308 83.44 407.69 83.282 407.971 83.0007C408.252 82.7194 408.41 82.3378 408.41 81.94C408.41 81.5422 408.252 81.1606 407.971 80.8793C407.69 80.598 407.308 80.44 406.91 80.44C406.513 80.44 406.131 80.598 405.85 80.8793C405.568 81.1606 405.41 81.5422 405.41 81.94C405.41 82.3378 405.568 82.7194 405.85 83.0007C406.131 83.282 406.513 83.44 406.91 83.44Z" fill="#461EB8"/>
<path d="M256.61 7.54998C260.07 2.65998 262.94 6.64998 266.36 7.41998C267.87 7.75998 268.25 7.22998 269.6 6.80998C272.35 5.93998 273.8 6.80998 276.37 7.11998C279.74 7.52998 281.67 4.87998 285.69 6.59998C286.57 6.97998 287.33 5.68998 286.45 5.30998C283.52 4.04998 281.66 4.57998 278.63 4.89998C275.6 5.21998 273.22 3.89998 270.27 4.51998C268.91 4.82998 267.53 5.89998 265.88 5.51998C265.18 5.35998 264.46 4.61998 263.76 4.36998C262.865 4.0283 261.918 3.84228 260.96 3.81998C259.841 3.78824 258.732 4.04809 257.744 4.57403C256.755 5.09997 255.92 5.87393 255.32 6.81998C254.76 7.60998 256.06 8.35998 256.61 7.56998V7.54998Z" fill="#461EB8"/>
<path d="M278.06 105.33C278.58 101.46 284.94 106 286.71 106.24C288.48 106.48 289.79 105.69 291.26 104.75C293.43 103.36 293.05 102.96 296.55 104.44C296.96 104.61 297.19 105.24 297.66 105.32C300.21 105.74 305.32 104.53 306.86 105.85C307.59 106.48 308.65 105.42 307.92 104.79C305.32 102.56 303.82 103.14 300.76 103.41C299.37 103.556 297.968 103.254 296.76 102.55C296.35 102.38 296.08 101.97 295.66 101.81C294.871 101.53 294.01 101.53 293.22 101.81C289.47 102.87 290.22 105.81 284.76 103.87C283.49 103.42 282.57 102.4 281.18 102.16C279.01 101.79 276.89 102.7 276.59 104.95C276.46 105.89 277.91 106.3 278.03 105.35L278.06 105.33Z" fill="#461EB8"/>
<path d="M303.93 111.21C306.74 110.98 309.76 110.39 312.57 110.5C316.04 110.63 317.57 112.5 320.37 113.5C321.722 113.963 323.164 114.097 324.578 113.892C325.992 113.687 327.336 113.148 328.5 112.32C329.3 111.8 328.55 110.5 327.74 111.02C324 113.45 321.34 112.28 317.91 110.1C317.281 109.607 316.561 109.243 315.79 109.03C312.27 108.13 307.52 109.42 303.93 109.71C302.93 109.79 302.93 111.29 303.93 111.21Z" fill="#461EB8"/>
</svg>
